<svg width="546" height="501" fill="none" xmlns="http://www.w3.org/2000/svg"><path fill-rule="evenodd" clip-rule="evenodd" d="M157 94.4l15.5 9c2.9 1.6 5.2-.1 5.2-4v-4.2c0-3.8-2.3-8.3-5.2-10L157 76.4c-2.8-1.6-5.1.1-5.1 4v4.2c0 3.8 2.3 8.2 5.1 10z" fill="url(#paint0_linear)"/><path fill-rule="evenodd" clip-rule="evenodd" d="M223 114.4l-34.8-20.1c-2.9-1.7-5.2 0-5.2 4v4.2c0 3.8 2.3 8.2 5.2 9.9l34.8 20.1c2.9 1.7 5.2 0 5.2-4v-4.2c0-3.8-2.3-8.2-5.2-9.9z" fill="url(#paint1_linear)"/><path fill-rule="evenodd" clip-rule="evenodd" d="M151.9 102.8l76.3 44v-4L152 98.6v4z" fill="url(#paint2_linear)"/><path fill-rule="evenodd" clip-rule="evenodd" d="M151.9 108.6l53.7 31v-4l-53.7-31v4z" fill="url(#paint3_linear)"/><path opacity=".7" fill-rule="evenodd" clip-rule="evenodd" d="M225.2 108l-70.3-40.5c-2.6-1.5-4.8-5.7-4.8-9.2V17.9c0-3.5 2.2-5.2 4.8-3.7l70.3 40.6c2.6 1.5 4.8 5.7 4.8 9.3v40.3c0 3.6-2.2 5.2-4.8 3.7z" fill="url(#paint4_linear)"/><path fill-rule="evenodd" clip-rule="evenodd" d="M495.2 325.4l27.4-15.8c8.7-5 8.7-13.2 0-18.2L271 146c-8.7-5-22.9-5-31.5 0L212 161.9c-8.7 5-22.8 5-31.5 0l-44.2-25.5c-8.7-5-22.8-5-31.5 0L6.7 193c-8.7 5-8.7 13.1 0 18.2l44.2 25.5c8.7 5 8.7 13.2 0 18.2l-37.6 21.7c-8.7 5-8.7 13.2 0 18.2l86.7 50c8.7 5 22.8 5 31.5 0l37.5-21.6c8.8-5 22.9-5 31.6 0l18.3 10.5c8.7 5 8.7 13.2 0 18.2l-37.6 21.7c-8.7 5-8.7 13.2 0 18.2l83.7 48.3c8.7 5 22.9 5 31.5 0l37.6-21.7c8.7-5 22.9-5 31.5 0L410 444c8.7 5 22.8 5 31.5 0l98-56.6c8.7-5 8.7-13.2 0-18.2l-44.2-25.6c-8.7-5-8.7-13.2 0-18.2z" fill="white"/><path opacity=".7" fill-rule="evenodd" clip-rule="evenodd" d="M495 325.8l27.5-15.9c8.7-5 8.7-13.2 0-18.2L270.8 146.4c-8.7-5-22.8-5-31.5 0L212 162.2c-8.7 5-22.8 5-31.5 0l-44.2-25.5c-8.8-5-22.9-5-31.5 0L6.5 193.3c-8.7 5-8.7 13.2 0 18.2L50.7 237c8.8 5 8.8 13.2 0 18.2L13.2 277c-8.7 5-8.7 13.2 0 18.2l86.6 50c8.7 5 22.9 5 31.5 0l37.6-21.6c8.7-5 22.8-5 31.5 0l18.4 10.5c8.7 5 8.7 13.2 0 18.3l-37.6 21.6c-8.7 5-8.7 13.2 0 18.2l83.7 48.3c8.7 5 22.8 5 31.5 0l37.6-21.6c8.7-5 22.8-5 31.5 0l44.2 25.5c8.8 5 22.9 5 31.6 0l98-56.6c8.7-5 8.7-13.2 0-18.2L495 344c-8.7-5-8.7-13.2 0-18.2z" fill="url(#paint5_linear)"/><path fill-rule="evenodd" clip-rule="evenodd" d="M495.2 343.6l33.8 19.6V302c-.6 2.7-2.7 5.4-6.4 7.5l-27.4 15.8c-8.7 5-8.7 13.2 0 18.2z" fill="url(#paint6_linear)"/><path fill-rule="evenodd" clip-rule="evenodd" d="M348.5 414.7h2.8-2.8z" fill="url(#paint7_linear)"/><path fill-rule="evenodd" clip-rule="evenodd" d="M415.5 434.1c3.2 1.6 6.6 2.4 10.2 2.3 3.5 0 7-.7 10-2.3l96.3-55.5.5-.3-43-24.9c-7.7-4.4-12.1-11.3-12.1-18.9 0-7.5 4.4-14.4 12.2-18.9l26.1-15.1-250.4-144.6c-6.4-3-13.8-3-20.2 0l-27.4 15.9c-13.5 7-29.5 7-43 0l-44.1-25.6c-6.4-3-13.8-3-20.2 0L14 201.8l-.5.3 43 24.8c7.7 4.5 12.2 11.4 12.2 19 0 7.5-4.5 14.4-12.2 18.9l-36.4 21 85.4 49.2c6.4 3 13.8 3 20.2 0l37.6-21.7a46 46 0 0 1 42.9 0l18.3 10.6c7.7 4.5 12.2 11.3 12.2 18.9 0 7.5-4.5 14.4-12.2 18.9l-36.4 21 82.5 47.6c6.4 3 13.8 3 20.2 0l37.5-21.7a46 46 0 0 1 43 0l44.1 25.5zm-43.8-26a44.2 44.2 0 0 0-21.8-5.5c-7.6 0-15.1 1.8-21.8 5.5l-37.6 21.7a23.2 23.2 0 0 1-19.5 0l-81.4-47 35.3-20.4c8-4.6 12.6-11.7 12.6-19.5 0-7.9-4.6-15-12.6-19.6l-18.3-10.5a46.8 46.8 0 0 0-43.5 0l-37.6 21.6a23.2 23.2 0 0 1-19.5 0l-84.4-48.7 35.3-20.4c8-4.6 12.5-11.7 12.5-19.5 0-7.8-4.5-15-12.5-19.5l-42-24.2 95.8-55.3a23 23 0 0 1 19.5 0l44.2 25.5c13.7 7.2 30 7.2 43.6 0l27.4-15.8a23.1 23.1 0 0 1 19.5 0l249.5 144-25.2 14.5c-8 4.6-12.5 11.7-12.5 19.5 0 7.8 4.5 15 12.5 19.5l42 24.3-95.8 55.2a23 23 0 0 1-19.5 0L371.7 408z" fill="#83E8FE"/><path fill-rule="evenodd" clip-rule="evenodd" d="M418.6 422.3c1.8 1 3.7 1.5 5.7 1.5a9 9 0 0 0 4.3-1l76-43.9c1.1-.5 1.8-1.6 1.9-2.7 0-1.3-1-2.5-2.6-3.5L472 354c-3-1.7-7.6-1.9-10.2-.4l-76 43.9c-1 .5-1.7 1.5-1.8 2.7 0 1.3 1 2.5 2.6 3.5l32.1 18.5zm43.5-68c1.3-.6 2.7-1 4-.9 2 0 3.8.4 5.4 1.3l32.1 18.6c1.4.8 2.2 1.9 2.2 2.9 0 .9-.6 1.7-1.5 2.1l-76 43.9c-2.4 1.4-6.6 1.2-9.3-.4l-32.2-18.6c-1.4-.8-2.2-1.9-2.2-2.9.1-.9.7-1.7 1.5-2.1l76-43.9zM74.4 224.4a11.6 11.6 0 0 0 10 .4l76-44c1.1-.4 1.8-1.5 1.9-2.6 0-1.3-1-2.6-2.6-3.5l-32-18.6c-3-1.7-7.6-1.9-10.1-.4l-76 43.9c-1.1.5-1.8 1.6-1.9 2.7 0 1.3 1 2.5 2.6 3.5l32 18.6zm43.5-68c1.2-.7 2.6-1 4-1 2 0 3.8.4 5.4 1.3l32.1 18.6c1.4.8 2.2 1.9 2.2 2.9 0 .9-.6 1.7-1.5 2l-76 44c-2.4 1.3-6.6 1.2-9.3-.4l-32.2-18.6c-1.4-.8-2.2-1.9-2.2-2.9 0-.9.6-1.7 1.5-2.1l76-43.9zM248.4 172.5l11 6.3 10.9-6.3-11-6.3-10.9 6.3zm11 5.5l-9.6-5.5 9.5-5.5 9.6 5.5-9.6 5.5zM275.7 188.3l11 6.3 10.8-6.3-10.9-6.3-11 6.3zm11 5.5l-9.6-5.5 9.5-5.6 9.6 5.6-9.6 5.5zM303 204l10.9 6.3 10.9-6.3-11-6.3L303 204zm10.9 5.5l-9.6-5.5 9.6-5.5 9.5 5.5-9.5 5.5zM330.2 219.7l11 6.4 10.9-6.4-11-6.3-10.9 6.3zm11 5.6l-9.6-5.6 9.5-5.5 9.6 5.5-9.6 5.6zM357.5 235.5l10.9 6.3 11-6.3-11-6.3-11 6.3zm10.9 5.5l-9.6-5.5 9.6-5.5 9.6 5.5-9.6 5.5zM384.7 251.2l11 6.3 10.9-6.3-11-6.3-10.9 6.3zm11 5.5l-9.6-5.5 9.6-5.5 9.5 5.5-9.5 5.5zM412 267l11 6.3 10.8-6.3-10.9-6.3L412 267zm11 5.5l-9.6-5.5 9.5-5.6 9.6 5.6-9.6 5.5zM439.3 282.7l10.9 6.3 11-6.3-11-6.3-11 6.3zm10.9 5.5l-9.6-5.5 9.6-5.5 9.5 5.5-9.5 5.5zM466.6 298.4l10.9 6.3 11-6.3-11-6.3-11 6.3zm10.9 5.6l-9.6-5.6 9.6-5.5 9.5 5.5-9.5 5.6zM277.3 328c1 .5 2 .8 3.2.8 1.1 0 2.2-.3 3.2-.8l74-42.8a6.4 6.4 0 0 0 0-11.1l-74-42.7a6.5 6.5 0 0 0-6.4 0l-74 42.7a6.4 6.4 0 0 0 0 11.1l74 42.7zm6-.6c-1.7 1-4 1-5.7 0l-74-42.8a5.8 5.8 0 0 1 0-10l74-42.6c1.8-1 4-1 5.8 0l74 42.7a5.7 5.7 0 0 1 0 10l-74 42.7z" fill="#83E8FE"/><path fill-rule="evenodd" clip-rule="evenodd" d="M98.8 81a20.5 20.5 0 1 0 0-41 20.5 20.5 0 0 0 0 41z" fill="url(#paint8_linear)"/><path fill-rule="evenodd" clip-rule="evenodd" d="M52 155.2l68-39.3 28.1 16.2-68 39.2-28-16.1z" fill="white"/><path fill-rule="evenodd" clip-rule="evenodd" d="M148.1 132v47.5l-68 39.3v-47.5l68-39.2z" fill="url(#paint9_linear)"/><path fill-rule="evenodd" clip-rule="evenodd" d="M52 155.2l28 16.1v47.5l-28-16.1v-47.5z" fill="url(#paint10_linear)"/><path fill-rule="evenodd" clip-rule="evenodd" d="M66 155.4l15.4 8.8 50.5-29.1V8.9L116.5 0 66 29.2v126.2z" fill="url(#paint11_linear)"/><path fill-rule="evenodd" clip-rule="evenodd" d="M439.6 267.5a20.5 20.5 0 1 0 0-41 20.5 20.5 0 0 0 0 41z" fill="url(#paint12_linear)"/><path fill-rule="evenodd" clip-rule="evenodd" d="M396.3 353.2l68-39.3 28 16.2-68 39.2-28-16.1z" fill="white"/><path fill-rule="evenodd" clip-rule="evenodd" d="M492.3 330v47.6l-68 39.2v-47.5l68-39.2z" fill="url(#paint13_linear)"/><path fill-rule="evenodd" clip-rule="evenodd" d="M396.3 353.2l28 16.1v47.5l-28-16.1v-47.5z" fill="url(#paint14_linear)"/><path fill-rule="evenodd" clip-rule="evenodd" d="M409.6 353.3l15.4 8.9 50.5-29.2V206.8l-15.4-8.9-50.5 29.2v126.2z" fill="url(#paint15_linear)"/><path fill-rule="evenodd" clip-rule="evenodd" d="M247.5 231.5L206.8 255c-3 1.7-8.1 1.5-11.6-.5l-18.7-10.7c-3.4-2-3.8-5-.8-6.7l40.7-23.4c3-1.8 8.1-1.5 11.6.4l18.7 10.7c3.4 2 3.8 5 .8 6.7z" fill="url(#paint16_linear)"/><path fill-rule="evenodd" clip-rule="evenodd" d="M249.4 236.4v-7.2c-.2 1-1 1.9-2 2.3L206.9 255c-1.7.9-3.5 1.2-5.4 1.1v8.4c1.9 0 3.8-.3 5.4-1.2l40.7-23.4c1.6-1 2.2-2.2 2-3.5z" fill="url(#paint17_linear)"/><g style="mix-blend-mode:color-dodge"><path fill-rule="evenodd" clip-rule="evenodd" d="M195.2 254.5l-18.7-10.7a5.2 5.2 0 0 1-2.7-3.2v7.2c-.3 1.5.6 3.1 2.7 4.4l18.7 10.7c2 1 4 1.6 6.3 1.6V256c-2.2 0-4.3-.5-6.3-1.6z" fill="url(#paint18_linear)"/></g><path fill-rule="evenodd" clip-rule="evenodd" d="M195.2 254.5l-18.7-10.7a5.2 5.2 0 0 1-2.7-3.2v7.2c-.3 1.5.6 3.1 2.7 4.4l18.7 10.7c2 1 4 1.6 6.3 1.6V256c-2.2 0-4.3-.5-6.3-1.6z" fill="url(#paint19_linear)"/><path fill-rule="evenodd" clip-rule="evenodd" d="M280.5 302.8l-77.1-44.5v20l77 44.5 77.2-44.5v-20l-77.1 44.5z" fill="url(#paint20_linear)"/><path fill-rule="evenodd" clip-rule="evenodd" d="M280.5 287l-82-47.3 82-47.3 82 47.3-82 47.3z" fill="white"/><path fill-rule="evenodd" clip-rule="evenodd" d="M280.5 213.5l50.6 29.2 5.2-3-55.8-32.2-55.8 32.2 5.2 3 50.6-29.2z" fill="url(#paint21_linear)"/><path fill-rule="evenodd" clip-rule="evenodd" d="M280.5 213.5l-50.6 29.2 50.6 29.2 50.6-29.2-50.6-29.2z" fill="url(#paint22_linear)"/><path fill-rule="evenodd" clip-rule="evenodd" d="M280.5 223.1l-37.8 21.8 37.8 21.8 37.8-21.8-37.8-21.8z" fill="url(#paint23_linear)"/><path fill-rule="evenodd" clip-rule="evenodd" d="M280.5 218l-37.8 21.7 37.8 21.8 37.8-21.8-37.8-21.8z" fill="white"/><path fill-rule="evenodd" clip-rule="evenodd" d="M280.5 287l-82-47.3v15.8l82 47.3 82-47.3v-15.8l-82 47.3z" fill="url(#paint24_linear)"/><path fill-rule="evenodd" clip-rule="evenodd" d="M267 212.8c3.7 4.8 8.6 7.5 13.9 7.5a18 18 0 0 0 14-7.5c4.9-6.3 4.9-17 0-23.4l-12.2-15.9 15.9-20.4c2.9-3.7 2.6-9.8-.5-13.1l-15.7-16.7L297 108c1.8-2.1 2.7-4.8 2.5-7.6 0-2.5-1.2-5-3-6.7l-13.6-11.4 15.7-13.8a1.4 1.4 0 0 0-1.8-2l-16.1 14-15.7-12.8a1.4 1.4 0 0 0-1.7 2.1l15.3 12.6-13.4 11.9a9.5 9.5 0 0 0-3 6.7 10 10 0 0 0 2.5 7.4l14 15-15 16c-3.2 3.3-3.4 9.4-.6 13.1l16.2 21-12.4 15.9c-4.9 6.2-4.9 16.9 0 23.2l.1.2zm2-21.7l11.9-15.3 11.8 15.3a17.5 17.5 0 0 1 0 20 15 15 0 0 1-11.8 6.5 15 15 0 0 1-11.8-6.5l-.1-.2a17.2 17.2 0 0 1 0-19.8zm11.6-65.7l-15 16c-2.2 2.2-2.4 6.8-.4 9.4l15.8 20.5 15.5-19.9c2-2.6 1.8-7.2-.3-9.5l-15.6-16.5zm-13.7-29l13.7-12.2 14 11.6c1.3 1.3 2 3 2 4.8.2 2-.4 4-1.7 5.5l-14.3 15.2-14-14.8a7.4 7.4 0 0 1-1.7-5.3c0-1.8.7-3.6 2-4.8z" fill="url(#paint25_linear)"/><path fill-rule="evenodd" clip-rule="evenodd" d="M268.8 101.3a5 5 0 1 1-10 0 5 5 0 0 1 10 0z" fill="url(#paint26_linear)"/><path fill-rule="evenodd" clip-rule="evenodd" d="M302.8 101.3a5 5 0 1 1-10 0 5 5 0 0 1 10 0z" fill="url(#paint27_linear)"/><path fill-rule="evenodd" clip-rule="evenodd" d="M262.5 151.7a5 5 0 1 0 0-10 5 5 0 0 0 0 10z" fill="url(#paint28_linear)"/><path fill-rule="evenodd" clip-rule="evenodd" d="M304 146.7a5 5 0 1 1-10 0 5 5 0 0 1 10 0z" fill="url(#paint29_linear)"/><path fill-rule="evenodd" clip-rule="evenodd" d="M285.8 172.8a5 5 0 1 1-10 0 5 5 0 0 1 10 0z" fill="url(#paint30_linear)"/><path fill-rule="evenodd" clip-rule="evenodd" d="M285.3 124a5 5 0 1 1-10 0 5 5 0 0 1 10 0z" fill="url(#paint31_linear)"/><path fill-rule="evenodd" clip-rule="evenodd" d="M285.8 82.2a5 5 0 1 1-10 0 5 5 0 0 1 10 0z" fill="url(#paint32_linear)"/><path fill-rule="evenodd" clip-rule="evenodd" d="M302.8 67.5a5 5 0 1 1-10 0 5 5 0 0 1 10 0z" fill="url(#paint33_linear)"/><path fill-rule="evenodd" clip-rule="evenodd" d="M262.5 74.9a5 5 0 1 0 0-10 5 5 0 0 0 0 10z" fill="url(#paint34_linear)"/><path fill-rule="evenodd" clip-rule="evenodd" d="M255 241l25.7 14.8 25.6-14.8V43.4l-25.6-14.8L255 43.4V241z" fill="url(#paint35_linear)"/><path fill-rule="evenodd" clip-rule="evenodd" d="M325.9 317.3h-.2l-20-11.8a.4.4 0 0 1-.1-.3v-32.1l-11.7-6.8a.3.3 0 0 1 0-.4.3.3 0 0 1 .4-.1l11.8 6.8c.1 0 .2.1.2.3V305l19.7 11.7c.2.1.3.3.2.5 0 0-.2.2-.3.1z" fill="#4981FB"/><path fill-rule="evenodd" clip-rule="evenodd" d="M333.3 313h-.1l-20-11.9a.3.3 0 0 1-.2-.3v-32.2l-11.4-6.6a.3.3 0 0 1-.2-.5l.2-.1h.3l11.6 6.8c.2 0 .2.1.2.3v32.1l19.8 11.7.2.2v.3l-.4.1z" fill="#4981FB"/><path fill-rule="evenodd" clip-rule="evenodd" d="M340.8 308.5h-.1l-20-11.8a.3.3 0 0 1-.2-.3v-32.2l-11.4-6.6a.4.4 0 0 1-.1-.5.3.3 0 0 1 .5-.1l11.6 6.7.2.3v32.2l19.8 11.7c.1 0 .2.3 0 .4 0 .2-.1.2-.3.2z" fill="#4981FB"/><path fill-rule="evenodd" clip-rule="evenodd" d="M348.4 304h-.2l-20-11.8a.4.4 0 0 1-.1-.3v-32.1l-11.4-6.6a.3.3 0 0 1 .3-.6l11.6 6.7.2.3v32.2l19.7 11.6a.3.3 0 0 1-.1.7zM243.7 237.3h-.2l-11.8-7a.4.4 0 0 1-.1-.4c0-.2.3-.3.4-.2l11.8 7 .2.1v.3l-.3.2zM251.3 232.9h-.2l-11.9-7a.3.3 0 0 1-.1-.5c0-.2.3-.2.4-.1l12 7a.3.3 0 0 1 0 .4l-.2.2zM258.9 228.5h-.2l-12-7a.3.3 0 0 1 0-.5.3.3 0 0 1 .4-.1l12 7s.1.3 0 .4l-.2.2zM266.5 224.1h-.2l-12-7.1a.3.3 0 0 1 .3-.6l12 7a.3.3 0 0 1 .1.5l-.2.2z" fill="#4981FB"/><path fill-rule="evenodd" clip-rule="evenodd" d="M384.3 310l-40.7 23.5c-3 1.7-8.2 1.5-11.6-.5l-18.7-10.6c-3.5-2-3.8-5-.9-6.8l40.7-23.4c3-1.7 8.2-1.5 11.6.5l18.7 10.6c3.5 2 3.8 5 .9 6.8z" fill="white"/><path fill-rule="evenodd" clip-rule="evenodd" d="M386.2 315v-7.3c-.3 1-1 2-2 2.4l-40.6 23.4c-1.7.9-3.5 1.3-5.4 1.2v8.3c1.9.1 3.7-.3 5.4-1.1l40.6-23.5c1.6-1 2.3-2.2 2-3.4z" fill="#BDBDBD"/><g style="mix-blend-mode:color-dodge"><path fill-rule="evenodd" clip-rule="evenodd" d="M332 333l-18.7-10.6a5.2 5.2 0 0 1-2.8-3.3v7.2c-.3 1.5.7 3.2 2.8 4.4l18.7 10.7c2 1 4 1.6 6.2 1.6v-8.3c-2.2 0-4.3-.6-6.2-1.7z" fill="url(#paint36_linear)"/></g><path fill-rule="evenodd" clip-rule="evenodd" d="M332 333l-18.7-10.6a5.2 5.2 0 0 1-2.8-3.3v7.2c-.3 1.5.7 3.2 2.8 4.4l18.7 10.7c2 1 4 1.6 6.2 1.6v-8.3c-2.2 0-4.3-.6-6.2-1.7z" fill="url(#paint37_linear)"/><path fill-rule="evenodd" clip-rule="evenodd" d="M302.6 350.2l-28.5 16.5L216 333l28.5-16.4 58.2 33.6z" fill="white"/><path fill-rule="evenodd" clip-rule="evenodd" d="M302.6 350.2V402l-28.5 16.4v-51.7l28.5-16.5z" fill="url(#paint38_linear)"/><path fill-rule="evenodd" clip-rule="evenodd" d="M215.9 333v51.8l58.2 33.6v-51.7L216 333z" fill="url(#paint39_linear)"/><path fill-rule="evenodd" clip-rule="evenodd" d="M239.7 339.6L263 353l17.8-9.7-23.8-13.6-17.3 10z" fill="url(#paint40_linear)"/><path fill-rule="evenodd" clip-rule="evenodd" d="M239.7 339.6l-3.7-23.3 25.9 14.9 1 21.8-23.2-13.4z" fill="url(#paint41_linear)"/><path fill-rule="evenodd" clip-rule="evenodd" d="M138.4 254.1l-28.5 16.5L51.6 237l28.6-16.5 58.2 33.6z" fill="white"/><path fill-rule="evenodd" clip-rule="evenodd" d="M51.6 237v51.7l58.3 33.6v-51.7L51.6 237z" fill="url(#paint42_linear)"/><path fill-rule="evenodd" clip-rule="evenodd" d="M76.1 243L99 256.3l17.5-9.5-23.3-13.4-17 9.8z" fill="url(#paint43_linear)"/><path fill-rule="evenodd" clip-rule="evenodd" d="M76.1 243l-3.6-22.8 25.3 14.6 1.1 21.4-22.8-13.1z" fill="url(#paint44_linear)"/><path fill-rule="evenodd" clip-rule="evenodd" d="M387.7 280c2.9 1.3 1.9-.4 6.6 8.3 2.8 5.2 4.3 8.7 4.3 8.7l8.3-7.5.2 7.4s-6.5 6.6-9 7.6-11.4-13.6-11.4-13.6l1-11z" fill="#FDFCFF"/><path fill-rule="evenodd" clip-rule="evenodd" d="M408.4 296.3l-9.9 6.7V290l10-6.8v13.2z" fill="url(#paint45_linear)"/><path fill-rule="evenodd" clip-rule="evenodd" d="M396 301c2.4-.4 5.4-5.8 5.7-6.8.2-1 .5-3.9-1.8-1.4-3.9 4.1-.5-.5-1.4-.6-1 0-2.3 3.7-3 4.4-.7.8.5 4.4.5 4.4z" fill="#E9AE74"/><path fill-rule="evenodd" clip-rule="evenodd" d="M376.5 376.8c-.1.5-1.4 1.2-1.4 2.5s1.3 2 1.9 2.5c.6.5 1.4 2.5 2.4 3.1 1 .7 2.6 1.7 3.9 1 1.3-.7-.5-3.2-.9-4-.4-.8-6-5.1-6-5.1z" fill="url(#paint46_linear)"/><path fill-rule="evenodd" clip-rule="evenodd" d="M375.6 357.7c0 4.6 1.4 14.8 1.2 17-.2 2.3-1.1 3.5 0 4.7 1.2 1.3 4.2 4.5 5.4 3.8 1.2-.6-1-3-1.8-4.8-1.3-3.1 2.6-21.4 2.2-22.2-.4-1-7 1.5-7 1.5z" fill="#E9AE74"/><path fill-rule="evenodd" clip-rule="evenodd" d="M383.7 373.4c0 .4-1.3 1.2-1.3 2.5s1.2 2 1.8 2.5c.7.4 1.5 2.5 2.5 3.1 1 .6 2.6 1.6 3.8 1 1.3-.7-.4-3.2-.8-4-.4-.8-6-5.1-6-5.1z" fill="url(#paint47_linear)"/><path fill-rule="evenodd" clip-rule="evenodd" d="M382.8 354.3c0 4.6 1.5 14.8 1.3 17-.2 2.2-1.1 3.5 0 4.7 1.1 1.2 4.1 4.5 5.4 3.8 1.2-.7-1-3-1.8-4.8-1.3-3.1 2.5-21.4 2.1-22.3-.3-.9-7 1.6-7 1.6z" fill="#E9AE74"/><path fill-rule="evenodd" clip-rule="evenodd" d="M384.2 278.7c1.7.4 5.9.3 7 4a66 66 0 0 1 2 14c0 3.2 1.2 23.7 1 32.7v29.4s-9.6 3.4-23.8.8c0 0 .5-32.4 0-40-.5-7.4-.3-26.6 0-30.8.3-4.2 2-7 5-8.2 3-1.2 8.8-1.9 8.8-1.9z" fill="#F4F4F4"/><path fill-rule="evenodd" clip-rule="evenodd" d="M385.1 279.8l1.6.7v14.7l-6.3-13 4.7-2.4z" fill="#83E8FE"/><path fill-rule="evenodd" clip-rule="evenodd" d="M395 295.2l-1.8 1-7.8 4.4s-3-15.2-8-20.7l-2 .7a7.7 7.7 0 0 0-4.5 5.4c.3 2.5 3.1 8 5.7 14.1 2.6 6.2 6.2 9.6 8.8 8.7 2.8-1.3 5.5-2.9 8-4.6l5.2-3.4-3.5-5.6z" fill="#FDFCFF"/><path fill-rule="evenodd" clip-rule="evenodd" d="M385 277.1c0 1.3.1 2.5.3 3.8.4 1-1.8 2-3.5 1.8-1.7-.2-3.4-2.2-3.5-3.4.3-2 .8-4.1 1.3-6.1l5.4 4z" fill="#DA9A5B"/><path fill-rule="evenodd" clip-rule="evenodd" d="M389 264.4c.2 3.6.2 12.8-2.7 13.5-3 .7-6.9-1.2-8.7-5.9-1.9-4.6 3.9-9.6 3.9-9.6l7.5 2z" fill="#E9AE74"/><path fill-rule="evenodd" clip-rule="evenodd" d="M381 267.5s7.5 1.5 9.6-1c0 0-.8-9.8-8.2-10.3-7.5-.5-9.8 8-10 11.8-.2 3.7-.3 14 1.4 16.4 1.1 1.4 6.8 1.5 6.8 1.5s-1-10.3.4-18.4z" fill="#4A0C0F"/><path fill-rule="evenodd" clip-rule="evenodd" d="M408.4 287.1c-1.2.2-1.2 3-1.2 4.7-.1.9.4 1.7 1.2 1.9v1.4s1.4-.6 1.2-3.5c-.2-2.8.5-4.7-1.2-4.5z" fill="#E9AE74"/><path fill-rule="evenodd" clip-rule="evenodd" d="M381.5 261.1l-4.1-6.6s5.8-4.7 10.7-1l-1.4 6.6c-1.8 0-3.6.3-5.2 1zM126.4 357.8l-31.6 18.3a5 5 0 0 0-2 6.5l10.5 22.7a5 5 0 0 0 3.7 2.9l46.5 7.1a5 5 0 0 0 3.2-.6l31.7-18.3a5 5 0 0 0 2-6.4L180 367.2a5 5 0 0 0-3.8-2.8l-46.4-7.2a5 5 0 0 0-3.3.6z" fill="white"/><path fill-rule="evenodd" clip-rule="evenodd" d="M156.4 389.8c-1.4.8-3 1-4.7.8l-44.5-6.9a7 7 0 0 1-5.4-4l-.5-1.1v2.8c0 .8.2 1.6.5 2.3l7.5 16.1c.8 1.8 2.4 3 4.3 3.3l36 5.6c1.3.2 2.6 0 3.8-.7l23.7-13.7c1.9-1.1 3-3.2 2.8-5.4v-12.7l-23.5 13.6z" fill="url(#paint48_linear)"/><path fill-rule="evenodd" clip-rule="evenodd" d="M125.4 323.4l-31.6 18.2a5 5 0 0 0-2 6.5l10.5 22.7a5 5 0 0 0 3.8 2.9l46.4 7.2a5 5 0 0 0 3.2-.6l31.7-18.3a5 5 0 0 0 2-6.5L179 332.8a5 5 0 0 0-3.8-2.9l-46.4-7.2a5 5 0 0 0-3.3.7z" fill="white"/><path fill-rule="evenodd" clip-rule="evenodd" d="M189.3 356.7c0 2.6-1.3 5-3.5 6.2l-29.4 17a7 7 0 0 1-4.7.9l-44.5-7a7.1 7.1 0 0 1-5.4-4l-9.3-20c-.4-.7-.6-1.6-.7-2.4v9.4c0 1 .3 2 .7 3l9.3 19.9a7 7 0 0 0 5.3 4l44.6 7c1.6.2 3.2-.1 4.6-1l29.4-17c2.4-1.3 3.8-3.9 3.6-6.6v-9.4z" fill="url(#paint49_linear)"/><path fill-rule="evenodd" clip-rule="evenodd" d="M190 390.4c0 2.6-1.3 5-3.5 6.2l-29.4 17a7 7 0 0 1-4.7.9l-44.5-7a7.1 7.1 0 0 1-5.4-4l-9.3-20c-.4-.7-.6-1.6-.6-2.4v9.4c0 1 .2 2 .6 3l9.3 19.9a7 7 0 0 0 5.3 4l44.6 7a7 7 0 0 0 4.7-1l29.3-17c2.4-1.3 3.8-3.9 3.6-6.6v-9.4z" fill="url(#paint50_linear)"/><path fill-rule="evenodd" clip-rule="evenodd" d="M384 467.7c0 2.6-1.3 3.5-3.6 4.7l-29.6 17c-1.5.8-3.1 1.1-4.7.9l-45-7a7.2 7.2 0 0 1-5.5-4l-9.4-20c-.4-.7-.6-1.5-.6-2.4v9.4c0 1 .2 2 .6 3l9.4 19.9c1 2.2 3 3.7 5.4 4l45 7c1.6.2 3.3-.1 4.7-1l29.7-16.9c2.4-1.4 3.8-4 3.6-6.7v-7.9z" fill="url(#paint51_linear)"/><path fill-rule="evenodd" clip-rule="evenodd" d="M128.4 328.8l-25.6 14.8a4 4 0 0 0-1.7 5.2l8.6 18.4a4 4 0 0 0 3 2.3l37.4 5.8c1 .1 1.9 0 2.7-.5l25.6-14.8a4 4 0 0 0 1.7-5.2l-8.6-18.3a4 4 0 0 0-3-2.4l-37.4-5.8a4 4 0 0 0-2.7.5z" fill="url(#paint52_linear)"/><path fill-rule="evenodd" clip-rule="evenodd" d="M104.1 346.3l23.8-13.7c1-.6 2.4-.9 3.7-.7l36 5.6c1.9.3 3.5 1.5 4.3 3.3l7.5 16 .2.8c.5-1.4.4-2.9-.2-4.2l-7.5-16.1c-.8-1.8-2.4-3-4.3-3.3l-36-5.6c-1.3-.2-2.6 0-3.7.7L104 342.8a5.7 5.7 0 0 0-2.6 6.7 5.8 5.8 0 0 1 2.6-3.2z" fill="url(#paint53_linear)"/><path fill-rule="evenodd" clip-rule="evenodd" d="M319.4 433.8l-31.7 18.3a5 5 0 0 0-2 6.5l10.5 22.7a5 5 0 0 0 3.8 2.8l46.4 7.2c1.1.2 2.3 0 3.3-.6l31.7-18.3a5 5 0 0 0 2-6.5l-10.5-22.7a5 5 0 0 0-3.8-2.8l-46.4-7.2a5 5 0 0 0-3.3.6z" fill="white"/><path fill-rule="evenodd" clip-rule="evenodd" d="M349.3 465.7a7 7 0 0 1-4.6 1l-44.6-7a7.1 7.1 0 0 1-5.4-4l-.5-1.1v2.8c0 .8.2 1.6.5 2.3l7.5 16.1c.8 1.8 2.5 3 4.4 3.3l36 5.5c1.2.2 2.5 0 3.7-.7l23.7-13.7c1.9-1 3-3.1 2.9-5.3v-12.7l-23.6 13.5z" fill="url(#paint54_linear)"/><path fill-rule="evenodd" clip-rule="evenodd" d="M318.4 399.3l-31.7 18.3a5 5 0 0 0-2 6.5l10.5 22.7a5 5 0 0 0 3.8 2.9l46.4 7.1a5 5 0 0 0 3.3-.6l31.7-18.3a5 5 0 0 0 2-6.4L372 408.7a5 5 0 0 0-3.8-2.8l-46.4-7.2a5 5 0 0 0-3.3.6z" fill="white"/><path fill-rule="evenodd" clip-rule="evenodd" d="M382.2 432.7c0 2.5-1.3 5-3.5 6.2l-29.4 17a7 7 0 0 1-4.6.8l-44.6-6.9a7.1 7.1 0 0 1-5.4-4l-9.2-20c-.4-.8-.6-1.6-.7-2.5v9.4c0 1 .3 2 .7 3l9.3 20c1 2.1 3 3.6 5.3 4l44.6 7a7 7 0 0 0 4.6-1l29.4-17c2.4-1.3 3.8-3.9 3.6-6.6v-9.4z" fill="url(#paint55_linear)"/><path fill-rule="evenodd" clip-rule="evenodd" d="M321.3 404.8l-25.6 14.8a4 4 0 0 0-1.6 5.2l8.5 18.3a4 4 0 0 0 3 2.4l37.4 5.8c1 0 1.9 0 2.7-.5l25.6-14.8a4 4 0 0 0 1.6-5.2l-8.5-18.4a4 4 0 0 0-3-2.3l-37.4-5.8c-1-.1-1.9 0-2.7.5z" fill="url(#paint56_linear)"/><path fill-rule="evenodd" clip-rule="evenodd" d="M297 422.3l23.8-13.7c1.1-.6 2.4-.9 3.7-.7l36 5.6c2 .3 3.5 1.5 4.4 3.2l7.4 16.1.3.7c.4-1.3.3-2.8-.3-4.2l-7.4-16c-.9-1.8-2.5-3-4.4-3.3l-36-5.6c-1.3-.2-2.6 0-3.7.7L297 418.8a5.7 5.7 0 0 0-2.6 6.7 5.8 5.8 0 0 1 2.6-3.2z" fill="url(#paint57_linear)"/><path fill-rule="evenodd" clip-rule="evenodd" d="M138.4 254.1V306l-28.5 16.4v-51.7l28.5-16.5z" fill="url(#paint58_linear)"/><path fill-rule="evenodd" clip-rule="evenodd" d="M120 207.7l1.2 13.6-7.4 9.2c-1.3.8-2.6 1.6-3.9 2.6-1.1 1.1-2 3-1.4 3.2 2.6.7 6.3-3.3 6.3-3.3s10.2-8.1 11-9.7c.4-1.2-.3-15.2-.3-15.2l-5.5-.4z" fill="#E9AE74"/><path fill-rule="evenodd" clip-rule="evenodd" d="M128.4 196.4c.7 1 4.1.7 4.4 4.2.3 3.5-5.9 2-5.9 2l-2.4-4.8 1.4-1.8 2.5.4zM120 198c1 1 1.6 2.5 1.6 4 0 1-1.6 2.7-.2 4 1.4 1.2 6.7-1.8 6.7-1.8L120 198z" fill="black"/><path fill-rule="evenodd" clip-rule="evenodd" d="M121.3 212c.8.8 1.4 1.8 1.6 3 0-2 5-4 6.3-7 .9-2.2 1.3-4.7 1.2-7.2-1.4.3-2.4.5-2.5.3l-2.4-5.8-4.3 4c1.1 2 2.7 4.8.8 5.5-.3.1-.7 2.3-1 2.5.4.7-1.4 3.3.3 4.7z" fill="#DB9D5F"/><path fill-rule="evenodd" clip-rule="evenodd" d="M115.5 195.4c-1.2-.9-2-2.3-2-3.8 0-1.7.2-5.3 3-6.4 3.3-1.3-1 10.2-1 10.2z" fill="black"/><path fill-rule="evenodd" clip-rule="evenodd" d="M114.2 191.7c-.3-3 .3-6.3 4.3-7.3 3.3-1 6.8.8 8 4 .5 1.5.8 3 .7 4.4 0 .5-1.6 2.3-1.6 3.8s-11.4-4.9-11.4-4.9z" fill="black"/><path fill-rule="evenodd" clip-rule="evenodd" d="M125.3 194.3l1 3.1-1 1.1a12.2 12.2 0 0 1-4.3 2.9l.5-1.2 3.8-6z" fill="#DB9D5F"/><path fill-rule="evenodd" clip-rule="evenodd" d="M125.5 194.4c0 1.2-.2 2.4-1 3.4a13 13 0 0 1-3.4 3.6c-.7.2-1.2.5-2.7-1-1.5-1.4-2.5-2-3-3.7-.6-1.8-2.2-5.2-.4-7.1 1.6-1.4 4-1.7 5.9-.6 1.8 1 2 1.6 3 3.7 0 0 .8-1.9 1.2-2 .5-.2 1 0 1 1s-.3 1-.2 1.4c0 .5.2 1 0 1.3-.2.2-.4 0-.4 0z" fill="#E9AE74"/><path fill-rule="evenodd" clip-rule="evenodd" d="M115.7 189s4.2 4.3 8.4 4l.3-5-4.4-1.7-4.3 2.7z" fill="black"/><path fill-rule="evenodd" clip-rule="evenodd" d="M116.5 189s-.9 3.3-2.3 4.6c0 0-1.4-3.9.3-6.4l2 1.8zM120.3 184.1c3.2.2 6 2.2 7.2 5.1.8 2.3 1.1 4.8 1 7.2l-2.2 1-.8-2.4c1.3-1.1 1.7-3 1-4.6a6.7 6.7 0 0 0-4-3.8l-2.2-2.5z" fill="black"/><path fill-rule="evenodd" clip-rule="evenodd" d="M144 295.2s3.8 6.7 1 7c-2.8.2-5.2-3.5-5-8.5l4 1.5z" fill="#609DDC"/><path fill-rule="evenodd" clip-rule="evenodd" d="M143.7 264.4c.2 4.7.2 9.4 0 14.1a98.3 98.3 0 0 0-.7 14.2c.4.7 2.9 7 2 7.3-1 .3-4.2-2.7-4.8-5.6-.6-2.8-1.5-14.6-1.4-18.2.2-3.6 0-13.3 0-13.3l4.9 1.5z" fill="#E9AE74"/><path fill-rule="evenodd" clip-rule="evenodd" d="M121.6 205l-1.4 2c-.4 3 .6 6.2 2.8 8.4 2.6 2.8 4.3 6.4 4.8 10.2 0 1.3-3.2 16.4-2.7 20.6l13.2 7.8v15.6h6.2s2.3-27.6 2.1-31.4c-.2-3.7-2-10-2.9-12.8-1.2-3.8-.7-7.1-1.8-13.2-1-6-3-12.6-7.8-12.7-2-.2-3.9.4-5.4 1.7a8.4 8.4 0 0 1-7 3.8z" fill="white"/><path fill-rule="evenodd" clip-rule="evenodd" d="M132.7 201.6c-2.9 1.3 1.5 18.7 1.5 18.7s-5.5 6.3-6.8 9.6c-1.4 3.4-4 4.1-5.1 5.3-1.1 1.2-3.7 5.4-1 5 2.6-.6 3.3-1.1 5.3-4.3 2-3.3 11.8-11.7 12.6-13.7.8-2 1.5-24.5-6.5-20.6z" fill="#E9AE74"/><path fill-rule="evenodd" clip-rule="evenodd" d="M140.5 212.6l-9.2.8s-1.7-12.2 2-13.2c1.5-.5 7.4 2.2 7.2 12.4zM120.3 216l5.6-.7-5.9-7.6.3 8.4zM118.6 188.3s-3.5 0-4.1 2l-2.5-2.5s3.2-4.7 7.2-2.7l-.6 3.2z" fill="white"/><path fill-rule="evenodd" clip-rule="evenodd" d="M169.8 191.3s1.2.6 5 .4c3.6-.3 6.6.4 5 3.4-1.8 2.9-5.9 2.7-9.1 2.7-3.3 0-7 1.9-8 1.1-1-.7-3-.5-1.7-8.6l8.8 1z" fill="#4A0C0F"/><path fill-rule="evenodd" clip-rule="evenodd" d="M159 184.8s1.1.6 4.8.4c3.8-.3 6.7.5 5 3.5-1.6 2.9-5.7 2.6-9 2.7-3.2 0-7 1.8-8 1-1-.7-3-.4-1.7-8.5l8.8.9z" fill="#4A0C0F"/><path fill-rule="evenodd" clip-rule="evenodd" d="M158.5 136.2c.4 2.7 1 22.3 1.2 25.1.2 3-.8 20-.6 23.7-3.1 2.4-7.2 3-10.8 1.6 0 0 .6-20.6.5-24-.2-3.3-1.2-17.6-1.2-22.9 0-5.3 3.2-6.9 3.2-6.9l7.7 3.4z" fill="#58CADD"/><path fill-rule="evenodd" clip-rule="evenodd" d="M169.8 142.1c.5 2.8 1.1 22.3 1.3 25.2.2 2.9-.8 19.3-.6 23-3.2 2.4-7.3 3-11 1.6l-.7-23.4c-.2-3.3-3.6-17.6-3.6-22.9 0-5.2 3.3-6.8 3.3-6.8l11.3 3.3z" fill="#83E8FE"/><path fill-rule="evenodd" clip-rule="evenodd" d="M164 97.3c1.1.6 5.2 2.2 5.9 10.7.7 8.5 2.3 41.3 2.3 41.3s-14.6 7-28-2.6l2.5-41.8c.4-6.6.7-13 8.5-11.5l8.8 4z" fill="white"/><path fill-rule="evenodd" clip-rule="evenodd" d="M163.5 93c-.1 1.4 0 2.9.5 4.3-2.5.4-5 0-7.2-1.4-2-1.3-1.7-2.1-1.7-2.1l1.6-2.8 6.8 2z" fill="#DA9A5B"/><path fill-rule="evenodd" clip-rule="evenodd" d="M167.3 80.5a10 10 0 0 1 1.7 4.3c.2 2 1.6 2.9 1 3.6-.4.7-1.3.8-1.3 1.2 0 .9 0 3.2-.8 3.7s-5.3 1.7-7.4-1.5c-2-3.3 0-8.9 0-8.9l6.8-2.4z" fill="#E9AE74"/><path fill-rule="evenodd" clip-rule="evenodd" d="M165 90.6c.2-1.4.4-2.9.8-4.2.5-1.6 1.6-3 2-4.3.4-1.2 0-2.9-2.8-4.3-4.1-1.8-9-.4-11.3 3.4-3 4.6-.7 7.4.9 9.4s1.7 3.2 3.4 3.3c1.7.2 4.4-.8 4.2-1.7 0-1-1.4-3.3-.4-4.5 1.1-1.2 2 .4 2.1 1.3.2 1 .3 1.6 1.1 1.6z" fill="#4A0C0F"/><path fill-rule="evenodd" clip-rule="evenodd" d="M170.2 140.8c-.4 2.2 3.7 12.5 4.1 5.8.3-3.9.3-7.8 0-11.7l-4 5.9z" fill="#E9AE74"/><path fill-rule="evenodd" clip-rule="evenodd" d="M164.9 99.8c-2 .9-6 3-4 15.1 2 12 6.4 28.6 6.4 28.6l8.8-2.1s-2.4-45.5-11.2-41.6z" fill="white"/><path fill-rule="evenodd" clip-rule="evenodd" d="M112.8 62.6h-11.7v11.7h-3.8V62.6H85.7V59h11.6V47.3h3.8v11.6h11.7v3.7zM453.5 248.7H442v11.7H438v-11.7h-11.6V245H438v-11.6h3.9V245h11.6v3.7z" fill="white" stroke="white" stroke-width="2"/><defs><linearGradient id="paint0_linear" x1="177.6" y1="174" x2="311.2" y2="106.1" gradientUnits="userSpaceOnUse"><stop stop-color="#4981FB" stop-opacity="0"/><stop offset=".1" stop-color="#5989FB" stop-opacity=".1"/><stop offset=".4" stop-color="#799AFB" stop-opacity=".5"/><stop offset=".6" stop-color="#93A7FC" stop-opacity=".7"/><stop offset=".8" stop-color="#A5B0FC" stop-opacity=".9"/><stop offset=".9" stop-color="#B1B6FC"/><stop offset="1" stop-color="#B5B8FC"/></linearGradient><linearGradient id="paint1_linear" x1="208.1" y1="195.1" x2="324.6" y2="102.1" gradientUnits="userSpaceOnUse"><stop stop-color="#4981FB" stop-opacity="0"/><stop offset=".1" stop-color="#5989FB" stop-opacity=".1"/><stop offset=".4" stop-color="#799AFB" stop-opacity=".5"/><stop offset=".6" stop-color="#93A7FC" stop-opacity=".7"/><stop offset=".8" stop-color="#A5B0FC" stop-opacity=".9"/><stop offset=".9" stop-color="#B1B6FC"/><stop offset="1" stop-color="#B5B8FC"/></linearGradient><linearGradient id="paint2_linear" x1="225.1" y1="179.5" x2="299.6" y2="66.1" gradientUnits="userSpaceOnUse"><stop stop-color="#4981FB" stop-opacity="0"/><stop offset=".1" stop-color="#5989FB" stop-opacity=".1"/><stop offset=".4" stop-color="#799AFB" stop-opacity=".5"/><stop offset=".6" stop-color="#93A7FC" stop-opacity=".7"/><stop offset=".8" stop-color="#A5B0FC" stop-opacity=".9"/><stop offset=".9" stop-color="#B1B6FC"/><stop offset="1" stop-color="#B5B8FC"/></linearGradient><linearGradient id="paint3_linear" x1="219.6" y1="175.5" x2="299" y2="62.8" gradientUnits="userSpaceOnUse"><stop stop-color="#4981FB" stop-opacity="0"/><stop offset=".1" stop-color="#5989FB" stop-opacity=".1"/><stop offset=".4" stop-color="#799AFB" stop-opacity=".5"/><stop offset=".6" stop-color="#93A7FC" stop-opacity=".7"/><stop offset=".8" stop-color="#A5B0FC" stop-opacity=".9"/><stop offset=".9" stop-color="#B1B6FC"/><stop offset="1" stop-color="#B5B8FC"/></linearGradient><linearGradient id="paint4_linear" x1="128.2" y1="-21.1" x2="124.9" y2="134.5" gradientUnits="userSpaceOnUse"><stop stop-color="#93DBFF"/><stop offset=".8" stop-color="white"/></linearGradient><linearGradient id="paint5_linear" x1="-149.4" y1="17.4" x2="-154.8" y2="533.9" gradientUnits="userSpaceOnUse"><stop stop-color="#93DBFF"/><stop offset=".8" stop-color="white"/></linearGradient><linearGradient id="paint6_linear" x1="538.9" y1="419.1" x2="538.9" y2="328.1" gradientUnits="userSpaceOnUse"><stop stop-color="#E1EAFD" stop-opacity="0"/><stop offset=".1" stop-color="#DDE6FC" stop-opacity=".1"/><stop offset=".3" stop-color="#D3DDFB" stop-opacity=".4"/><stop offset=".6" stop-color="#CBD6FA" stop-opacity=".7"/><stop offset=".8" stop-color="#C6D1F9" stop-opacity=".8"/><stop offset=".9" stop-color="#C2CEF8"/><stop offset="1" stop-color="#C1CDF8"/></linearGradient><linearGradient id="paint7_linear" x1="-537.7" y1="273.8" x2="-470.4" y2="791.2" gradientUnits="userSpaceOnUse"><stop stop-color="#FCFDFF"/><stop offset=".2" stop-color="#EFF5FE"/><stop offset=".7" stop-color="#D5E5FD"/><stop offset="1" stop-color="#CBDFFD"/></linearGradient><linearGradient id="paint8_linear" x1="78.3" y1="80.9" x2="119.2" y2="80.9" gradientUnits="userSpaceOnUse"><stop stop-color="#D02949"/><stop offset="0" stop-color="#E15D3F"/><stop offset=".6" stop-color="#EE8338"/><stop offset=".8" stop-color="#F69A34"/><stop offset="1" stop-color="#F9A332"/></linearGradient><linearGradient id="paint9_linear" x1="146.7" y1="174.1" x2="84.3" y2="174.4" gradientUnits="userSpaceOnUse"><stop stop-color="white"/><stop offset="1" stop-color="#E3E1E1"/></linearGradient><linearGradient id="paint10_linear" x1="79.5" y1="186" x2="53.8" y2="186.1" gradientUnits="userSpaceOnUse"><stop stop-color="#D2D0D0"/><stop offset="1" stop-color="white"/></linearGradient><linearGradient id="paint11_linear" x1="127.7" y1="201.7" x2="127.7" y2="58.3" gradientUnits="userSpaceOnUse"><stop stop-color="#83E8FE"/><stop offset="1" stop-color="white" stop-opacity="0"/></linearGradient><linearGradient id="paint12_linear" x1="419.1" y1="267.4" x2="460" y2="267.4" gradientUnits="userSpaceOnUse"><stop stop-color="#D02949"/><stop offset="0" stop-color="#E15D3F"/><stop offset=".6" stop-color="#EE8338"/><stop offset=".8" stop-color="#F69A34"/><stop offset="1" stop-color="#F9A332"/></linearGradient><linearGradient id="paint13_linear" x1="490.9" y1="372.1" x2="428.5" y2="372.4" gradientUnits="userSpaceOnUse"><stop stop-color="white"/><stop offset="1" stop-color="#E3E1E1"/></linearGradient><linearGradient id="paint14_linear" x1="423.7" y1="384" x2="398" y2="384.1" gradientUnits="userSpaceOnUse"><stop stop-color="#D2D0D0"/><stop offset="1" stop-color="white"/></linearGradient><linearGradient id="paint15_linear" x1="471.4" y1="399.6" x2="471.4" y2="256.2" gradientUnits="userSpaceOnUse"><stop stop-color="#83E8FE"/><stop offset="1" stop-color="white" stop-opacity="0"/></linearGradient><linearGradient id="paint16_linear" x1="247.9" y1="233.7" x2="178.4" y2="234.5" gradientUnits="userSpaceOnUse"><stop stop-color="white"/><stop offset="1" stop-color="#E3E1E1"/></linearGradient><linearGradient id="paint17_linear" x1="235.6" y1="207.9" x2="190.5" y2="254.4" gradientUnits="userSpaceOnUse"><stop stop-color="#E7F2FE"/><stop offset="0" stop-color="#E5F0FE"/><stop offset=".6" stop-color="#CBD7FA"/><stop offset="1" stop-color="#C1CDF8"/></linearGradient><linearGradient id="paint18_linear" x1="205.5" y1="269.4" x2="205.5" y2="238.5" gradientUnits="userSpaceOnUse"><stop offset=".1" stop-color="#87D0FD"/><stop offset=".2" stop-color="#7FC3EC" stop-opacity=".9"/><stop offset=".3" stop-color="#68A1C0" stop-opacity=".8"/><stop offset=".6" stop-color="#456A79" stop-opacity=".5"/><stop offset=".9" stop-color="#141F19" stop-opacity=".1"/><stop offset="1" stop-color="#080C01" stop-opacity="0"/></linearGradient><linearGradient id="paint19_linear" x1="200.9" y1="252.2" x2="175.4" y2="252.3" gradientUnits="userSpaceOnUse"><stop stop-color="#D2D0D0"/><stop offset="1" stop-color="white"/></linearGradient><linearGradient id="paint20_linear" x1="131.4" y1="224.8" x2="136.3" y2="370.9" gradientUnits="userSpaceOnUse"><stop offset="0" stop-color="#22DDEC"/><stop offset=".7" stop-color="#0D5FCF"/></linearGradient><linearGradient id="paint21_linear" x1="333.9" y1="224.6" x2="231.7" y2="226.7" gradientUnits="userSpaceOnUse"><stop stop-color="white"/><stop offset=".9" stop-color="#B1AFAF"/></linearGradient><linearGradient id="paint22_linear" x1="330.9" y1="211.2" x2="226.7" y2="219.1" gradientUnits="userSpaceOnUse"><stop stop-color="#83E8FE"/><stop offset=".2" stop-color="#76D0FD"/><stop offset=".6" stop-color="#5DA5FC"/><stop offset=".8" stop-color="#4F8BFB"/><stop offset="1" stop-color="#4981FB"/></linearGradient><linearGradient id="paint23_linear" x1="316.7" y1="244.2" x2="247.4" y2="245" gradientUnits="userSpaceOnUse"><stop stop-color="#D2D0D0"/><stop offset="1" stop-color="white"/></linearGradient><linearGradient id="paint24_linear" x1="359" y1="270.3" x2="208.8" y2="272.9" gradientUnits="userSpaceOnUse"><stop stop-color="white"/><stop offset=".9" stop-color="#B1AFAF"/></linearGradient><linearGradient id="paint25_linear" x1="301.4" y1="230.8" x2="301.4" y2="70.4" gradientUnits="userSpaceOnUse"><stop stop-color="#83E8FE"/><stop offset=".2" stop-color="#76D0FD"/><stop offset=".6" stop-color="#5DA5FC"/><stop offset=".8" stop-color="#4F8BFB"/><stop offset="1" stop-color="#4981FB"/></linearGradient><linearGradient id="paint26_linear" x1="258.8" y1="96.3" x2="258.8" y2="106.3" gradientUnits="userSpaceOnUse"><stop stop-color="#FAD961"/><stop offset="1" stop-color="#F76B1C"/></linearGradient><linearGradient id="paint27_linear" x1="292.8" y1="96.3" x2="292.8" y2="106.3" gradientUnits="userSpaceOnUse"><stop stop-color="#FAD961"/><stop offset="1" stop-color="#F76B1C"/></linearGradient><linearGradient id="paint28_linear" x1="257.5" y1="141.7" x2="257.5" y2="151.7" gradientUnits="userSpaceOnUse"><stop stop-color="#FAD961"/><stop offset="1" stop-color="#F76B1C"/></linearGradient><linearGradient id="paint29_linear" x1="293.9" y1="141.7" x2="293.9" y2="151.7" gradientUnits="userSpaceOnUse"><stop stop-color="#FAD961"/><stop offset="1" stop-color="#F76B1C"/></linearGradient><linearGradient id="paint30_linear" x1="275.8" y1="167.9" x2="275.8" y2="177.9" gradientUnits="userSpaceOnUse"><stop stop-color="#FAD961"/><stop offset="1" stop-color="#F76B1C"/></linearGradient><linearGradient id="paint31_linear" x1="275.3" y1="119" x2="275.3" y2="129" gradientUnits="userSpaceOnUse"><stop stop-color="#FAD961"/><stop offset="1" stop-color="#F76B1C"/></linearGradient><linearGradient id="paint32_linear" x1="275.8" y1="77.2" x2="275.8" y2="87.2" gradientUnits="userSpaceOnUse"><stop stop-color="#FAD961"/><stop offset="1" stop-color="#F76B1C"/></linearGradient><linearGradient id="paint33_linear" x1="292.8" y1="62.6" x2="292.8" y2="72.5" gradientUnits="userSpaceOnUse"><stop stop-color="#FAD961"/><stop offset="1" stop-color="#F76B1C"/></linearGradient><linearGradient id="paint34_linear" x1="257.5" y1="64.9" x2="257.5" y2="74.9" gradientUnits="userSpaceOnUse"><stop stop-color="#FAD961"/><stop offset="1" stop-color="#F76B1C"/></linearGradient><linearGradient id="paint35_linear" x1="306.2" y1="286.4" x2="306.2" y2="59.5" gradientUnits="userSpaceOnUse"><stop stop-color="#83E8FE"/><stop offset="1" stop-color="white" stop-opacity="0"/></linearGradient><linearGradient id="paint36_linear" x1="342.3" y1="347.9" x2="342.3" y2="317" gradientUnits="userSpaceOnUse"><stop offset=".1" stop-color="#87D0FD"/><stop offset=".2" stop-color="#7FC3EC" stop-opacity=".9"/><stop offset=".3" stop-color="#68A1C0" stop-opacity=".8"/><stop offset=".6" stop-color="#456A79" stop-opacity=".5"/><stop offset=".9" stop-color="#141F19" stop-opacity=".1"/><stop offset="1" stop-color="#080C01" stop-opacity="0"/></linearGradient><linearGradient id="paint37_linear" x1="337.6" y1="330.7" x2="312.2" y2="330.9" gradientUnits="userSpaceOnUse"><stop stop-color="#D2D0D0"/><stop offset="1" stop-color="white"/></linearGradient><linearGradient id="paint38_linear" x1="302.1" y1="383.3" x2="275.9" y2="383.3" gradientUnits="userSpaceOnUse"><stop stop-color="white"/><stop offset="1" stop-color="#E3E1E1"/></linearGradient><linearGradient id="paint39_linear" x1="272.9" y1="374.4" x2="219.5" y2="374.6" gradientUnits="userSpaceOnUse"><stop stop-color="white"/><stop offset="1" stop-color="#E3E1E1"/></linearGradient><linearGradient id="paint40_linear" x1="279.9" y1="341" x2="242.3" y2="341.4" gradientUnits="userSpaceOnUse"><stop stop-color="white"/><stop offset=".9" stop-color="#B1AFAF"/></linearGradient><linearGradient id="paint41_linear" x1="223.5" y1="297.2" x2="232.5" y2="379.5" gradientUnits="userSpaceOnUse"><stop offset="0" stop-color="#22DDEC"/><stop offset=".7" stop-color="#0D5FCF"/></linearGradient><linearGradient id="paint42_linear" x1="108.7" y1="278.3" x2="55.3" y2="278.6" gradientUnits="userSpaceOnUse"><stop stop-color="white"/><stop offset="1" stop-color="#E3E1E1"/></linearGradient><linearGradient id="paint43_linear" x1="115.6" y1="244.4" x2="78.6" y2="244.8" gradientUnits="userSpaceOnUse"><stop stop-color="#D2D0D0"/><stop offset="1" stop-color="white"/></linearGradient><linearGradient id="paint44_linear" x1="60.2" y1="201.6" x2="69" y2="282.1" gradientUnits="userSpaceOnUse"><stop offset="0" stop-color="#22DDEC"/><stop offset=".7" stop-color="#0D5FCF"/></linearGradient><linearGradient id="paint45_linear" x1="393.9" y1="272.8" x2="400.9" y2="316.8" gradientUnits="userSpaceOnUse"><stop offset="0" stop-color="#22DDEC"/><stop offset=".7" stop-color="#0D5FCF"/></linearGradient><linearGradient id="paint46_linear" x1="371.1" y1="372" x2="372.9" y2="392.9" gradientUnits="userSpaceOnUse"><stop offset="0" stop-color="#22DDEC"/><stop offset=".7" stop-color="#0D5FCF"/></linearGradient><linearGradient id="paint47_linear" x1="378.4" y1="368.5" x2="380.2" y2="389.5" gradientUnits="userSpaceOnUse"><stop offset="0" stop-color="#22DDEC"/><stop offset=".7" stop-color="#0D5FCF"/></linearGradient><linearGradient id="paint48_linear" x1="101.3" y1="408.7" x2="179.9" y2="408.7" gradientUnits="userSpaceOnUse"><stop stop-color="#F9A332"/><stop offset=".2" stop-color="#F8A033"/><stop offset=".5" stop-color="#EE8338"/><stop offset=".6" stop-color="#E8713B"/><stop offset=".8" stop-color="#E15D3F"/><stop offset="1" stop-color="#D02949"/></linearGradient><linearGradient id="paint49_linear" x1="187.3" y1="368.4" x2="97.9" y2="369.7" gradientUnits="userSpaceOnUse"><stop stop-color="white"/><stop offset=".9" stop-color="#B1AFAF"/></linearGradient><linearGradient id="paint50_linear" x1="188" y1="402.1" x2="98.6" y2="403.4" gradientUnits="userSpaceOnUse"><stop stop-color="white"/><stop offset=".9" stop-color="#B1AFAF"/></linearGradient><linearGradient id="paint51_linear" x1="382" y1="477.9" x2="291.7" y2="479.2" gradientUnits="userSpaceOnUse"><stop stop-color="white"/><stop offset=".9" stop-color="#B1AFAF"/></linearGradient><linearGradient id="paint52_linear" x1="100.7" y1="328.3" x2="100.7" y2="375.3" gradientUnits="userSpaceOnUse"><stop stop-color="#FAD961"/><stop offset="1" stop-color="#F76B1C"/></linearGradient><linearGradient id="paint53_linear" x1="101.3" y1="357.6" x2="179.9" y2="357.6" gradientUnits="userSpaceOnUse"><stop stop-color="#D02949"/><stop offset="0" stop-color="#E15D3F"/><stop offset=".6" stop-color="#EE8338"/><stop offset=".8" stop-color="#F69A34"/><stop offset="1" stop-color="#F9A332"/></linearGradient><linearGradient id="paint54_linear" x1="257.5" y1="435.3" x2="259.9" y2="509" gradientUnits="userSpaceOnUse"><stop offset="0" stop-color="#22DDEC"/><stop offset=".7" stop-color="#0D5FCF"/></linearGradient><linearGradient id="paint55_linear" x1="378.8" y1="425.2" x2="285.6" y2="417.5" gradientUnits="userSpaceOnUse"><stop stop-color="#E7F2FE"/><stop offset="0" stop-color="#E5F0FE"/><stop offset=".6" stop-color="#CBD7FA"/><stop offset="1" stop-color="#C1CDF8"/></linearGradient><linearGradient id="paint56_linear" x1="256.5" y1="379.9" x2="261.5" y2="486.2" gradientUnits="userSpaceOnUse"><stop offset="0" stop-color="#22DDEC"/><stop offset=".7" stop-color="#0D5FCF"/></linearGradient><linearGradient id="paint57_linear" x1="254.9" y1="420.6" x2="276.1" y2="472.1" gradientUnits="userSpaceOnUse"><stop stop-color="#83E8FE"/><stop offset=".2" stop-color="#76D0FD"/><stop offset=".6" stop-color="#5DA5FC"/><stop offset=".8" stop-color="#4F8BFB"/><stop offset="1" stop-color="#4981FB"/></linearGradient><linearGradient id="paint58_linear" x1="137.8" y1="287.2" x2="111.7" y2="287.3" gradientUnits="userSpaceOnUse"><stop stop-color="white"/><stop offset=".9" stop-color="#B1AFAF"/></linearGradient></defs></svg>