<svg xmlns="http://www.w3.org/2000/svg" width="18" height="28" viewBox="0 0 18 28">
<path fill="#D02F28" fill-rule="evenodd" d="M4.766 27.963c.281.146.578-.17.406-.43-.935-1.414-1.82-3.795-.41-6.86 2.352-5.113 3.783-7.76 3.783-7.76s.761 3.09 2.825 5.837c1.986 2.644 3.073 5.97 1.32 8.74-.164.26.126.567.405.427 2.17-1.078 4.602-3.243 4.877-7.55.101-1.315-.05-3.158-.81-5.483-.975-2.946-2.175-4.321-2.87-4.912-.207-.177-.53-.02-.513.248.202 3.18-1.028 3.986-1.728 2.168-.28-.726-.443-1.983-.443-3.512 0-2.547-.76-5.169-2.435-7.299A8.386 8.386 0 0 0 7.643.064c-.212-.16-.52 0-.5.26C7.272 2.052 7.155 7 2.691 12.91-1.357 18.394.21 22.605.768 23.745c1.064 2.186 2.549 3.469 3.998 4.218z">
</path>
</svg>