<svg xmlns="http://www.w3.org/2000/svg" xmlns:xlink="http://www.w3.org/1999/xlink" viewBox="0 0 1171.4 740.04"><defs><style>.cls-1{fill:#00543f;}.cls-2{fill:url(#Unbenannter_Verlauf_6);}.cls-3{fill:url(#Unbenannter_Verlauf_6-2);}.cls-4{fill:#196552;}.cls-5,.cls-7{fill:#fff;}.cls-5{opacity:0.2;}.cls-6{fill:#00a87e;}.cls-10,.cls-8{opacity:0.3;}.cls-10,.cls-9{fill:#38bb9a;}</style><linearGradient id="Unbenannter_Verlauf_6" x1="121.89" y1="453.18" x2="1114.25" y2="-87.88" gradientUnits="userSpaceOnUse"><stop offset="0" stop-color="#00a87e"/><stop offset="0.08" stop-color="#009f77"/><stop offset="0.49" stop-color="#007659"/><stop offset="0.81" stop-color="#005d46"/><stop offset="1" stop-color="#00543f"/></linearGradient><linearGradient id="Unbenannter_Verlauf_6-2" x1="1044.11" y1="-60.07" x2="51.74" y2="480.99" gradientTransform="translate(0 365.37)" xlink:href="#Unbenannter_Verlauf_6"/></defs><title>Element 27</title><g id="Ebene_2" data-name="Ebene 2"><g id="Box"><path class="cls-1" d="M123.91,0H141a0,0,0,0,1,0,0V30.1a0,0,0,0,1,0,0H123.91a15.05,15.05,0,0,1-15.05-15.05v0A15.05,15.05,0,0,1,123.91,0Z"/><rect class="cls-1" x="146.32" width="32.11" height="30.1"/><path class="cls-1" d="M183.78,0h17.06a15.05,15.05,0,0,1,15.05,15.05v0A15.05,15.05,0,0,1,200.84,30.1H183.78a0,0,0,0,1,0,0V0A0,0,0,0,1,183.78,0Z"/><path class="cls-1" d="M970.55,0h17.06a0,0,0,0,1,0,0V30.1a0,0,0,0,1,0,0H970.55A15.05,15.05,0,0,1,955.5,15.05v0A15.05,15.05,0,0,1,970.55,0Z"/><rect class="cls-1" x="992.96" width="32.11" height="30.1"/><path class="cls-1" d="M1030.43,0h17.06a15.05,15.05,0,0,1,15.05,15.05v0a15.05,15.05,0,0,1-15.05,15.05h-17.06a0,0,0,0,1,0,0V0A0,0,0,0,1,1030.43,0Z"/><path class="cls-1" d="M123.91,709.93H141a0,0,0,0,1,0,0V740a0,0,0,0,1,0,0H123.91A15.05,15.05,0,0,1,108.86,725v0a15.05,15.05,0,0,1,15.05-15.05Z"/><rect class="cls-1" x="146.32" y="709.93" width="32.11" height="30.1"/><path class="cls-1" d="M183.78,709.93h17.06A15.05,15.05,0,0,1,215.89,725v0A15.05,15.05,0,0,1,200.84,740H183.78a0,0,0,0,1,0,0v-30.1A0,0,0,0,1,183.78,709.93Z"/><path class="cls-1" d="M970.55,709.93h17.06a0,0,0,0,1,0,0V740a0,0,0,0,1,0,0H970.55A15.05,15.05,0,0,1,955.5,725v0A15.05,15.05,0,0,1,970.55,709.93Z"/><rect class="cls-1" x="992.96" y="709.93" width="32.11" height="30.1"/><path class="cls-1" d="M1030.43,709.93h17.06A15.05,15.05,0,0,1,1062.54,725v0A15.05,15.05,0,0,1,1047.48,740h-17.06a0,0,0,0,1,0,0v-30.1A0,0,0,0,1,1030.43,709.93Z"/><path class="cls-2" d="M37.93,15.12H1133.46a37.93,37.93,0,0,1,37.93,37.93v317a0,0,0,0,1,0,0H0a0,0,0,0,1,0,0v-317A37.93,37.93,0,0,1,37.93,15.12Z"/><path class="cls-3" d="M37.93,370.06H1133.46A37.93,37.93,0,0,1,1171.4,408V725a0,0,0,0,1,0,0H0a0,0,0,0,1,0,0V408A37.93,37.93,0,0,1,37.93,370.06Z" transform="translate(1171.4 1095.07) rotate(180)"/></g><g id="Icons"><circle class="cls-4" cx="585.7" cy="370.07" r="66"/><circle class="cls-5" cx="585.7" cy="370.07" r="49"/><circle class="cls-6" cx="585.7" cy="370.07" r="36"/><path class="cls-7" d="M609.62,372.92a23.88,23.88,0,1,1-42.81-14.55L564,355.8l11.93-3.87-2.61,12.27-2.72-2.46A18.85,18.85,0,1,0,597,357.83v-5.65l.13-.23A23.88,23.88,0,0,1,609.62,372.92Z"/><rect class="cls-7" x="582.36" y="343.12" width="5.87" height="20.97"/><g class="cls-8"><path class="cls-9" d="M1032,388.82a105.54,105.54,0,1,0,105.53,105.54A105.54,105.54,0,0,0,1032,388.82Zm0,188.88a83.35,83.35,0,1,1,83.34-83.34A83.44,83.44,0,0,1,1032,577.7Z"/><path class="cls-9" d="M1098.79,455.21a2.42,2.42,0,0,0-2.73-1.12l-75,20.45a2.4,2.4,0,0,0-1.09.65l-54.51,55.39a2.42,2.42,0,0,0,2.36,4l75-20.45a3,3,0,0,0,.58-.24,2.81,2.81,0,0,0,.51-.4l54.51-55.39a2.42,2.42,0,0,0,.37-2.93ZM985.68,521.45l36.53-37.12,13.73,23.42Z"/></g><g class="cls-8"><path class="cls-9" d="M847.89,652.45A9.81,9.81,0,0,0,860,659.22l62.63-17.67a9.82,9.82,0,0,0,6.77-12.09l-5.33-18.88-81.49,23,5.33,18.88Z"/><path class="cls-9" d="M878.33,616.45l-8-28.29-37.6,10.61,8,28.31,37.6-10.61v0Z"/><path class="cls-9" d="M884.61,614.68v0l37.6-10.61-8-28.31-37.6,10.61,8,28.29Z"/><path class="cls-9" d="M830.11,562.5a9.82,9.82,0,0,0-4.47,11.11L831,592.49l81.49-23-5.33-18.88a9.82,9.82,0,0,0-9.62-7.13l-1.81-6.41-.07-.25a3.26,3.26,0,0,0-4-2.26L880,537.82a3.26,3.26,0,0,0-2.25,4l0,.07,1.77,6.29-6.93,1.95-1.78-6.28,0-.07a3.26,3.26,0,0,0-4-2.26l-11.55,3.26a3.27,3.27,0,0,0-2.26,4l0,.07,1.77,6.29-6.93,1.95-1.78-6.28,0-.07a3.26,3.26,0,0,0-4-2.26l-11.55,3.26a3.27,3.27,0,0,0-2.26,4l.07.25,1.81,6.42Z"/></g><g class="cls-8"><path class="cls-9" d="M764.61,581.54a29.45,29.45,0,0,1-24.21,33.83,14.12,14.12,0,0,1-16.24-11.62l-5-30.18a14.11,14.11,0,0,1,6.16-14.07,38,38,0,0,0-72.44,12,14.11,14.11,0,0,1,10.37,11.34l5,30.18a14.09,14.09,0,0,1-8.31,15.21A44.52,44.52,0,0,0,688.79,645a14.39,14.39,0,1,1,.14,6.32,50.74,50.74,0,0,1-35.69-21.73,29.4,29.4,0,0,1-19.33-52.7A56.8,56.8,0,0,1,745,558.5,29.41,29.41,0,0,1,764.61,581.54Z"/></g><g class="cls-8"><path class="cls-9" d="M820.25,447.83l-10.6,5a26.28,26.28,0,0,1-3.94,28.22l-5.77-5.77v20.08H820l-6-6A38,38,0,0,0,820.25,447.83Z"/><path class="cls-9" d="M797.7,500.13l-5-10.59a26.28,26.28,0,0,1-28.22-3.94l5.77-5.77H750.15V499.9l6-6A38,38,0,0,0,797.7,500.13Z"/><path class="cls-9" d="M759.92,444.34l5.77,5.77V430H745.62l6,6a38,38,0,0,0-6.2,41.57l10.59-5A26.29,26.29,0,0,1,759.92,444.34Z"/><path class="cls-9" d="M815.48,445.58V425.5l-6,6a38,38,0,0,0-41.57-6.2l5,10.58a26.31,26.31,0,0,1,28.22,3.95l-5.77,5.77Z"/><circle class="cls-9" cx="782.82" cy="462.7" r="16.04"/></g><path class="cls-10" d="M574.68,535.6a8.82,8.82,0,0,0-9.92,7.56,8.73,8.73,0,0,0,.32,3.79l-5,3.14a4.38,4.38,0,0,0-1.2-.35,4.6,4.6,0,0,0-2.63.42l-13.9-6.75,20.75-24a8.87,8.87,0,1,0-4-4.18L537,540.81l-19.86-9.66a4.58,4.58,0,0,0-9,.15l-16.83,8.89a8.82,8.82,0,1,0,2.39,7.29,8.45,8.45,0,0,0,0-2.07l17.1-9a4.42,4.42,0,0,0,3.78-.06l18.47,9L525,554.64a4.59,4.59,0,0,0-4.38,2.52l-16,.76a4.58,4.58,0,0,0-7.77,2.65,4.51,4.51,0,0,0,.18,2l-8.67,11.77a8.6,8.6,0,0,0-3.12-1.05,8.84,8.84,0,1,0,7,5.46l9.57-13a4.61,4.61,0,0,0,3.47-2.12l16.63-.79a4.58,4.58,0,0,0,7.35-3,4.48,4.48,0,0,0,0-1.32l9.18-10.61,15.33,7.45a4.58,4.58,0,0,0,9-.16l5.73-3.6a8.75,8.75,0,0,0,3.84,1.5,8.82,8.82,0,1,0,2.36-17.49Zm-7.14-27.09a3.09,3.09,0,1,1-3.47,2.65A3.08,3.08,0,0,1,567.54,508.51Zm-83,40.85a3.09,3.09,0,1,1,3.47-2.65A3.09,3.09,0,0,1,484.57,549.36Zm-.87,35.74a3.08,3.08,0,1,1,3.47-2.64A3.07,3.07,0,0,1,483.7,585.1Zm89.39-37.7a3.08,3.08,0,1,1,3.47-2.64A3.08,3.08,0,0,1,573.09,547.4Zm-6.37,59.2L464.18,592.75l12.76-94.49a2.87,2.87,0,0,0-5.69-.77L457.72,597.68,566,612.29a2.87,2.87,0,0,0,.77-5.69Z"/></g><g id="Text"><path class="cls-7" d="M117.19,147h5.48l19.09,44.61H134.7l-4.47-11H109l-4.41,11H97.53ZM128,175.26l-8.31-20.48h-.13l-8.44,20.48Z"/><path class="cls-7" d="M176,191.33c0,9-6.55,15.37-16.32,15.37-5.67,0-10.39-1.45-14.62-5.36l3.85-4.79a13.88,13.88,0,0,0,10.64,4.86c8.45,0,10.78-5.3,10.78-10.34v-4.41h-.19c-2.14,3.59-6.24,5.3-10.33,5.3a14.84,14.84,0,0,1-15.19-15.31c0-8.82,5.93-15.69,15.19-15.69a12.75,12.75,0,0,1,10.39,5h.13v-4.29H176ZM150.7,176.65c0,6,3.78,10,9.83,10s9.83-4,9.83-10-3.78-10.4-9.83-10.4S150.7,170.6,150.7,176.65Z"/><path class="cls-7" d="M187.87,146.85a4.16,4.16,0,1,1-4.16,4.15A4.19,4.19,0,0,1,187.87,146.85ZM185,161.71h5.67v29.87H185Z"/><path class="cls-7" d="M200.16,144h5.67v47.63h-5.67Z"/><path class="cls-7" d="M219.12,178.73c0,5.22,4.85,8.69,10.08,8.69,3.46,0,6-1.76,8.19-4.47l4.28,3.27c-3.15,4.1-7.49,6.11-13.23,6.11-9.45,0-15.37-6.8-15.37-15.68S219.56,161,228.51,161c10.52,0,14.55,8.06,14.55,15.75v2ZM237,174.19c-.12-5-2.9-8.7-8.63-8.7a9.22,9.22,0,0,0-9.26,8.7Z"/><path class="cls-7" d="M270.15,182.25A11.12,11.12,0,0,0,279.6,187c4,0,8.88-2.52,8.88-7.43,0-10.27-22-3.91-22-21.3,0-5.23,4.41-12.47,15.13-12.47,4.85,0,9.51,1,12.85,5.1l-4.92,4.47a9.34,9.34,0,0,0-7.93-3.9c-6.68,0-8.7,4-8.7,6.8,0,11.28,22,4.54,22,20.6,0,8.64-6.93,13.8-15.5,13.8-5.73,0-11.21-2-14.24-6.17Z"/><path class="cls-7" d="M306.69,178.73c0,5.22,4.85,8.69,10.08,8.69,3.46,0,6-1.76,8.19-4.47l4.28,3.27c-3.15,4.1-7.49,6.11-13.23,6.11-9.45,0-15.37-6.8-15.37-15.68S307.13,161,316.08,161c10.52,0,14.55,8.06,14.55,15.75v2Zm17.89-4.54c-.12-5-2.9-8.7-8.63-8.7a9.22,9.22,0,0,0-9.26,8.7Z"/><path class="cls-7" d="M337.43,161.71h5.67v4.6h.13a10.09,10.09,0,0,1,8.94-5.35,7.83,7.83,0,0,1,2.52.38l-.25,6.11a11.08,11.08,0,0,0-2.77-.44c-5.54,0-8.57,3-8.57,9.57v15h-5.67Z"/><path class="cls-7" d="M357.15,161.71h6.55l8.95,22.87,8.57-22.87h6l-11.72,29.87h-6.24Z"/><path class="cls-7" d="M395.52,146.85a4.16,4.16,0,1,1-4.16,4.15A4.19,4.19,0,0,1,395.52,146.85Zm-2.84,14.86h5.67v29.87h-5.67Z"/><path class="cls-7" d="M428.72,169.65a9.5,9.5,0,0,0-7.43-3.34c-6.18,0-9.33,5-9.33,10.59S415.74,187,421.6,187a8.85,8.85,0,0,0,7.25-3.34l4,4c-3,3.28-7,4.6-11.34,4.6-9.2,0-15.63-6.36-15.63-15.56S412.21,161,421.54,161A15.28,15.28,0,0,1,433,165.75Z"/><path class="cls-7" d="M442,178.73c0,5.22,4.85,8.69,10.08,8.69,3.47,0,6-1.76,8.19-4.47l4.29,3.27c-3.15,4.1-7.5,6.11-13.24,6.11-9.45,0-15.37-6.8-15.37-15.68S442.45,161,451.4,161C461.92,161,466,169,466,176.71v2Zm17.89-4.54c-.12-5-2.89-8.7-8.63-8.7a9.22,9.22,0,0,0-9.26,8.7Z"/><path class="cls-7" d="M491.28,147h9l14.17,33.77h.25l14-33.77h9v44.61h-6V154.91h-.12l-15.06,36.67h-4l-15.06-36.67h-.12v36.67h-6.05Z"/><path class="cls-7" d="M547.47,165.37A17.63,17.63,0,0,1,559.32,161c8.82,0,12.47,4.79,12.47,9.95v15.25a45.93,45.93,0,0,0,.25,5.42h-5c-.12-1.51-.19-3-.19-4.54h-.12c-2.52,3.84-5.92,5.29-10.46,5.29-5.55,0-10.33-3.15-10.33-8.94,0-7.69,7.37-10.34,16.44-10.34h4.16v-1.26c0-3.08-2.27-6.3-7.12-6.3-4.35,0-6.43,1.83-8.51,3.41Zm16,11.84c-5.35,0-11.9.95-11.9,5.74,0,3.4,2.52,4.85,6.42,4.85,6.3,0,8.51-4.66,8.51-8.7v-1.89Z"/><path class="cls-7" d="M580,161.71h5.67v4.6h.13c1.45-3.15,5.23-5.35,9.83-5.35,5.79,0,10.83,3.46,10.83,11.4v19.22h-5.67V173.94c0-5.61-3.21-7.69-6.8-7.69-4.73,0-8.32,3-8.32,9.95v15.38H580Z"/><path class="cls-7" d="M615.2,165.37A17.61,17.61,0,0,1,627,161c8.82,0,12.48,4.79,12.48,9.95v15.25a45.93,45.93,0,0,0,.25,5.42h-5c-.13-1.51-.19-3-.19-4.54h-.13c-2.52,3.84-5.92,5.29-10.45,5.29-5.55,0-10.34-3.15-10.34-8.94,0-7.69,7.37-10.34,16.45-10.34h4.15v-1.26c0-3.08-2.26-6.3-7.11-6.3-4.35,0-6.43,1.83-8.51,3.41Zm16,11.84c-5.36,0-11.91.95-11.91,5.74,0,3.4,2.52,4.85,6.43,4.85,6.3,0,8.5-4.66,8.5-8.7v-1.89Z"/><path class="cls-7" d="M677.69,191.33c0,9-6.55,15.37-16.31,15.37-5.67,0-10.4-1.45-14.62-5.36l3.84-4.79a13.88,13.88,0,0,0,10.65,4.86c8.44,0,10.77-5.3,10.77-10.34v-4.41h-.19c-2.14,3.59-6.23,5.3-10.33,5.3a14.84,14.84,0,0,1-15.18-15.31c0-8.82,5.92-15.69,15.18-15.69a12.78,12.78,0,0,1,10.4,5H672v-4.29h5.67Zm-25.32-14.68c0,6,3.78,10,9.83,10s9.82-4,9.82-10-3.78-10.4-9.82-10.4S652.37,170.6,652.37,176.65Z"/><path class="cls-7" d="M690.54,178.73c0,5.22,4.86,8.69,10.09,8.69,3.46,0,6-1.76,8.19-4.47l4.28,3.27c-3.15,4.1-7.5,6.11-13.23,6.11-9.45,0-15.37-6.8-15.37-15.68S691,161,699.93,161c10.52,0,14.56,8.06,14.56,15.75v2Zm17.9-4.54c-.13-5-2.9-8.7-8.63-8.7a9.22,9.22,0,0,0-9.27,8.7Z"/><path class="cls-7" d="M721.29,161.71h5.29v4.67h.13c.56-1.77,4.22-5.42,9.57-5.42a9.7,9.7,0,0,1,9.33,5.54,10.79,10.79,0,0,1,9.45-5.54c9.2,0,11.34,6.55,11.34,13.23v17.39h-5.67V174.94c0-4.53-1-8.69-6.43-8.69s-7.62,3.72-7.62,9v16.32H741V176c0-5.67-.82-9.7-6.3-9.7-4.1,0-7.75,3.09-7.75,9.83v15.5h-5.67Z"/><path class="cls-7" d="M779.25,178.73c0,5.22,4.85,8.69,10.08,8.69,3.46,0,6-1.76,8.19-4.47l4.28,3.27c-3.15,4.1-7.49,6.11-13.23,6.11-9.45,0-15.37-6.8-15.37-15.68S779.69,161,788.64,161c10.52,0,14.55,8.06,14.55,15.75v2Zm17.89-4.54c-.12-5-2.9-8.7-8.63-8.7a9.22,9.22,0,0,0-9.26,8.7Z"/><path class="cls-7" d="M810,161.71h5.67v4.6h.13c1.45-3.15,5.23-5.35,9.83-5.35,5.79,0,10.83,3.46,10.83,11.4v19.22h-5.67V173.94c0-5.61-3.21-7.69-6.8-7.69-4.73,0-8.32,3-8.32,9.95v15.38H810Z"/><path class="cls-7" d="M861,166.63H852.9v13.54c0,3.34,0,6.87,4.28,6.87a8.07,8.07,0,0,0,4-.88v5.17a13,13,0,0,1-5.1,1c-8.76,0-8.89-5.35-8.89-10.14V166.63h-6.55v-4.92h6.55v-8.38h5.68v8.38H861Z"/><path class="cls-7" d="M112.52,242.64H98.16V237h34.78v5.67H118.57v38.94h-6Z"/><path class="cls-7" d="M145.35,251a15.69,15.69,0,1,1-15.88,15.69A15.69,15.69,0,0,1,145.35,251Zm0,26.08c6.05,0,9.83-4.35,9.83-10.39s-3.78-10.4-9.83-10.4-9.83,4.35-9.83,10.4S139.3,277,145.35,277Z"/><path class="cls-7" d="M182.77,251a15.69,15.69,0,1,1-15.88,15.69A15.69,15.69,0,0,1,182.77,251Zm0,26.08c6,0,9.83-4.35,9.83-10.39s-3.78-10.4-9.83-10.4-9.83,4.35-9.83,10.4S176.72,277,182.77,277Z"/><path class="cls-7" d="M206.2,234h5.67v47.63H206.2Z"/><path class="cls-7" d="M220.88,234h5.67V256h.13c2-3.09,6.11-5,10.4-5,9.19,0,15.18,6.74,15.18,15.69s-5.92,15.68-15.18,15.68c-4,0-8.2-1.82-10.4-5h-.13v4.29h-5.67Zm25.33,32.7c0-6-3.78-10.4-9.83-10.4s-9.83,4.35-9.83,10.4S230.33,277,236.38,277,246.21,272.69,246.21,266.65Z"/><path class="cls-7" d="M273.8,251a15.69,15.69,0,1,1-15.87,15.69A15.69,15.69,0,0,1,273.8,251Zm0,26.08c6.05,0,9.83-4.35,9.83-10.39s-3.78-10.4-9.83-10.4S264,260.6,264,266.65,267.75,277,273.8,277Z"/><path class="cls-7" d="M305,265.64,294.4,251.71h7.31L309,262.3l7.12-10.59h6.86l-10.2,13.93,12.09,15.94h-7.3L308.71,269l-8.83,12.54h-7Z"/><polygon class="cls-7" points="197.29 74.91 220.86 74.91 221.62 72.37 202.37 72.37 206.58 58.21 202.25 58.21 197.29 74.91 197.29 74.91"/><polygon class="cls-7" points="228.64 74.91 224.55 74.91 224.32 74.91 228.52 60.78 208.79 60.78 209.59 58.08 261.96 58.08 261.21 60.78 233.07 60.78 228.87 74.91 228.64 74.91 228.64 74.91"/><path class="cls-7" d="M262.6,68.63c-1.75,5.87,4.1,6.53,7.49,6.53h8.56c7.06,0,10.35-1.58,11.57-5.67l.14-.48h-3.53l-.16.54c-.78,2.63-4,3.39-7.49,3.39h-6.4c-4.59,0-7.43-.82-6.36-4.44l1-3.39c1.2-4,4.66-4.41,8.24-4.41h7c3.8,0,6.08.64,5.28,3.33l-.11.38h3.52l.14-.44c1-3.42-1.15-5.49-8.21-5.49H276.9c-5.56,0-11.49.67-13.23,6.54l-1.07,3.61Z"/><polygon class="cls-7" points="292.59 74.91 296.37 74.91 298.65 67.23 317.86 67.23 315.58 74.91 319.35 74.91 324.31 58.21 320.54 58.21 318.54 64.93 299.33 64.93 301.33 58.21 297.55 58.21 292.59 74.91 292.59 74.91"/><polygon class="cls-7" points="233.51 74.91 257.08 74.91 257.83 72.37 234.26 72.37 233.51 74.91 233.51 74.91"/><polygon class="cls-7" points="235.68 67.6 259.25 67.6 260.01 65.07 236.43 65.07 235.68 67.6 235.68 67.6"/><polygon class="cls-7" points="140.65 60.82 164.22 60.82 164.97 58.28 141.39 58.28 140.65 60.82 140.65 60.82"/><polygon class="cls-7" points="136.47 74.91 160.03 74.91 160.79 72.37 137.21 72.37 136.47 74.91 136.47 74.91"/><polygon class="cls-7" points="138.64 67.6 162.21 67.6 162.96 65.07 139.38 65.07 138.64 67.6 138.64 67.6"/><path class="cls-7" d="M104.7,74.87h3.69l1.92-6.56h15.91c2.57,0,4.06.32,3.3,2.91l-1.08,3.65H132l1.25-4.24c.44-1.51.1-2.71-2.66-3.12v0c2.21-.16,4.07-.81,4.76-3.14l.4-1.36c.92-3.11.43-4.69-5.6-4.69H109.59L104.7,74.87Zm6.3-9,1.68-5.63h15c4.15,0,5,.59,4.44,2.45l-.25.78c-.51,1.74-2,2.4-5.18,2.4Z"/><path class="cls-7" d="M188.71,74.91h3.79l3.22-10.85c1.43-4.81-3.1-5.58-10.16-5.58h-6c-6.79,0-9.75,1.21-10.63,4.16l-.23.79h3.79l.17-.57c.4-1.33,1.57-2.16,6.33-2.16h5.56c5.82,0,8.26.38,7.4,3.3l-.91,3H191c-.87-1.56-2.52-1.94-7.46-1.94h-6.08c-6.62,0-10.37.45-11.46,4.12l-.32,1.08c-.9,3,.06,4.85,5.79,4.85h9.09c5.82,0,7.13-.41,8.58-1.87h.09l-.48,1.62ZM190,70.56c-.6,2-3.35,2.38-10.23,2.38h-5c-5.21,0-5.86-.76-5.33-2.57l.15-.5c.61-2,2.13-2.54,7-2.54h5.82c5.83,0,8.47.29,7.81,2.51l-.21.72Z"/></g></g></svg>