<svg width="110" height="110" viewBox="0 0 110 110" fill="none" xmlns="http://www.w3.org/2000/svg">
<path d="M35.0254 83.68L34.996 83.6615C34.2516 83.1731 33.2571 83.3838 32.7687 84.1282C32.2811 84.8726 32.4934 85.8738 33.2378 86.3614C33.5122 86.5452 33.8228 86.6324 34.1299 86.6324C34.6502 86.6324 35.1613 86.3807 35.4719 85.9149C35.9653 85.1747 35.7656 84.1743 35.0254 83.68Z" fill="white"/>
<path d="M30.0908 79.7893C29.442 79.1801 28.4299 79.2187 27.8207 79.8674C27.2114 80.5161 27.2508 81.5425 27.8987 82.1518C28.2101 82.4446 28.607 82.5898 29.0031 82.5898C29.432 82.5898 29.8591 82.4203 30.1764 82.0829C30.7865 81.4351 30.7554 80.4154 30.1076 79.8053L30.0908 79.7893Z" fill="white"/>
<path d="M25.9022 75.129C25.3626 74.4224 24.3522 74.2873 23.6447 74.8277C22.9372 75.3682 22.8029 76.3803 23.3426 77.0878C23.659 77.5116 24.1449 77.7357 24.6358 77.7357C24.9707 77.7357 25.3089 77.6324 25.5976 77.4168C26.3118 76.8847 26.4586 75.8751 25.9266 75.1617L25.9022 75.129Z" fill="white"/>
<path d="M86.7606 34.8852C87.0602 35.3997 87.5999 35.6867 88.1546 35.6867C88.4299 35.6867 88.7093 35.6162 88.9636 35.4677C89.7332 35.0203 89.9942 34.0334 89.546 33.2647L88.1437 34.0577L89.541 33.2554C89.0979 32.4842 88.1135 32.2173 87.3414 32.6604C86.5701 33.1035 86.3032 34.088 86.7464 34.8601C86.748 34.8626 86.7589 34.8827 86.7606 34.8852Z" fill="white"/>
<path d="M79.6652 26.0758C79.9715 26.3502 80.3534 26.4845 80.7335 26.4845C81.175 26.4845 81.6147 26.304 81.9328 25.9499C82.527 25.2902 82.4724 24.2714 81.8145 23.6747L80.7243 24.8614L81.8103 23.6714C81.1532 23.0713 80.1343 23.1175 79.5343 23.7746C78.9342 24.4317 78.9804 25.4514 79.6375 26.0514C79.6417 26.0548 79.6602 26.0724 79.6652 26.0758Z" fill="white"/>
<path d="M83.565 30.2183C83.8856 30.6035 84.3488 30.8024 84.8146 30.8024C85.1771 30.8024 85.5414 30.6816 85.8401 30.4323C86.5241 29.8625 86.6223 28.8546 86.0525 28.1706L84.7903 29.1718L86.0508 28.1689C85.4969 27.4723 84.4831 27.3574 83.7865 27.9113C83.0908 28.4652 82.9758 29.479 83.5297 30.1755C83.5373 30.1848 83.5574 30.2091 83.565 30.2183Z" fill="white"/>
<path d="M75.1701 22.583C75.4437 22.7634 75.7517 22.8507 76.0564 22.8507C76.5801 22.8507 77.0928 22.5964 77.4025 22.1265C77.8935 21.3837 77.6887 20.385 76.946 19.8941C76.9443 19.8933 76.9258 19.8807 76.9233 19.8798C76.1797 19.3931 75.1911 19.6062 74.7035 20.349C74.2151 21.0908 74.4291 22.0937 75.1701 22.583Z" fill="white"/>
<path d="M71.7501 87.4901C71.7484 87.4842 71.7451 87.48 71.7434 87.4749C69.5614 80.3314 62.9096 75.1198 55.062 75.1198C47.2017 75.1198 40.5415 80.3499 38.3713 87.5119C38.3243 87.626 38.2924 87.7418 38.2731 87.8585C37.8535 89.3548 37.6235 90.9309 37.6235 92.5599C37.6235 97.3703 39.5815 101.732 42.7412 104.89C42.8117 104.973 42.8914 105.048 42.9787 105.116C46.1149 108.137 50.374 110 55.062 110C61.0356 110 66.5276 106.994 69.7544 101.958C70.2345 101.209 70.0163 100.212 69.2668 99.7319C68.5182 99.2519 67.5212 99.4701 67.0412 100.22C66.8759 100.478 66.703 100.73 66.5234 100.974C66.3169 100.721 66.0895 100.48 65.8411 100.251C64.5352 99.0538 62.7896 98.3942 60.9257 98.3942H49.2377C47.3712 98.3942 45.6265 99.0538 44.3248 100.25C44.0697 100.484 43.8372 100.732 43.6257 100.993C41.8801 98.6326 40.8462 95.7154 40.8462 92.5599C40.8462 84.7206 47.2235 78.3424 55.062 78.3424C62.9004 78.3424 69.2786 84.7206 69.2786 92.5599C69.2786 93.295 69.2215 94.0327 69.1107 94.7528C68.9748 95.6315 69.5773 96.4547 70.4569 96.5915C71.3355 96.7275 72.1588 96.1249 72.2956 95.2454C72.4316 94.3634 72.5012 93.4604 72.5012 92.5599C72.5012 90.9544 72.2788 89.4001 71.8701 87.9223C71.8508 87.7762 71.8122 87.631 71.7501 87.4901ZM46.5035 102.625C47.2109 101.974 48.1819 101.616 49.2377 101.616H60.9257C61.9814 101.616 62.9533 101.974 63.6608 102.624C63.915 102.858 64.1248 103.113 64.2885 103.381C61.7515 105.55 58.5053 106.777 55.062 106.777C51.559 106.777 48.3498 105.501 45.8682 103.391C46.0335 103.119 46.2458 102.861 46.5035 102.625Z" fill="white"/>
<path d="M86.498 74.8362C85.7889 74.3033 84.7793 74.4485 84.243 75.1551L85.5203 76.1387L84.2396 75.161C83.6992 75.8676 83.8351 76.8789 84.5418 77.4194C84.8338 77.6426 85.1779 77.75 85.5186 77.75C86.0037 77.75 86.4829 77.5318 86.8002 77.1164L86.8245 77.0845C87.3557 76.3729 87.208 75.37 86.498 74.8362Z" fill="white"/>
<path d="M80.0553 79.8069L80.0402 79.8203C79.3923 80.4305 79.3604 81.4501 79.9697 82.0989C80.2869 82.4354 80.7149 82.6058 81.1446 82.6058C81.5399 82.6058 81.9368 82.4614 82.2474 82.1694L82.2641 82.1534C82.912 81.5433 82.9431 80.5236 82.333 79.8757C81.7228 79.227 80.704 79.1968 80.0553 79.8069Z" fill="white"/>
<path d="M75.1316 83.685L76.007 85.0378L75.1233 83.69C74.3797 84.1776 74.1716 85.1763 74.6592 85.9207C74.968 86.3924 75.4833 86.6492 76.0078 86.6492C76.3108 86.6492 76.6171 86.5636 76.8898 86.3857L76.9184 86.3664C77.6586 85.8729 77.8575 84.875 77.3657 84.1348C76.8731 83.3938 75.8727 83.1932 75.1316 83.685Z" fill="white"/>
<path d="M21.2024 35.4735C21.4542 35.6187 21.7294 35.6884 22.0014 35.6884C22.5603 35.6884 23.1058 35.3972 23.4062 34.8802C23.8544 34.1114 23.5934 33.1254 22.8238 32.6772C22.0551 32.2299 21.069 32.4901 20.6208 33.2596C20.62 33.2621 20.6082 33.2823 20.6066 33.2848C20.1643 34.0552 20.4337 35.0296 21.2024 35.4735Z" fill="white"/>
<path d="M24.3395 30.4709C24.6383 30.7084 24.9933 30.8242 25.3466 30.8242C25.8165 30.8242 26.2815 30.6177 26.5987 30.2199C27.1686 29.536 27.0762 28.5205 26.3923 27.9506C25.7091 27.3808 24.6928 27.4731 24.123 28.1571C24.1154 28.1663 24.0953 28.1907 24.0877 28.1999C23.533 28.8965 23.6438 29.917 24.3395 30.4709Z" fill="white"/>
<path d="M34.0768 22.8707C34.3798 22.8707 34.6852 22.7859 34.958 22.608C34.9639 22.6038 34.9857 22.5895 34.9916 22.5853C35.7276 22.0902 35.9206 21.0965 35.4288 20.3589C34.9378 19.6203 33.9383 19.4206 33.1973 19.9082L34.076 21.2594L33.1939 19.9107C32.4487 20.3975 32.2405 21.3962 32.7273 22.1414C33.0361 22.6139 33.5514 22.8707 34.0768 22.8707Z" fill="white"/>
<path d="M29.4103 26.4946C29.7963 26.4946 30.1841 26.3578 30.4937 26.0817C31.1567 25.4892 31.2138 24.4704 30.6213 23.8065C30.0288 23.1435 29.01 23.0865 28.3461 23.679C28.3419 23.6832 28.3226 23.7 28.3184 23.7033C27.6638 24.3017 27.6227 25.3096 28.2169 25.9667C28.5333 26.3175 28.9705 26.4946 29.4103 26.4946Z" fill="white"/>
<path d="M55.062 0C45.4469 0 37.6235 7.82333 37.6235 17.4401C37.6235 17.7322 37.6311 18.0225 37.6462 18.3112C37.6395 18.4354 37.6496 18.5622 37.673 18.6872C37.9802 23.0009 39.8567 26.8874 42.7412 29.7701C42.8117 29.8524 42.8906 29.9287 42.9778 29.9959C46.1149 33.0171 50.374 34.8802 55.0628 34.8802C59.7701 34.8802 64.0451 33.002 67.1855 29.959C67.2795 29.8859 67.366 29.8029 67.4415 29.7105C70.2957 26.8311 72.1513 22.9639 72.4526 18.6738C72.4777 18.542 72.4878 18.4086 72.4803 18.2777C72.4928 17.9999 72.5012 17.7213 72.5012 17.4401C72.5012 7.82333 64.6779 0 55.062 0ZM45.8682 28.2713C46.0335 27.9993 46.2458 27.7409 46.5035 27.505C47.2109 26.8546 48.1819 26.4963 49.2377 26.4963H60.9257C61.9814 26.4963 62.9533 26.8546 63.6608 27.5042C63.9108 27.735 64.119 27.9859 64.2818 28.2494C61.7977 30.3719 58.5784 31.6576 55.0628 31.6576C51.559 31.6576 48.3498 30.3811 45.8682 28.2713ZM66.5175 25.8467C66.3127 25.5966 66.087 25.3574 65.8411 25.1317C64.5361 23.9333 62.7905 23.2736 60.9257 23.2736H49.2377C47.3721 23.2736 45.6265 23.9341 44.3257 25.13C44.0705 25.3642 43.8372 25.6126 43.6257 25.8736C41.881 23.512 40.8462 20.5948 40.8462 17.4401C40.8462 9.60083 47.2235 3.22266 55.062 3.22266C62.9012 3.22266 69.2786 9.60083 69.2786 17.4401C69.2786 20.5839 68.2514 23.4901 66.5175 25.8467Z" fill="white"/>
<path d="M56.5509 7.40039H53.6136C51.4165 7.40039 49.6289 9.18964 49.6289 11.3893V16.1628C49.6289 17.4359 50.3036 18.6386 51.3905 19.3007L53.173 20.3875C53.7613 20.7467 54.4218 20.9263 55.0822 20.9263C55.7427 20.9263 56.4032 20.7467 56.9923 20.3875L58.7749 19.3007C59.8617 18.6386 60.5364 17.4359 60.5364 16.1628V11.3893C60.5356 9.18964 58.748 7.40039 56.5509 7.40039ZM57.3129 16.1628C57.3129 16.3198 57.2307 16.4675 57.0972 16.5489L55.3147 17.6357C55.172 17.7238 54.9933 17.723 54.8506 17.6357L53.0681 16.5489C52.9346 16.4683 52.8516 16.3198 52.8516 16.1628V11.3893C52.8516 10.9671 53.1931 10.623 53.6136 10.623H56.5517C56.9714 10.623 57.3138 10.9671 57.3138 11.3893V16.1628H57.3129Z" fill="white"/>
<path d="M53.6136 82.5201C51.4165 82.5201 49.6289 84.3094 49.6289 86.509V91.2826C49.6289 92.5557 50.3036 93.7575 51.3905 94.4205L53.173 95.5073C53.7613 95.8665 54.4218 96.0461 55.0822 96.0461C55.7427 96.0461 56.4032 95.8665 56.9923 95.5073L58.7749 94.4205C59.8617 93.7583 60.5364 92.5557 60.5364 91.2826V86.509C60.5364 84.3102 58.7489 82.521 56.5517 82.521H53.6136V82.5201ZM57.3129 86.509V91.2826C57.3129 91.4395 57.2307 91.5881 57.0972 91.6695L55.3147 92.7554C55.1712 92.8436 54.9933 92.8436 54.8498 92.7554L53.0681 91.6695C52.9338 91.5881 52.8516 91.4395 52.8516 91.2826V86.509C52.8516 86.0869 53.1931 85.7436 53.6136 85.7436H56.5509C56.9714 85.7428 57.3129 86.0869 57.3129 86.509Z" fill="white"/>
<path d="M29.7768 67.6666C29.8708 67.5936 29.9564 67.5105 30.032 67.4182C33.1581 64.2643 35.0925 59.928 35.0925 55.1477C35.0925 46.2804 28.4391 38.943 19.8638 37.8528C19.7287 37.8176 19.5927 37.8 19.4576 37.8008C18.8643 37.7395 18.2626 37.7076 17.6533 37.7076C10.8572 37.7076 4.63341 41.6999 1.7968 47.8791C1.42586 48.6882 1.78085 49.6441 2.58987 50.0158C3.39806 50.3868 4.35478 50.0326 4.72572 49.2236C7.03865 44.1857 12.1127 40.9303 17.6533 40.9303C25.4926 40.9303 31.8699 47.3085 31.8699 55.1477C31.8699 58.2907 30.8427 61.1978 29.1088 63.5543C28.9032 63.3043 28.6783 63.0651 28.4324 62.8385C27.1265 61.6409 25.3809 60.9813 23.517 60.9813H11.829C9.96338 60.9813 8.21777 61.6417 6.91696 62.8376C6.66183 63.0718 6.42853 63.3202 6.21704 63.5804C4.47144 61.2196 3.4375 58.3024 3.4375 55.1477C3.4375 54.2582 2.71576 53.5364 1.82617 53.5364C0.936584 53.5364 0.214844 54.2582 0.214844 55.1477C0.214844 59.9574 2.17194 64.3197 5.33165 67.4778C5.40298 67.5608 5.48187 67.6364 5.56915 67.7035C8.70621 70.7248 12.9653 72.5879 17.6541 72.5879C22.3614 72.5879 26.6364 70.7096 29.7768 67.6666ZM9.09477 65.2127C9.80225 64.5623 10.7732 64.2048 11.8282 64.2048H23.517C24.5719 64.2048 25.5446 64.5631 26.2521 65.2118C26.5022 65.4426 26.7103 65.6936 26.8731 65.9571C24.389 68.0795 21.1688 69.3652 17.6533 69.3652C14.1495 69.3652 10.9402 68.0887 8.45947 65.9789C8.6248 65.707 8.83713 65.4485 9.09477 65.2127Z" fill="white"/>
<path d="M15.7635 58.0951C16.3526 58.4543 17.0131 58.6339 17.6736 58.6339C18.334 58.6339 18.9945 58.4543 19.5837 58.0951L21.3662 57.0091C22.4522 56.3461 23.1269 55.1443 23.1269 53.8704V49.0968C23.1269 46.898 21.3393 45.1088 19.1422 45.1088H16.2049C14.0069 45.1088 12.2202 46.898 12.2202 49.0968V53.8704C12.2202 55.1443 12.895 56.3461 13.9809 57.0091L15.7635 58.0951ZM15.4429 49.0968C15.4429 48.6747 15.7844 48.3314 16.2049 48.3314H19.1422C19.5627 48.3314 19.9042 48.6747 19.9042 49.0968V53.8704C19.9042 54.0273 19.8212 54.1758 19.6877 54.2572L17.906 55.3441C17.7625 55.4313 17.5846 55.4313 17.4411 55.3441L15.6586 54.2572C15.5251 54.1758 15.4429 54.0273 15.4429 53.8704V49.0968Z" fill="white"/>
<path d="M104.85 67.4182C107.976 64.2643 109.91 59.928 109.91 55.1477C109.91 45.5318 102.087 37.7076 92.4711 37.7076C91.8719 37.7076 91.2786 37.7379 90.6945 37.7974C90.5602 37.7983 90.4251 37.8134 90.2908 37.8495C81.7013 38.9262 75.0327 46.2703 75.0327 55.1477C75.0327 59.9582 76.9898 64.3197 80.1495 67.4778C80.2209 67.5608 80.2997 67.6364 80.387 67.7035C83.5241 70.7248 87.7832 72.5879 92.4711 72.5879C97.1792 72.5879 101.454 70.7096 104.595 67.6666C104.689 67.5936 104.775 67.5105 104.85 67.4182ZM92.4711 40.9303C100.31 40.9303 106.688 47.3085 106.688 55.1477C106.688 58.2915 105.661 61.1986 103.927 63.5552C103.722 63.3043 103.496 63.0651 103.25 62.8393C101.945 61.6417 100.2 60.9821 98.3349 60.9821H86.6469C84.7812 60.9821 83.0356 61.6417 81.7348 62.8385C81.4797 63.0718 81.2464 63.3202 81.0349 63.5812C79.2901 61.2196 78.2554 58.3033 78.2554 55.1486C78.2554 47.3085 84.6327 40.9303 92.4711 40.9303ZM83.2773 65.9789C83.4427 65.707 83.6558 65.4485 83.9135 65.2127C84.6201 64.5623 85.5911 64.2048 86.6469 64.2048H98.3349C99.3906 64.2048 100.362 64.5631 101.07 65.2118C101.321 65.4426 101.528 65.6936 101.691 65.9571C99.2068 68.0795 95.9875 69.3652 92.4711 69.3652C88.9682 69.3652 85.7581 68.0887 83.2773 65.9789Z" fill="white"/>
<path d="M88.7983 57.0091L90.5808 58.0951C91.17 58.4543 91.8305 58.6339 92.4909 58.6339C93.1514 58.6339 93.8119 58.4543 94.401 58.0951L96.1836 57.0091C97.2695 56.3461 97.9443 55.1443 97.9443 53.8704V49.0968C97.9443 46.898 96.1567 45.1088 93.9596 45.1088H91.0223C88.8252 45.1088 87.0376 46.898 87.0376 49.0968V53.8704C87.0376 55.1435 87.7123 56.3461 88.7983 57.0091ZM90.2603 49.0968C90.2603 48.6747 90.6018 48.3314 91.0223 48.3314H93.9596C94.3801 48.3314 94.7216 48.6747 94.7216 49.0968V53.8704C94.7216 54.0273 94.6394 54.1758 94.5059 54.2572L92.7234 55.3441C92.5799 55.4313 92.402 55.4313 92.2585 55.3441L90.4768 54.2572C90.3433 54.1758 90.2603 54.0273 90.2603 53.8704V49.0968Z" fill="white"/>
<path d="M61.5965 45.9934C62.4869 45.9934 63.2078 45.2717 63.2078 44.3821V42.931C63.2078 41.6906 62.1991 40.6819 60.9587 40.6819H49.1666C47.9262 40.6819 46.9175 41.6906 46.9175 42.931V50.4858C46.9175 54.426 49.7289 57.7208 53.4509 58.4711V61.437H52.6301C51.451 61.437 50.4188 62.2745 50.1762 63.4285L49.3118 67.5415C49.1977 68.0854 49.3328 68.6451 49.6828 69.0765C50.0336 69.5079 50.553 69.7554 51.1086 69.7554H59.0167C59.5723 69.7554 60.0918 69.5079 60.4426 69.0765C60.7925 68.6451 60.9285 68.0854 60.8135 67.5415L59.9491 63.4285C59.7066 62.2745 58.6751 61.437 57.496 61.437H56.6736V58.4711C60.3964 57.7208 63.2078 54.426 63.2078 50.4858C63.2078 49.5962 62.4869 48.8745 61.5965 48.8745C60.7069 48.8745 59.9852 49.5962 59.9852 50.4858C59.9852 53.116 57.9123 55.2711 55.314 55.4029C55.2318 55.3894 55.1487 55.3811 55.0622 55.3811C54.9766 55.3811 54.8936 55.3894 54.8113 55.4029C52.213 55.2711 50.1401 53.116 50.1401 50.4858V43.9045H59.9852V44.3821C59.9852 45.2717 60.7069 45.9934 61.5965 45.9934ZM57.308 66.5328H52.8173L53.2109 64.6596H56.9144L57.308 66.5328Z" fill="white"/>
</svg>
