<svg width="110" height="110" viewBox="0 0 110 110" fill="none" xmlns="http://www.w3.org/2000/svg">
<g clip-path="url(#clip0)">
<path d="M54.9982 69.246C55.7107 69.246 56.3897 69.1008 57.0082 68.8398L66.5142 79.8581C66.8331 80.2274 67.2829 80.417 67.7352 80.417C68.1079 80.417 68.483 80.2878 68.7868 80.026C69.4607 79.4444 69.5354 78.4264 68.9547 77.7533L59.4436 66.73C59.9178 65.9453 60.1905 65.0255 60.1905 64.0436C60.1905 61.7391 58.6858 59.7803 56.6087 59.0988V46.5011C56.6087 45.6115 55.8878 44.8898 54.9974 44.8898C54.1078 44.8898 53.386 45.6115 53.386 46.5011V59.0988C51.3098 59.7803 49.8042 61.7391 49.8042 64.0436C49.805 66.9121 52.1347 69.246 54.9982 69.246ZM54.9982 62.0638C56.085 62.0638 56.9687 62.9518 56.9687 64.0436C56.9687 65.1354 56.085 66.0233 54.9982 66.0233C53.9114 66.0233 53.0277 65.1354 53.0277 64.0436C53.0277 62.9518 53.9114 62.0638 54.9982 62.0638Z" fill="white"/>
<path d="M50.9557 21.6807L52.9698 22.9119C53.6026 23.2979 54.3118 23.4909 55.0209 23.4909C55.7292 23.4909 56.4384 23.2979 57.0712 22.9119L59.0853 21.6807C60.2502 20.969 60.9736 19.6775 60.9736 18.3095V12.9023C60.9736 10.529 59.0475 8.5979 56.6809 8.5979H53.3609C50.9934 8.5979 49.0674 10.529 49.0674 12.9023V18.3095C49.0674 19.6775 49.7908 20.969 50.9557 21.6807ZM52.29 12.9023C52.29 12.3056 52.7701 11.8206 53.3609 11.8206H56.6801C57.2709 11.8206 57.7509 12.3056 57.7509 12.9023V18.3095C57.7509 18.5621 57.6183 18.8005 57.4043 18.9314L55.391 20.1617C55.1627 20.301 54.8782 20.301 54.6508 20.1617L52.6366 18.9305C52.4226 18.8005 52.29 18.5621 52.29 18.3095V12.9023Z" fill="white"/>
<path d="M104.329 104.166C107.832 100.631 110 95.7649 110 90.4014C110 79.6256 101.254 70.8598 90.5038 70.8598C90.1479 70.8598 89.7938 70.8699 89.443 70.8892C89.8844 68.6417 90.1077 66.349 90.1077 64.0444C90.1077 56.8413 87.9517 49.9159 83.873 44.017C80.3323 38.8976 75.5688 34.8559 70.0038 32.2198C72.8069 28.8344 74.4946 24.4897 74.4946 19.7564C74.4946 8.98148 65.7489 0.214844 54.9983 0.214844C44.2477 0.214844 35.5013 8.98148 35.5013 19.7564C35.5013 24.4888 37.1889 28.8344 39.9928 32.219C34.427 34.8559 29.6627 38.8976 26.1228 44.017C22.0441 49.9159 19.8873 56.8413 19.8873 64.0444C19.8873 66.3481 20.1114 68.6417 20.552 70.8884C20.202 70.8699 19.8504 70.8598 19.4962 70.8598C8.74649 70.8598 0 79.6256 0 90.4014C0 93.1398 0.554733 95.7893 1.64825 98.2759C2.00661 99.09 2.95662 99.4601 3.77151 99.1017C4.58641 98.7442 4.95651 97.7934 4.59816 96.9785C3.68507 94.903 3.22266 92.69 3.22266 90.4014C3.22266 81.4031 10.5231 74.0825 19.4962 74.0825C28.4702 74.0825 35.7706 81.4031 35.7706 90.4014C35.7706 94.1091 34.5286 97.5315 32.4431 100.274C32.1754 99.9216 31.8749 99.5843 31.5367 99.2721C30.0999 97.9511 28.1773 97.2235 26.1228 97.2235H12.9141C10.858 97.2235 8.93532 97.952 7.50359 99.2712C6.45454 100.234 5.73616 101.419 5.41557 102.703C5.24017 103.27 5.39795 103.911 5.82176 104.329C9.49089 107.949 14.3475 109.943 19.4962 109.943C24.775 109.943 29.5687 107.829 33.0826 104.402C33.1707 104.332 33.2513 104.253 33.3218 104.166C35.7732 101.692 37.5691 98.568 38.4277 95.0768C43.5042 97.8043 49.1858 99.2377 54.9975 99.2377C60.81 99.2377 66.4925 97.8034 71.5715 95.0751C72.4359 98.5923 74.252 101.739 76.7319 104.221C76.7974 104.298 76.8704 104.37 76.9501 104.434C80.4607 107.842 85.2418 109.943 90.5038 109.943C95.7817 109.943 100.575 107.829 104.089 104.402C104.177 104.332 104.258 104.252 104.329 104.166ZM81.2227 45.8498C84.9271 51.2075 86.885 57.4992 86.885 64.0444C86.885 66.521 86.6013 68.9825 86.0424 71.3768C84.4017 71.7628 82.8407 72.3587 81.3872 73.1325C82.3674 70.2816 82.9003 67.2243 82.9003 64.0436C82.9003 51.5633 74.7027 40.9672 63.4209 37.3786C64.9281 36.6518 66.3271 35.7362 67.5893 34.6637C73.0888 37.0337 77.7877 40.8841 81.2227 45.8498ZM54.9983 36.0753C50.9247 36.0753 47.1985 34.563 44.3409 32.0738C44.5473 31.6886 44.831 31.3252 45.1868 30.9988C46.0244 30.2267 47.1716 29.8012 48.4162 29.8012H61.6241C62.8687 29.8012 64.0167 30.2267 64.8551 30.9979C65.2026 31.3177 65.4812 31.6727 65.686 32.047C62.8242 34.5521 59.0862 36.0753 54.9983 36.0753ZM54.9983 3.4375C63.9722 3.4375 71.2719 10.7581 71.2719 19.7564C71.2719 23.465 70.0307 26.8865 67.9443 29.63C67.6766 29.2767 67.377 28.9401 67.038 28.6279C65.6012 27.3061 63.6785 26.5785 61.6241 26.5785H48.4162C46.3601 26.5785 44.4374 27.307 43.0048 28.6263C42.6566 28.9468 42.3477 29.2934 42.0741 29.6577C39.9752 26.91 38.7239 23.4776 38.7239 19.7564C38.7239 10.7581 46.0252 3.4375 54.9983 3.4375ZM23.1108 64.0444C23.1108 57.4992 25.0687 51.2075 28.7731 45.8498C32.2073 40.8833 36.9078 37.0337 42.4073 34.6637C43.6678 35.7346 45.0652 36.6493 46.5691 37.3753C46.23 37.4835 45.8918 37.5968 45.5561 37.7177C44.7194 38.019 44.2855 38.9429 44.5868 39.7797C44.8881 40.6172 45.8121 41.0503 46.6488 40.7498C49.3209 39.7864 52.1307 39.2979 54.9983 39.2979C68.6065 39.2979 79.6777 50.3985 79.6777 64.0436C79.6777 77.6887 68.6065 88.7892 54.9983 88.7892C41.3893 88.7892 30.3181 77.6887 30.3181 64.0436C30.3181 55.8073 34.3884 48.1351 41.2064 43.5193C41.9432 43.0208 42.1354 42.0187 41.6369 41.2819C41.1375 40.545 40.1363 40.352 39.3995 40.8514C31.6953 46.0664 27.0955 54.7365 27.0955 64.0436C27.0955 67.2234 27.6292 70.2799 28.6086 73.13C27.1551 72.3562 25.5941 71.7612 23.9526 71.3751C23.3945 68.9816 23.1108 66.5202 23.1108 64.0444ZM8.83461 102.726C9.0419 102.338 9.32724 101.972 9.68559 101.643C10.5231 100.872 11.6695 100.446 12.9141 100.446H26.1228C27.3674 100.446 28.5155 100.872 29.3539 101.643C29.7005 101.963 29.9791 102.318 30.1847 102.692C27.3229 105.197 23.585 106.72 19.4971 106.72C15.5418 106.72 11.7946 105.307 8.83461 102.726ZM54.9975 96.015C49.3343 96.015 43.808 94.5161 38.9505 91.6753C38.9782 91.254 38.9933 90.8294 38.9933 90.4014C38.9933 89.1308 38.8699 87.8887 38.6383 86.6853C43.2381 90.0338 48.8912 92.0119 54.9983 92.0119C61.1071 92.0119 66.7619 90.033 71.3625 86.6827C71.1301 87.887 71.0067 89.1299 71.0067 90.4014C71.0067 90.8286 71.0218 91.2524 71.0487 91.6728C66.1895 94.5153 60.6623 96.015 54.9975 96.015ZM79.8463 102.718C80.0528 102.333 80.3365 101.969 80.6923 101.643C81.529 100.872 82.6762 100.446 83.9208 100.446H90.0909C90.9813 100.446 91.7022 99.7244 91.7022 98.8348C91.7022 97.9453 90.9813 97.2235 90.0909 97.2235H83.9208C81.8647 97.2235 79.942 97.952 78.5103 99.2712C78.1612 99.591 77.8532 99.9376 77.5796 100.303C75.4798 97.5542 74.2294 94.1225 74.2294 90.4014C74.2294 81.4031 81.5298 74.0825 90.5029 74.0825C99.4769 74.0825 106.777 81.4031 106.777 90.4014C106.777 94.1091 105.535 97.5307 103.45 100.274C103.182 99.9216 102.882 99.5843 102.543 99.2721C101.107 97.9511 99.184 97.2235 97.1295 97.2235C96.2391 97.2235 95.5182 97.9453 95.5182 98.8348C95.5182 99.7244 96.2391 100.446 97.1295 100.446C98.3741 100.446 99.5222 100.872 100.361 101.643C100.707 101.963 100.986 102.318 101.191 102.692C98.3296 105.197 94.5917 106.72 90.5038 106.72C86.4293 106.72 82.7039 105.208 79.8463 102.718Z" fill="white"/>
<path d="M96.479 83.5465C96.479 81.174 94.5529 79.2429 92.1854 79.2429H88.8654C86.498 79.2429 84.5728 81.174 84.5728 83.5465V88.9545C84.5728 90.3216 85.2962 91.6141 86.461 92.3257L88.4752 93.556C89.1071 93.9429 89.8163 94.136 90.5254 94.136C91.2346 94.136 91.9437 93.9429 92.5765 93.556L94.5907 92.3257C95.7555 91.6141 96.479 90.3216 96.479 88.9545V83.5465ZM93.2563 88.9545C93.2563 89.2071 93.1229 89.4446 92.9097 89.5756L90.8955 90.8067C90.6673 90.946 90.3836 90.946 90.1553 90.8067L88.1412 89.5756C87.928 89.4446 87.7954 89.2071 87.7954 88.9537V83.5465C87.7954 82.9507 88.2755 82.4656 88.8654 82.4656H92.1854C92.7754 82.4656 93.2563 82.9507 93.2563 83.5465V88.9545Z" fill="white"/>
<path d="M17.4688 93.5569C18.1008 93.9429 18.8099 94.136 19.5191 94.136C20.2282 94.136 20.9374 93.9429 21.5702 93.5569L23.5843 92.3257C24.7492 91.6141 25.4726 90.3216 25.4726 88.9545V83.5473C25.4726 81.174 23.5466 79.2429 21.1791 79.2429H17.8591C15.4916 79.2429 13.5664 81.174 13.5664 83.5473V88.9545C13.5664 90.3225 14.2898 91.6141 15.4547 92.3257L17.4688 93.5569ZM16.7891 83.5465C16.7891 82.9507 17.2691 82.4656 17.8591 82.4656H21.1791C21.7691 82.4656 22.25 82.9507 22.25 83.5465V88.9545C22.25 89.2071 22.1165 89.4446 21.9034 89.5756L19.8892 90.8067C19.6609 90.946 19.3773 90.946 19.149 90.8067L17.1348 89.5756C16.9217 89.4446 16.7891 89.2071 16.7891 88.9537V83.5465Z" fill="white"/>
</g>
<defs>
<clipPath id="clip0">
<rect width="110" height="110" fill="white"/>
</clipPath>
</defs>
</svg>
