<svg width="32" height="32" viewBox="0 0 32 32" fill="none" xmlns="http://www.w3.org/2000/svg">
<path d="M19.2612 22.4101C19.2612 22.4101 21.761 20.9608 22.4547 20.6172C22.7107 20.4441 23.0056 20.337 23.3131 20.3054C23.6205 20.2738 23.9311 20.3187 24.217 20.436C24.8419 20.8234 30.129 24.3342 30.5727 24.6465C31.0164 24.9589 31.2351 25.8459 30.6227 26.7205C30.0102 27.5951 27.198 31.0372 25.9981 30.9997C24.7982 30.9622 19.8424 30.8498 10.4932 21.498C1.14404 12.1463 1.0378 7.19243 1.0003 6.01175C0.962807 4.83107 4.4125 1.99494 5.28742 1.38274C5.57571 1.12774 5.94981 0.991173 6.33465 1.00044C6.71948 1.00971 7.08657 1.16413 7.36224 1.43271C7.71221 1.91998 11.1869 7.18619 11.5744 7.79214C11.6918 8.07796 11.7367 8.38836 11.705 8.69572C11.6734 9.00307 11.5663 9.29784 11.3931 9.55379C11.0432 10.216 9.59954 12.746 9.59954 12.746C9.59954 12.746 10.6182 14.4889 14.0741 17.9372C17.5301 21.3856 19.2612 22.4101 19.2612 22.4101Z" stroke="white" stroke-width="2" stroke-miterlimit="10"/>
</svg>
