<svg width="110" height="110" viewBox="0 0 110 110" fill="none" xmlns="http://www.w3.org/2000/svg">
<g clip-path="url(#clip0)">
<path d="M45.1942 97.5147L44.8711 99.0933L45.1825 97.513C44.3097 97.341 43.462 97.9091 43.29 98.7819C43.1179 99.6556 43.6861 100.502 44.5597 100.674C44.5623 100.675 44.5866 100.679 44.5891 100.68C44.6915 100.7 44.7931 100.71 44.8938 100.71C45.6516 100.71 46.3272 100.173 46.474 99.4004C46.6419 98.526 46.0687 97.6817 45.1942 97.5147Z" fill="white"/>
<path d="M57.5143 98.0325L57.6746 99.6354L57.5093 98.0333C56.6239 98.124 55.9802 98.9154 56.0716 99.8007C56.1564 100.63 56.8563 101.248 57.6721 101.248C57.7275 101.248 57.7837 101.244 57.8391 101.239L57.8836 101.234C58.7648 101.131 59.39 100.336 59.2918 99.455C59.1928 98.5746 58.3955 97.9402 57.5143 98.0325Z" fill="white"/>
<path d="M51.346 98.2355C51.346 98.2355 51.3234 98.2347 51.3225 98.2347C50.4346 98.1944 49.6928 98.8843 49.6525 99.773C49.613 100.662 50.3113 101.415 51.2 101.455C51.2252 101.457 51.2495 101.457 51.2747 101.457C52.1307 101.457 52.8441 100.783 52.8827 99.9182C52.923 99.0295 52.2356 98.2758 51.346 98.2355Z" fill="white"/>
<path d="M39.2423 95.8773L39.2221 95.8698C38.3846 95.5693 37.4715 96.0074 37.171 96.845C36.8698 97.6825 37.3146 98.609 38.1521 98.9103C38.3326 98.9749 38.5163 99.0052 38.6968 99.0052C39.3573 99.0052 39.9775 98.5964 40.2133 97.9385C40.5146 97.1009 40.0798 96.1778 39.2423 95.8773Z" fill="white"/>
<path d="M63.5955 96.9045L63.9925 98.4663L63.5905 96.9062C62.7286 97.1278 62.21 98.0064 62.4315 98.8683C62.6187 99.5951 63.2733 100.078 63.9908 100.078C64.1243 100.078 64.2594 100.062 64.3945 100.026C64.4012 100.025 64.4297 100.017 64.4373 100.016C65.2925 99.7822 65.7927 98.9036 65.5644 98.0467C65.3361 97.1907 64.4541 96.6813 63.5955 96.9045Z" fill="white"/>
<path d="M69.4202 94.8728L70.0589 96.3515L69.4152 94.8745C68.5995 95.2303 68.226 96.1795 68.581 96.9952C68.8454 97.602 69.4379 97.9637 70.0597 97.9637C70.2737 97.9637 70.4928 97.9201 70.7017 97.8294C70.7085 97.8261 70.7345 97.8152 70.7412 97.8118C71.5494 97.4467 71.906 96.5001 71.5452 95.6902C71.1843 94.8795 70.2326 94.5161 69.4202 94.8728Z" fill="white"/>
<path d="M33.0876 21.4198C33.3461 21.4198 33.6087 21.3577 33.8513 21.2284C34.6368 20.8096 34.933 19.8336 34.5143 19.0481C34.0955 18.2634 33.1203 17.9655 32.3348 18.3851L32.3155 18.3952C31.5308 18.8139 31.2429 19.7849 31.6617 20.5704C31.9504 21.1126 32.511 21.4198 33.0876 21.4198Z" fill="white"/>
<path d="M14.449 39.4172C14.6882 39.5422 14.9442 39.6018 15.1968 39.6018C15.7767 39.6018 16.3373 39.2879 16.6252 38.7383L16.6537 38.682C17.0465 37.8831 16.7175 36.9171 15.9185 36.5252C15.1254 36.1341 14.167 36.4564 13.7692 37.2444C13.358 38.0316 13.6618 39.0043 14.449 39.4172Z" fill="white"/>
<path d="M12.1805 45.479C12.3517 45.5369 12.5254 45.5646 12.6975 45.5646C13.3688 45.5646 13.9957 45.1408 14.2232 44.4694L14.2442 44.4056C14.506 43.5555 14.0285 42.6533 13.1775 42.3923C12.3341 42.1321 11.4386 42.6004 11.1692 43.4397C10.8864 44.2814 11.3387 45.1945 12.1805 45.479Z" fill="white"/>
<path d="M17.6278 33.7801C17.9139 33.9882 18.2454 34.0889 18.5744 34.0889C19.0721 34.0889 19.5639 33.8581 19.8786 33.4251L19.8996 33.3966C20.4165 32.6731 20.2479 31.6694 19.5261 31.1524C18.8035 30.6346 17.7965 30.8008 17.2778 31.5225L18.5761 32.4776L17.2728 31.5293C16.7491 32.2493 16.9085 33.2572 17.6278 33.7801Z" fill="white"/>
<path d="M27.6172 24.9001C27.9554 24.9001 28.2962 24.7935 28.5874 24.572C29.3058 24.0466 29.461 23.0387 28.9357 22.3203C28.4095 21.6019 27.4015 21.4467 26.684 21.972L26.6437 22.0014C25.9354 22.5393 25.7944 23.5523 26.3324 24.2615C26.6496 24.6794 27.1305 24.9001 27.6172 24.9001Z" fill="white"/>
<path d="M10.7422 69.9156C10.9554 70.608 11.5915 71.0519 12.2797 71.0519C12.4366 71.0519 12.5969 71.0284 12.7547 70.9797C13.6007 70.7204 14.0782 69.8241 13.8247 68.9765C13.5822 68.1305 12.7052 67.6337 11.8517 67.8662C10.9932 68.1003 10.4871 68.9866 10.7213 69.8451C10.7263 69.8619 10.7372 69.8988 10.7422 69.9156Z" fill="white"/>
<path d="M22.7497 29.1466C23.1685 29.1466 23.5873 28.9846 23.9037 28.6623C24.5323 28.0329 24.5323 27.0124 23.9037 26.3838C23.2742 25.7544 22.2537 25.7544 21.6243 26.3838L21.5975 26.4107C20.9747 27.046 20.9873 28.0648 21.6226 28.6875C21.9357 28.9947 22.3427 29.1466 22.7497 29.1466Z" fill="white"/>
<path d="M12.5232 62.8904C12.4099 62.015 11.6101 61.394 10.7339 61.4981C9.85107 61.6038 9.21997 62.4053 9.32487 63.289L9.3341 63.3536C9.4516 64.1542 10.1389 64.7283 10.9253 64.7283C11.0025 64.7283 11.0814 64.7224 11.1611 64.7107C12.0381 64.5831 12.6466 63.7674 12.5232 62.8904Z" fill="white"/>
<path d="M10.4988 58.2755C10.5156 58.2755 10.5315 58.2763 10.5475 58.2763C11.4152 58.2763 12.1319 57.5856 12.1571 56.712L12.1588 56.6432C12.1588 55.7528 11.437 55.0319 10.5475 55.0319C9.66374 55.0319 8.94703 55.7419 8.93612 56.6222C8.91262 57.5101 9.61171 58.2495 10.4988 58.2755Z" fill="white"/>
<path d="M10.8521 51.8135C10.9486 51.8303 11.0434 51.8386 11.1382 51.8386C11.9036 51.8386 12.5826 51.2906 12.7227 50.511C12.7269 50.4875 12.7303 50.464 12.7336 50.4405C12.8637 49.5601 12.2553 48.741 11.3741 48.6118C10.5038 48.4825 9.68889 49.0809 9.54874 49.9487C9.396 50.8232 9.97842 51.6565 10.8521 51.8135Z" fill="white"/>
<path d="M86.8614 34.2886C87.1736 34.7417 87.6754 34.9843 88.1874 34.9843C88.5021 34.9843 88.821 34.892 89.0996 34.6998C89.8323 34.1962 90.0177 33.1925 89.5142 32.459L88.1748 33.3553L89.5092 32.4515C89.009 31.7146 88.0069 31.5224 87.2709 32.0218C86.5341 32.5211 86.3419 33.5232 86.8412 34.26L86.8614 34.2886Z" fill="white"/>
<path d="M95.0898 50.5034C94.2053 50.6024 93.5691 51.4005 93.669 52.2851L93.6774 52.3547C93.7924 53.1579 94.4822 53.7378 95.2711 53.7378C95.3466 53.7378 95.4239 53.7327 95.5011 53.7218C96.3747 53.5968 96.984 52.792 96.8707 51.9192C96.7692 51.0371 95.9685 50.4043 95.0898 50.5034Z" fill="white"/>
<path d="M92.3705 45.9565L92.3772 45.9774C92.5837 46.6799 93.2257 47.1347 93.9223 47.1347C94.0725 47.1347 94.2252 47.1138 94.3771 47.0684C95.2315 46.8175 95.7199 45.922 95.469 45.0677L95.4622 45.0467C95.2113 44.1924 94.3159 43.704 93.4615 43.9557C92.608 44.2067 92.1196 45.1021 92.3705 45.9565Z" fill="white"/>
<path d="M90.0951 39.9317C90.3762 40.5032 90.9511 40.8364 91.5486 40.8364C91.7861 40.8364 92.0278 40.7835 92.2552 40.671C93.0534 40.2783 93.3848 39.3182 92.9912 38.5192L91.531 39.1999L92.9896 38.5159C92.6119 37.7102 91.6527 37.3636 90.847 37.7413C90.0413 38.1189 89.6939 39.0782 90.0716 39.8838L90.0951 39.9317Z" fill="white"/>
<path d="M82.8027 29.2566C83.1183 29.5788 83.5354 29.74 83.9533 29.74C84.3604 29.74 84.7674 29.5872 85.0813 29.2792C85.7124 28.6615 85.7266 27.6519 85.1182 27.0158C84.5148 26.3654 83.4976 26.326 82.8447 26.9285C82.1909 27.5319 82.1506 28.5516 82.7541 29.2054L82.8027 29.2566Z" fill="white"/>
<path d="M95.6138 57.2315C94.7284 57.2088 93.9873 57.9029 93.9563 58.7883C93.916 59.6703 94.5933 60.4214 95.4761 60.4709C95.5072 60.4726 95.5366 60.4735 95.5676 60.4735C96.4161 60.4735 97.1269 59.8096 97.1748 58.9511L97.1773 58.8848C97.2025 57.996 96.5025 57.2575 95.6138 57.2315Z" fill="white"/>
<path d="M72.4986 21.3443L72.5373 21.3652C72.7773 21.4928 73.0349 21.5532 73.2884 21.5532C73.8616 21.5532 74.4163 21.2444 74.7075 20.7031C75.1271 19.9218 74.8317 18.9449 74.0529 18.5219L73.2733 19.9318L74.0479 18.5186C73.2674 18.0906 72.288 18.3767 71.86 19.1572C71.4328 19.9369 71.7182 20.9171 72.4986 21.3443Z" fill="white"/>
<path d="M77.9487 24.8783L77.9739 24.8976C78.2651 25.1183 78.6067 25.2249 78.9466 25.2249C79.4333 25.2249 79.9142 25.005 80.2314 24.5871C80.7694 23.8779 80.6301 22.8675 79.9218 22.3296L79.9109 22.322C79.2051 21.7799 78.1938 21.9125 77.6517 22.6183C77.1095 23.3241 77.2429 24.3362 77.9487 24.8783Z" fill="white"/>
<path d="M109.006 81.6255L101.441 74.0481C100.798 73.4036 99.9426 73.0486 99.0321 73.0486C98.1223 73.0486 97.2663 73.4036 96.6235 74.0481L96.4481 74.2235L95.9512 73.7267C95.3378 73.1115 94.8627 72.3956 94.5405 71.616C94.5119 71.5128 94.4742 71.4121 94.4255 71.3172C94.1788 70.624 94.0504 69.8863 94.0504 69.1285V66.9851C94.1972 67.0623 94.3575 67.1185 94.5296 67.1479C94.6219 67.1639 94.7134 67.1714 94.804 67.1714C95.5685 67.1714 96.245 66.6259 96.3868 65.8505C96.5588 64.9793 95.994 64.1325 95.1221 63.958C94.7385 63.8816 94.3592 63.9479 94.0403 64.1208C93.9413 61.8314 93.0055 59.693 91.3774 58.0615L84.0392 50.7107C82.3926 49.0616 80.203 48.1535 77.8741 48.1535C76.0715 48.1535 74.3544 48.6999 72.9059 49.7112L72.1271 48.9282V30.4986C72.1271 28.2771 71.3206 26.1337 69.8569 24.4645C68.8155 23.2778 68.2423 21.7538 68.2423 20.1727V18.8223H68.353C70.2312 18.8223 71.7595 17.2941 71.7595 15.415V4.69635C71.7595 2.81731 70.2312 1.28906 68.353 1.28906H38.2539C36.3757 1.28906 34.8475 2.81731 34.8475 4.69635V15.415C34.8475 17.2941 36.3757 18.8223 38.2539 18.8223H38.5023V19.529C38.5023 21.2662 37.8268 22.8993 36.6006 24.1271L33.352 27.3817C31.6282 29.1088 30.679 31.4041 30.679 33.8463V44.2419C30.679 45.6543 31.0181 46.9878 31.6148 48.1695C29.4781 48.2929 27.4866 49.1833 25.9608 50.7107L18.6226 58.0615C16.8988 59.7887 15.9496 62.0848 15.9496 64.5261V69.1285C15.9496 70.8657 15.2749 72.4989 14.0488 73.7267L13.5578 74.2185C13.5553 74.2201 13.5536 74.2218 13.5519 74.2235L13.3774 74.0481C12.7337 73.4036 11.8785 73.0486 10.9679 73.0486C10.0582 73.0486 9.20219 73.4036 8.55934 74.0481L0.994492 81.6255C-0.331497 82.954 -0.331497 85.1159 0.994492 86.4444L3.58521 89.0385C4.21379 89.6687 5.2343 89.6696 5.86372 89.041C6.49315 88.4116 6.49483 87.3919 5.8654 86.7616L3.27553 84.1667C3.20251 84.0937 3.20251 83.9754 3.27553 83.9024L10.8404 76.3249C10.9109 76.2544 11.0258 76.2536 11.0963 76.3249L12.4114 77.6425H12.4123L30.3693 95.6307L32.381 97.6465C32.454 97.7195 32.454 97.8378 32.381 97.9109L24.817 105.488C24.7456 105.56 24.6307 105.56 24.5602 105.488L10.4275 91.3313C9.79889 90.701 8.77838 90.7002 8.14896 91.3287C7.51869 91.9582 7.51785 92.9778 8.14644 93.6081L22.28 107.765C22.9228 108.41 23.7788 108.765 24.6894 108.765C25.5991 108.765 26.4543 108.41 27.098 107.765L34.662 100.188C35.988 98.86 35.988 96.6982 34.662 95.3697L34.5798 95.2874L35.534 94.3315C36.6485 93.2145 38.1289 92.5431 39.7025 92.4416C41.9172 92.2981 44.001 91.3531 45.5695 89.7812L52.5184 82.8172C54.5225 82.291 56.0826 80.6587 56.5064 78.6144C57.2206 78.9542 58.0187 79.1456 58.8613 79.1456C61.8918 79.1456 64.3575 76.6774 64.3575 73.6427V69.8167C65.0507 70.1331 65.8202 70.311 66.6309 70.311C69.6614 70.311 72.1262 67.8428 72.1262 64.8081V53.4969L77.0827 58.4778C77.3975 58.7942 77.8112 58.952 78.2249 58.952C78.6362 58.952 79.0474 58.7959 79.3621 58.4828C79.9924 57.8551 79.9949 56.8354 79.3671 56.2043L75.2348 52.0518C76.0345 51.6112 76.9359 51.3762 77.8741 51.3762C79.3411 51.3762 80.7208 51.9486 81.7581 52.9884L89.0964 60.3384C90.2126 61.4571 90.8277 62.9442 90.8277 64.5261V69.1285C90.8277 71.7259 91.8373 74.1673 93.6702 76.0035L94.1704 76.5045L91.8331 78.846L77.6971 93.0064L76.909 92.2167C76.9006 92.2091 76.8931 92.2007 76.8847 92.1932L76.7462 92.0538C75.0778 90.3829 72.8614 89.3784 70.5065 89.2256C69.0739 89.1325 67.7261 88.5215 66.7065 87.501L61.4117 82.2348C60.7806 81.6071 59.7601 81.6096 59.1324 82.2407C58.5055 82.8718 58.508 83.8923 59.1391 84.5192L64.4305 89.7812C65.999 91.3531 68.0828 92.2981 70.2984 92.4416C71.8711 92.5431 73.3515 93.2145 74.466 94.3307L74.5441 94.4087C74.586 94.4566 74.6305 94.501 74.6775 94.543L75.4202 95.2866L75.338 95.3697C74.012 96.6982 74.012 98.8592 75.338 100.188L82.902 107.765C83.5457 108.41 84.4009 108.765 85.3114 108.765C86.2212 108.765 87.0772 108.41 87.7209 107.765L109.006 86.4436C110.331 85.1151 110.331 82.954 109.006 81.6255ZM95.1305 65.6029L95.1003 65.5978L94.8065 65.5383L95.1305 65.6029ZM43.2885 87.5044C42.2739 88.5215 40.9261 89.1325 39.4943 89.2256C37.1386 89.3784 34.9222 90.3829 33.2538 92.0538L32.3029 93.0064L31.4469 92.1487C31.436 92.1378 31.4251 92.126 31.4142 92.1159L15.8296 76.5045L16.3298 76.0035C18.1627 74.1673 19.1723 71.7259 19.1723 69.1285V64.5261C19.1723 62.9442 19.7866 61.4571 20.9036 60.3384L28.2419 52.9884C29.2792 51.9486 30.6589 51.3762 32.1259 51.3762C33.0666 51.3762 33.9713 51.6129 34.7736 52.0568L30.6345 56.2026C30.006 56.8321 30.0068 57.8526 30.6362 58.4811C30.9509 58.795 31.363 58.952 31.7751 58.952C32.188 58.952 32.6009 58.7942 32.9156 58.4795L37.8595 53.5263V73.6427C37.8595 76.6774 40.3252 79.1456 43.3556 79.1456C44.21 79.1456 45.019 78.9492 45.7407 78.6001C46.068 80.1972 47.0885 81.5433 48.4716 82.3103L43.2885 87.5044ZM68.9044 64.809C68.9044 66.0661 67.8839 67.0892 66.6309 67.0892C65.3771 67.0892 64.3575 66.0661 64.3575 64.809V46.8351C64.3575 45.9455 63.6366 45.2238 62.7461 45.2238C61.8557 45.2238 61.1348 45.9455 61.1348 46.8351V73.6436C61.1348 74.9007 60.1151 75.9229 58.8613 75.9229C57.7359 75.9229 56.8018 75.0988 56.6214 74.0204V46.8166C56.6214 45.9262 55.9005 45.2053 55.0101 45.2053C54.7239 45.2053 54.4545 45.2808 54.2212 45.4118C53.7118 45.6828 53.3652 46.2183 53.3652 46.8351V73.6427C53.3652 73.8475 53.3769 74.0481 53.3987 74.247V77.494C53.3987 78.7512 52.3791 79.7742 51.1253 79.7742C49.8723 79.7742 48.8526 78.7512 48.8526 77.494V46.7973C48.8526 45.9077 48.1309 45.186 47.2413 45.186C46.3509 45.186 45.6291 45.9077 45.6291 46.7973V73.6427C45.6291 74.8999 44.6095 75.9229 43.3565 75.9229C42.1027 75.9229 41.083 74.8999 41.083 73.6427V43.6695C41.083 42.7791 40.3613 42.0573 39.4717 42.0573C38.5812 42.0573 37.8603 42.7791 37.8603 43.6695V49.2135C37.7252 49.2571 37.5943 49.3184 37.4726 49.399C35.3888 48.616 33.9017 46.6001 33.9017 44.2419V33.8463C33.9017 32.2643 34.5168 30.7772 35.633 29.6585L38.8817 26.404C40.7154 24.5677 41.725 22.1264 41.725 19.529V18.8223H44.9644C45.8549 18.8223 46.5758 18.1006 46.5758 17.211C46.5758 16.3206 45.8549 15.5997 44.9644 15.5997H38.2539C38.1524 15.5997 38.0701 15.5166 38.0701 15.415V4.69635C38.0701 4.5948 38.1524 4.51172 38.2539 4.51172H68.3522C68.4546 4.51172 68.5368 4.5948 68.5368 4.69635V15.415C68.5368 15.5174 68.4546 15.5997 68.3522 15.5997H52.5293C51.6397 15.5997 50.918 16.3206 50.918 17.211C50.918 18.1006 51.6397 18.8223 52.5293 18.8223H65.0196V20.1727C65.0196 22.5359 65.8765 24.8145 67.4332 26.5903C68.3816 27.6712 68.9044 29.0593 68.9044 30.4986V64.809ZM106.724 84.1667L85.4398 105.488C85.4046 105.524 85.3618 105.542 85.3114 105.542C85.2619 105.542 85.2191 105.524 85.183 105.488L77.619 97.9109C77.546 97.8378 77.546 97.7195 77.619 97.6465L78.8367 96.4262L78.8376 96.4254L91.1936 84.0484L98.9037 76.3249C98.9742 76.2536 99.0891 76.2536 99.1596 76.3249L106.724 83.9024C106.797 83.9754 106.797 84.0937 106.724 84.1667Z" fill="white"/>
<path d="M43.3555 8.33704C42.4097 8.33704 41.6401 9.10829 41.6401 10.0558C41.6401 11.0041 42.4097 11.7745 43.3555 11.7745C44.3022 11.7745 45.0718 11.0041 45.0718 10.0558C45.0718 9.10829 44.3022 8.33704 43.3555 8.33704Z" fill="white"/>
<path d="M99.559 81.7883C98.6124 81.7883 97.8428 82.5596 97.8428 83.5071C97.8428 84.4546 98.6124 85.2258 99.559 85.2258C100.505 85.2258 101.274 84.4546 101.274 83.5071C101.274 82.5596 100.505 81.7883 99.559 81.7883Z" fill="white"/>
<path d="M26.852 98.2271C26.852 97.2796 26.0825 96.5083 25.1366 96.5083C24.19 96.5083 23.4204 97.2796 23.4204 98.2271C23.4204 99.1745 24.19 99.9458 25.1366 99.9458C26.0825 99.9458 26.852 99.1745 26.852 98.2271Z" fill="white"/>
</g>
<defs>
<clipPath id="clip0">
<rect width="110" height="110" fill="white"/>
</clipPath>
</defs>
</svg>
