<svg width="161" height="150" viewBox="0 0 161 150" fill="none" xmlns="http://www.w3.org/2000/svg">
<path d="M60.6931 36.6257L57.1641 49.5973L60.407 54.2709L64.2539 50.6464L60.6931 36.6257Z" fill="#00c6ff"/>
<path d="M80.5954 83.0754L77.0664 96.0788L80.3093 100.752L84.1245 97.0962L80.5954 83.0754Z" fill="#2785e6"/>
<path d="M119.86 84.22L116.299 97.1916L119.574 101.897L123.389 98.2407L119.86 84.22Z" fill="#1edfc4"/>
<path d="M21.238 128.54L17.709 141.511L20.9519 146.217L24.7989 142.56L21.238 128.54Z" fill="#1edfc4"/>
<path d="M100.212 128.54L96.6826 141.511L99.9255 146.217L103.772 142.56L100.212 128.54Z" fill="#2785e6"/>
<path d="M160.468 137.982C160.468 138.173 160.468 137.791 160.468 137.982C160.468 137.76 160.468 137.953 160.436 137.41V137.378C160.373 131.02 155.468 125.615 149.269 124.756H149.205C149.11 124.724 149.046 124.724 148.951 124.693C148.76 124.661 148.506 124.597 148.283 124.534C146.121 124.057 144.722 123.612 144.722 121.895V118.588L145.136 118.366C145.676 118.08 146.185 117.762 146.725 117.317L147.393 116.808L147.87 117.476C148.633 118.525 149.777 119.32 151.113 119.669C151.621 119.797 152.13 119.86 152.702 119.86C153.815 119.86 154.928 119.542 155.882 118.906C157.471 117.857 158.425 115.981 158.425 113.883C158.425 112.23 157.758 110.735 156.677 109.877L156.422 109.686L156.39 109.368C156.072 107.079 154.228 105.267 151.939 104.981L151.24 104.886V103.55C151.24 97.9546 147.266 93.0585 141.766 91.9457L141.066 91.8186L141.5 93C141.5 92.9364 141.13 91.0237 141.13 90.992C140.367 86.4455 137.187 82.6939 132.8 81.2314L129.271 80.0233C128.603 79.769 128.031 79.4192 127.586 78.9741C126.823 78.1793 126.41 77.0983 126.41 76.0174V71.9479L127.84 71.0894C129.811 69.8813 131.051 67.6876 131.051 65.3667V53.6032C131.051 49.5019 127.713 46.1636 123.612 46.1636H121.418L121.386 45.4006C121.132 39.1691 116.522 34.0186 110.418 33.192H110.354C110.259 33.1602 110.195 33.1602 110.1 33.1284C109.877 33.0649 109.655 33.0331 109.432 32.9695C107.27 32.4926 105.871 32.0475 105.871 30.3306V26.9288L106.284 26.7062C106.825 26.4201 107.334 26.1022 107.874 25.6571L108.542 25.1484L109.019 25.816C109.782 26.8652 110.926 27.66 112.262 28.0098C112.77 28.1369 113.279 28.2005 113.851 28.2005C114.964 28.2005 116.077 27.8826 117.031 27.2467C118.62 26.1975 119.574 24.3217 119.574 22.2234C119.574 20.5702 118.906 19.0759 117.825 18.2175L117.571 18.0267L117.539 17.7088C117.221 15.4197 115.377 13.6075 113.088 13.3213L112.389 13.2259V11.8906C112.389 5.34125 107.079 0.0317933 100.53 0.0317933C92.5498 0.0317933 88.2259 6.13607 88.2259 11.8906V16.3417C88.2259 20.9517 90.6104 24.7986 94.7435 26.897L95.1886 27.1195V30.2353C95.1886 31.9521 93.758 32.3972 91.5642 32.8741C91.2463 32.9377 90.9919 33.0013 90.7376 33.0649L90.6104 33.0967C86.6045 33.6689 83.0754 36.117 81.1679 39.646L79.6736 42.3802V39.4553C78.1475 37.3887 76.0492 35.8627 73.6329 35.0678L70.1039 33.8597C69.5952 33.7007 69.0865 33.4146 68.6414 33.0013L68.546 32.9059L68.2916 32.6515C67.624 31.8885 67.2425 30.9029 67.2425 29.8538V25.7842L68.6732 24.9258C70.6443 23.7177 71.8843 21.5239 71.8843 19.2031V7.43959C71.8843 3.33828 68.546 0 64.4447 0H57.1958C53.0945 0 49.7563 3.33828 49.7563 7.43959V19.2031C49.7563 21.5239 50.9962 23.6859 52.9674 24.9258L54.3981 25.7842V29.8538C54.3981 30.9983 53.9212 32.1429 53.0627 32.9377C52.6176 33.351 52.0772 33.6689 51.5367 33.8597L48.0076 35.036C43.493 36.5621 40.2819 40.4727 39.646 45.2098L39.5507 45.8139L38.9466 45.9093C33.1602 46.7359 28.8046 51.791 28.8046 57.6409V58.9763L28.1051 59.0716C25.816 59.3578 23.972 61.1382 23.6541 63.4591L23.6223 63.777L23.368 63.9678C22.2552 64.8262 21.6193 66.3205 21.6193 67.9737C21.6193 70.0721 22.5731 71.9479 24.1628 72.997C25.1166 73.6011 26.2293 73.9508 27.3421 73.9508C27.9144 73.9508 28.4549 73.8872 28.9635 73.7601C30.2989 73.4103 31.4434 72.6155 32.2064 71.5663L32.6833 70.8987L33.351 71.4074C33.8915 71.8207 34.432 72.1704 34.9407 72.4566L35.354 72.6791V75.9856C35.354 77.7024 33.9233 78.1475 31.7613 78.6244C31.5706 78.688 31.3162 78.7516 31.1255 78.7834C31.0301 78.8152 30.9347 78.8152 30.8711 78.847H30.8075C24.7986 79.6736 20.1886 84.6969 19.8389 90.833L19.8071 91.596H17.8042C13.7028 91.596 10.3646 94.9343 10.3646 99.0356V110.767C10.3646 113.088 11.6045 115.25 13.5757 116.49L15.0064 117.348V121.418C15.0064 122.563 14.5295 123.707 13.671 124.502C13.2259 124.915 12.6855 125.233 12.145 125.424L8.61594 126.6C3.43366 128.349 0 133.118 0 138.491V148.347C0 149.205 0.731242 149.936 1.58966 149.936C2.44807 149.936 3.17931 149.205 3.17931 148.347V138.491C3.17931 134.453 5.72276 130.924 9.50615 129.652L13.0352 128.444C13.6393 128.222 14.1797 127.967 14.6566 127.681L14.9746 127.49L15.3243 127.586C16.2781 127.872 17.2319 128.095 18.1221 128.19L19.0441 128.317L15.2289 141.702C15.0699 142.242 15.1971 142.783 15.5786 143.196L19.9025 148.029C20.1886 148.347 20.602 148.538 21.0788 148.569H21.1106C21.524 148.569 21.9373 148.41 22.2234 148.092L27.0242 143.26C27.4375 142.847 27.5964 142.242 27.4057 141.702L23.209 128.285L24.131 128.158C25.053 127.999 26.0068 127.777 27.056 127.459L27.4375 127.331L27.7554 127.554C28.3277 127.936 28.9635 128.253 29.6312 128.508L33.1602 129.684C36.9754 130.988 39.5189 134.517 39.5189 138.523V148.379C39.5189 149.237 40.2501 149.968 41.1085 149.968C41.9351 149.968 42.6664 149.301 42.6982 148.442L42.73 148.315C42.7618 148.156 42.7936 148.029 42.7936 147.933V136.965C42.7936 132.259 46.1318 128.285 50.7418 127.522L51.4413 127.395L51.632 128.095C52.6812 132.132 56.3374 134.93 60.5023 134.93C64.699 134.93 68.3234 132.132 69.3726 128.095L69.5634 127.395L70.2946 127.522C74.6185 128.285 79.1013 132.005 79.1013 136.965V137.601C79.1013 137.728 79.1013 137.823 79.1331 137.95L79.1649 138.078V138.205C79.1649 138.3 79.1331 138.396 79.1331 138.523V148.379C79.1331 149.237 79.8643 149.968 80.7228 149.968C81.5812 149.968 82.3124 149.237 82.3124 148.379V138.523C82.3124 134.485 84.8559 130.924 88.671 129.684L92.2001 128.476C92.8042 128.253 93.3446 127.999 93.7897 127.713L94.1077 127.522L94.4574 127.618C95.4112 127.904 96.365 128.126 97.2552 128.222L98.1772 128.349L94.3938 141.734C94.2348 142.274 94.362 142.815 94.7435 143.228L99.0674 148.061C99.3535 148.379 99.7668 148.569 100.244 148.601H100.276C100.689 148.601 101.102 148.442 101.388 148.124L106.189 143.292C106.602 142.878 106.761 142.274 106.571 141.734L102.374 128.317L103.296 128.19C104.218 128.031 105.172 127.808 106.221 127.49L106.602 127.363L106.92 127.586C107.493 127.967 108.128 128.285 108.796 128.54L112.325 129.716C115.727 130.861 118.175 133.913 118.588 137.474V137.632V138.173C118.588 138.3 118.588 138.427 118.62 138.554L118.652 138.745V148.41C118.652 149.269 119.383 150 120.242 150C121.1 150 121.831 149.269 121.831 148.41V138.554C121.831 138.491 121.831 138.396 121.831 138.332V138.205V138.141V137.537C121.831 132.864 125.17 128.921 129.78 128.095L130.511 127.967L130.702 128.667C131.719 132.705 135.375 135.502 139.572 135.502C143.737 135.502 147.393 132.673 148.442 128.667L148.633 127.967L149.364 128.095C153.974 128.858 157.312 132.832 157.312 137.537V148.379C157.312 149.237 158.044 149.968 158.902 149.968C159.76 149.968 160.492 149.237 160.492 148.379V138.554L160.468 137.982ZM148.538 108.001C148.538 113.056 144.404 117.189 139.349 117.189H138.904C133.849 117.189 129.716 113.056 129.716 108.001V106.793L129.811 106.602C131.783 103.264 135.248 101.293 139.127 101.293C143.006 101.293 146.471 103.296 148.442 106.602L148.538 106.793V108.001ZM149.555 113.947C150.54 112.293 151.049 110.545 151.176 108.478L151.24 107.334L152.289 107.811C152.798 108.033 153.243 108.51 153.497 109.082C153.879 109.941 153.752 110.894 153.116 111.562C152.766 111.944 152.671 112.484 152.893 112.993C153.116 113.501 153.561 113.788 154.101 113.788C154.356 113.788 154.451 113.756 154.451 113.756L155.914 113.025L155.564 114.646C155.373 115.568 154.928 116.267 154.26 116.713C153.783 117.031 153.179 117.189 152.543 117.189C152.003 117.189 151.494 117.062 151.049 116.84C150.095 116.363 149.555 115.568 149.396 114.487L149.364 114.233L149.555 113.947ZM139.318 94.362C143.006 94.362 146.312 96.524 147.774 99.894L148.855 102.374L146.63 100.88C142.084 97.8275 136.202 97.8275 131.655 100.88L129.398 102.374L130.479 99.894C131.942 96.524 135.248 94.362 138.904 94.362H139.318ZM126.155 68.3234L121.768 70.9941C121.227 71.3438 120.591 71.5345 119.955 71.5345C119.32 71.5345 118.684 71.3438 118.143 70.9941L113.756 68.3234C112.707 67.6876 112.071 66.543 112.071 65.3349V59.2942L116.999 56.7189L127.808 60.2162V64.858L127.84 65.3031C127.84 66.5112 127.204 67.6558 126.155 68.3234ZM119.479 79.7372C118.525 79.7372 117.635 79.6418 116.903 79.5464L115.918 79.4192L116.236 78.4972C116.522 77.7024 116.681 76.844 116.681 75.9856V73.919L117.73 74.3006C118.398 74.5549 119.129 74.6821 119.924 74.6821C120.719 74.6821 121.418 74.5549 122.117 74.3006L123.167 73.919V75.9856C123.167 76.7486 123.294 77.5434 123.548 78.4019L123.802 79.2285L122.944 79.4192C121.863 79.6418 120.846 79.7372 119.86 79.769C119.733 79.7372 119.606 79.7372 119.479 79.7372ZM122.658 96.2378L119.765 99.1946L117.126 96.2696L119.765 86.9542L122.658 96.2378ZM123.58 49.2794C125.933 49.2794 127.84 51.1869 127.84 53.5396V56.8461L117.348 53.4443C116.967 53.3171 116.49 53.3489 116.109 53.5714L112.071 55.6698V53.5396C112.071 51.1869 113.978 49.2794 116.331 49.2794H123.58ZM110.672 22.3188C111.657 20.6655 112.166 18.9169 112.293 16.8504L112.357 15.6104L113.47 16.2145C114.01 16.5006 114.392 16.9457 114.614 17.4544C114.996 18.3128 114.869 19.2666 114.233 19.9343C113.883 20.3158 113.788 20.8563 114.01 21.365C114.233 21.8737 114.678 22.1598 115.218 22.1598C115.473 22.1598 115.568 22.128 115.568 22.128L117.031 21.3968L116.681 23.0182C116.49 23.9402 116.045 24.6397 115.377 25.0848C114.9 25.4027 114.296 25.5617 113.66 25.5617C113.12 25.5617 112.611 25.4345 112.166 25.212C111.212 24.7351 110.672 23.9402 110.513 22.8593L110.481 22.6049L110.672 22.3188ZM91.5642 8.26621C93.0267 4.89614 96.3332 2.73421 99.9894 2.73421H100.435C104.091 2.73421 107.429 4.89614 108.891 8.26621L109.972 10.7461L107.715 9.2518C103.169 6.19966 97.287 6.19966 92.7406 9.2518L90.4833 10.7461L91.5642 8.26621ZM90.833 16.3735V15.1653L90.9284 14.9746C92.8995 11.6363 96.365 9.66511 100.244 9.66511C104.123 9.66511 107.588 11.6681 109.559 14.9746L109.655 15.1653V16.3735C109.655 21.4286 105.521 25.5617 100.466 25.5617H100.021C94.9661 25.5617 90.833 21.4286 90.833 16.3735ZM95.0615 34.7499C97.0008 33.8279 97.9864 32.3336 97.9864 30.2671V28.0415L98.8766 28.1369C99.9894 28.2641 101.07 28.2641 102.088 28.1051L103.01 27.978V30.2671C102.978 32.3336 103.964 33.8279 105.967 34.7499L106.571 35.036L106.38 35.7037C106.253 36.1806 106.062 36.5939 105.935 36.9754C105.871 37.1344 105.808 37.2933 105.776 37.4205L105.744 37.5159C104.695 39.3599 102.66 40.5362 100.593 40.5362C97.9864 40.5362 95.6655 38.7876 94.9343 36.3078C94.9025 36.2124 94.8707 36.1488 94.8389 36.0534C94.7753 35.9262 94.7435 35.7991 94.7117 35.6401L94.521 35.0042L95.0615 34.7499ZM84.8559 49.2794V49.3747C86.8588 49.7563 88.3213 51.5049 88.3213 53.5714V56.8461L77.8296 53.4443C77.4481 53.3171 76.9712 53.3489 76.5897 53.5714L72.5519 55.6698V53.5396C72.5519 51.1869 74.4595 49.2794 76.8122 49.2794H84.8559ZM79.8643 79.7372C79.0377 79.7372 78.1793 79.6736 77.3527 79.5146L76.4307 79.3557L76.7486 78.4655C77.0348 77.6706 77.1937 76.8122 77.1937 75.9538V73.8872L78.2429 74.2688C78.9106 74.5231 79.6418 74.6503 80.4366 74.6503C81.2315 74.6503 81.9309 74.5231 82.6303 74.2688L83.6795 73.8872V75.9538C83.6795 76.7168 83.8067 77.5116 84.061 78.3701L84.3154 79.1967L83.457 79.3875C82.376 79.61 81.3586 79.7054 80.373 79.7372C80.1823 79.7372 80.0233 79.7372 79.8643 79.7372ZM83.2026 96.2378L80.2777 99.1628L77.6706 96.2378L80.2777 86.9224L83.2026 96.2378ZM82.2488 70.9941C81.7084 71.3438 81.0725 71.5345 80.4366 71.5345C79.8008 71.5345 79.1649 71.3438 78.6244 70.9941L74.237 68.3234C73.1878 67.6876 72.5519 66.543 72.5519 65.3349V59.2942L77.4799 56.7189L88.2895 60.2162V64.858L88.3213 65.3031C88.3213 66.5112 87.6855 67.6558 86.6363 68.3234L82.2488 70.9941ZM52.872 7.50318C52.872 5.15049 54.7796 3.2429 57.1323 3.2429H64.3811C66.7338 3.2429 68.6414 5.15049 68.6414 7.50318V10.7779L58.1496 7.37601C57.7681 7.24883 57.2912 7.28063 56.9097 7.50318L52.872 9.60153V7.50318ZM52.872 19.2666V13.2259L57.7999 10.6507L68.6096 14.1479V19.2666C68.6096 20.443 67.9737 21.5875 66.9245 22.2552L62.5689 24.9258C62.0284 25.2755 61.3925 25.4663 60.7567 25.4663C60.1208 25.4663 59.4849 25.2755 58.9445 24.9258L54.557 22.2552C53.5078 21.6511 52.872 20.5066 52.872 19.2666ZM60.1844 33.6689C59.3578 33.6689 58.4994 33.6053 57.6727 33.4464L56.7507 33.2874L57.0687 32.3972C57.3548 31.6024 57.5138 30.744 57.5138 29.8855V27.819L58.563 28.2005C59.2306 28.4549 59.9619 28.582 60.7567 28.582C61.5515 28.582 62.251 28.4549 62.9504 28.2005L63.9996 27.819V29.8855C63.9996 30.6804 64.1267 31.4752 64.4129 32.27L64.699 33.1284L63.8088 33.3192C62.6961 33.5418 61.6469 33.6371 60.6931 33.6371C60.5023 33.6689 60.3434 33.6689 60.1844 33.6689ZM63.4591 50.1696L60.5659 53.1263L57.9271 50.2014L60.5659 40.886L63.4591 50.1696ZM42.7936 45.1462C43.4294 41.8716 45.7821 39.1691 48.9296 38.0882L52.4587 36.9118C53.0309 36.7211 53.5714 36.4349 54.0483 36.1488L54.3663 35.958L54.716 36.0534C55.6698 36.3395 56.6236 36.5621 57.5138 36.6575L58.4358 36.7847L54.6524 50.1696C54.4934 50.71 54.6206 51.2505 55.0021 51.6638L59.326 56.4964C59.6121 56.8143 60.0254 57.0051 60.5023 57.0369H60.5341C60.9474 57.0369 61.3607 56.8779 61.6469 56.56L66.4476 51.7274C66.861 51.3141 67.0199 50.71 66.8292 50.1696L62.6325 36.7529L63.5545 36.6257C64.4765 36.4667 65.4303 36.2442 66.4794 35.9262L66.861 35.7991L67.1789 36.0216C67.7512 36.4031 68.3552 36.7211 69.0547 36.9754L72.5837 38.1518C75.7312 39.2009 78.0839 41.9033 78.7834 45.2098L78.9741 46.1636H76.8758C72.7745 46.1636 69.4362 49.5019 69.4362 53.6032V65.3667C69.4362 67.6876 70.6761 69.8495 72.6473 71.0894L74.078 71.9479V76.0174C74.078 77.1619 73.6011 78.3065 72.7427 79.1013C72.2976 79.5146 71.7571 79.8326 71.2166 80.0233L67.6876 81.1997C65.1441 82.0581 62.9822 83.6477 61.4561 85.8415L60.6931 86.9224L60.089 85.7779C58.1814 82.1217 54.6206 79.5782 50.5511 79.0059L50.4239 78.9741C50.1696 78.8788 49.9152 78.8152 49.5973 78.7834C47.4036 78.2747 45.9729 77.8296 45.9729 76.1128V72.997L46.418 72.7745C50.5511 70.6761 52.9356 66.8292 52.9356 62.2192V57.7681C52.9356 53.0945 49.947 47.4671 43.3976 46.1636L42.6346 46.0047L42.7936 45.1462ZM68.1963 100.339C63.6498 97.287 57.7681 97.287 53.2217 100.339L50.9962 101.833L52.0454 99.3853C53.476 96.0153 56.7825 93.8533 60.5023 93.8533H60.9474C64.6036 93.8533 67.9101 96.0153 69.3726 99.3853L70.4536 101.865L68.1963 100.339ZM70.1039 106.253V107.461C70.1039 112.516 65.9707 116.649 60.9156 116.649H60.4705C55.4154 116.649 51.2823 112.516 51.2823 107.461V106.253L51.3777 106.062C53.3489 102.724 56.8143 100.752 60.6931 100.752C64.5719 100.752 68.0373 102.755 70.0085 106.062L70.1039 106.253ZM30.4896 68.5778C30.3624 69.6588 29.7902 70.4536 28.8364 70.9305C28.3913 71.153 27.8508 71.2802 27.3421 71.2802C26.7062 71.2802 26.1022 71.0894 25.6253 70.7715C24.9894 70.3582 24.5443 69.627 24.3217 68.705L23.972 67.0835L25.4345 67.8148C25.4345 67.8148 25.5299 67.8465 25.7842 67.8465C26.3247 67.8465 26.7698 67.5604 26.9924 67.0517C27.2149 66.5748 27.1513 66.0025 26.7698 65.621C26.1657 64.9534 26.0068 64.0314 26.4201 63.1412C26.6744 62.6325 27.056 62.2192 27.5329 61.933L28.6456 61.2654L28.7092 62.5689C28.8364 64.6354 29.3451 66.3841 30.3306 68.0373L30.4578 68.2599L30.4896 68.5778ZM32.2064 54.0165C33.6689 50.6465 36.9754 48.4845 40.6634 48.4845H41.1085C44.7647 48.4845 48.0712 50.6465 49.5337 54.0165L50.6147 56.4964L48.3574 55.0021C43.8109 51.95 37.9292 51.95 33.3828 55.0021L31.1255 56.4964L32.2064 54.0165ZM31.4434 62.1238V60.9156L31.5388 60.7249C33.51 57.3866 36.9754 55.4154 40.8542 55.4154C44.7329 55.4154 48.1984 57.4184 50.1696 60.7249L50.2649 60.9156V62.1238C50.2649 67.1789 46.1318 71.312 41.0767 71.312H40.6316C35.5765 71.312 31.4434 67.1789 31.4434 62.1238ZM35.1632 80.5002C37.1344 79.5782 38.12 78.0521 38.12 76.0174V73.7283L39.042 73.8554C40.0593 74.0144 41.1085 74.0144 42.2531 73.8872L43.1433 73.7919V76.0174C43.1433 78.0839 44.1289 79.61 46.0682 80.5002L46.6723 80.7863L46.4816 81.4222C46.4498 81.5494 46.3862 81.6766 46.3544 81.8037C46.3226 81.8991 46.2908 81.9627 46.259 82.0581C45.5278 84.5379 43.2069 86.2866 40.5998 86.2866C38.5333 86.2866 36.4985 85.1102 35.4493 83.2662L35.3858 83.1708C35.3222 83.0119 35.2586 82.8529 35.195 82.6939C35.036 82.3124 34.8771 81.8673 34.7499 81.4222L34.5591 80.7546L35.1632 80.5002ZM13.4485 99.0038C13.4485 96.6511 15.3561 94.7435 17.7088 94.7435H24.9576C27.3103 94.7435 29.2179 96.6511 29.2179 99.0038V102.31L18.7262 98.9084C18.3446 98.7813 17.8677 98.8131 17.4862 99.0356L13.4485 101.134V99.0038ZM24.0992 141.734L21.1742 144.659L18.5672 141.734L21.1742 132.418L24.0992 141.734ZM24.29 124.915C23.1772 125.106 22.1916 125.201 21.2696 125.233C21.1106 125.233 20.9517 125.233 20.7609 125.233C19.9343 125.233 19.0759 125.17 18.2493 125.011L17.3273 124.852L17.6452 123.961C17.9313 123.167 18.0903 122.308 18.0903 121.45V119.383L19.1395 119.765C19.8071 120.019 20.5384 120.146 21.3332 120.146C22.128 120.146 22.8275 120.019 23.5269 119.765L24.5761 119.383V121.45C24.5761 122.213 24.7033 123.008 24.9576 123.866L25.212 124.724L24.29 124.915ZM27.5329 113.788L23.1454 116.458C22.6049 116.808 21.9691 116.967 21.3332 116.967C20.6973 116.967 20.0615 116.776 19.521 116.426L15.1335 113.756C14.0844 113.12 13.4485 111.975 13.4485 110.767V104.727L18.3764 102.151L18.5036 102.183L29.1861 105.649V109.972H29.2179V110.767C29.2179 111.975 28.582 113.12 27.5329 113.788ZM51.5367 123.93C51.3141 123.993 51.0916 124.057 50.9008 124.089C50.8054 124.12 50.71 124.12 50.6465 124.152H50.5829C46.6723 124.693 43.2069 127.077 41.2357 130.543L40.6634 131.56L39.9322 130.638C38.4379 128.794 36.4349 127.395 34.1776 126.664L30.6486 125.487C29.9809 125.265 29.4086 124.883 28.9635 124.375C28.2323 123.612 27.7872 122.531 27.7872 121.45V117.38L29.2179 116.522C31.1891 115.314 32.429 113.12 32.429 110.799V99.0356C32.429 94.9343 29.0907 91.596 24.9894 91.596H22.8275L22.8911 90.7376C23.2726 86.382 26.5155 82.8529 30.8075 82.1217L31.507 81.9945L31.6978 82.6939C32.7469 86.7317 36.4031 89.5295 40.568 89.5295C44.7647 89.5295 48.3891 86.7317 49.4383 82.6939L49.6291 81.9945L50.3603 82.1217C54.6206 82.8529 57.8635 86.3501 58.245 90.6422L58.3086 91.3099L57.6409 91.4688C52.3315 92.7724 48.6117 97.5095 48.6117 102.978V104.313L47.9123 104.409C45.6231 104.695 43.7791 106.475 43.4612 108.796L43.4294 109.114L43.1751 109.305C42.0623 110.163 41.4265 111.657 41.4265 113.311C41.4265 115.409 42.3802 117.285 43.9699 118.334C44.9237 118.938 46.0365 119.288 47.1492 119.288C47.7215 119.288 48.262 119.224 48.7707 119.097C50.106 118.747 51.2505 117.953 52.0136 116.903L52.4905 116.236L53.1581 116.744C53.6986 117.158 54.2391 117.507 54.7478 117.794L55.1611 118.016V121.291C55.1293 123.008 53.6986 123.453 51.5367 123.93ZM46.6723 111.022C46.0682 110.354 45.9093 109.432 46.3226 108.542C46.6087 107.969 46.9903 107.588 47.4671 107.302L48.5799 106.698L48.6435 107.938C48.7707 110.004 49.2794 111.753 50.2649 113.406L50.3921 113.629L50.3603 113.883C50.2331 114.964 49.6609 115.759 48.7071 116.236C48.262 116.458 47.7215 116.585 47.2128 116.585C46.5769 116.585 45.9729 116.395 45.496 116.077C44.8601 115.663 44.415 114.932 44.1925 114.01L43.8427 112.389L45.3052 113.12C45.3052 113.12 45.4006 113.152 45.6549 113.152C46.1954 113.152 46.6405 112.866 46.8631 112.357C47.0856 111.975 47.022 111.403 46.6723 111.022ZM66.2569 126.791C66.2251 126.918 66.1615 127.045 66.1297 127.173C66.0979 127.268 66.0661 127.332 66.0343 127.427C65.3031 129.907 62.9822 131.655 60.3752 131.655C58.3086 131.655 56.2738 130.479 55.2247 128.635L55.1611 128.54C55.0975 128.381 55.0339 128.222 54.9703 128.063C54.8114 127.681 54.6524 127.236 54.5252 126.791L54.3345 126.123L54.9385 125.837C56.9097 124.915 57.8953 123.389 57.8953 121.354V119.065L58.8173 119.192C59.8347 119.351 60.8839 119.351 62.0284 119.224L62.9186 119.129V121.354C62.9186 123.421 63.9042 124.947 65.8436 125.837L66.4476 126.123L66.2569 126.791ZM93.9487 121.386C93.9487 122.531 93.4718 123.675 92.6134 124.47C92.1683 124.883 91.6278 125.201 91.0873 125.392L87.5583 126.568C85.2056 127.363 83.1708 128.794 81.6766 130.733L80.9771 131.624L80.373 130.67C78.2111 127.268 74.3641 124.788 70.39 124.248L70.2628 124.216C70.0085 124.12 69.7541 124.057 69.4362 124.025C67.2425 123.516 65.8118 123.071 65.8118 121.354V118.239L66.2569 118.016C70.39 115.918 72.7745 112.071 72.7745 107.461V103.01C72.7745 98.3362 69.8177 92.7088 63.3001 91.437L62.4735 91.2781L62.6961 90.4515C63.5227 87.4947 65.7482 85.1102 68.6732 84.0928L72.2022 82.9165C72.7745 82.7257 73.315 82.4396 73.7919 82.1535L74.1098 81.9627L74.4595 82.0581C75.4133 82.3442 76.3671 82.5668 77.2573 82.6621L78.1793 82.7893L74.3641 96.2696C74.2052 96.8101 74.3323 97.3506 74.7139 97.7639L79.0377 102.596C79.3239 102.914 79.7372 103.105 80.2141 103.137H80.2459C80.6592 103.137 81.0725 102.978 81.3586 102.66L86.1594 97.8275C86.5727 97.4142 86.7317 96.8101 86.5409 96.2696L82.3442 82.8529L83.2662 82.7257C84.1882 82.5668 85.142 82.3442 86.1912 82.0263L86.5727 81.8991L86.8906 82.1217C87.4629 82.5032 88.0988 82.8211 88.7664 83.0755C88.9254 83.139 89.0843 83.1708 89.2751 83.1708C89.9428 83.1708 90.5786 82.7257 90.7694 82.0899C90.8966 81.6766 90.8648 81.2632 90.674 80.8499C90.4833 80.4684 90.1653 80.1823 89.7838 80.0551C89.1162 79.8008 88.5439 79.451 88.0988 79.0059C87.3357 78.2111 86.9224 77.1301 86.9224 76.0492V71.9797L88.3531 71.1212C90.3243 69.9131 91.5642 67.7194 91.5642 65.3985V53.635C91.5642 49.5337 88.2259 46.1954 84.1246 46.1954H82.8211L82.8529 45.3688C83.0755 40.886 86.3501 37.2298 90.7694 36.4667L91.5006 36.3396L91.6914 37.039C92.7088 41.0767 96.365 43.8745 100.562 43.8745C104.727 43.8745 108.383 41.0449 109.432 37.039L109.623 36.3396L110.322 36.4667C114.741 37.198 117.984 40.8542 118.239 45.337L118.27 46.1636H116.363C112.262 46.1636 108.923 49.5019 108.923 53.6032V65.3349C108.923 67.6558 110.163 69.8177 112.134 71.0576L113.565 71.9161V75.9856C113.565 77.1301 113.088 78.2747 112.23 79.0695C111.785 79.4828 111.244 79.8008 110.704 79.9915L107.175 81.1679C104.631 82.0263 102.406 83.6795 100.911 85.8733L100.276 86.7952L99.6079 85.8733C99.3853 85.5871 99.131 85.2374 98.9084 84.9513C98.6541 84.6333 98.2726 84.4426 97.8275 84.4108C97.4142 84.379 97.0008 84.5062 96.6511 84.7923C96.3332 85.0784 96.1106 85.4599 96.0788 85.8733C96.0471 86.2866 96.1742 86.6999 96.4604 87.0496C97.3506 88.0988 97.9546 89.3069 98.3044 90.6422L98.5587 91.6278H96.7465C92.6452 91.6278 89.3069 94.9661 89.3069 99.0674V110.831C89.3069 113.152 90.5468 115.314 92.518 116.554L93.9487 117.412V121.386ZM108.224 99.0356V102.31L97.7321 98.9084C97.3506 98.7813 96.8737 98.8131 96.4922 99.0356L92.4544 101.134V99.0038C92.4544 96.6511 94.362 94.7435 96.7147 94.7435H104.758V94.8389C106.761 95.2204 108.224 96.9691 108.224 99.0356ZM103.073 141.734L100.18 144.691L97.5413 141.766L100.18 132.45L103.073 141.734ZM103.296 124.915C102.183 125.106 101.198 125.201 100.276 125.233C100.117 125.233 99.9576 125.233 99.7668 125.233C98.9402 125.233 98.0818 125.17 97.2552 125.011L96.3332 124.852L96.6511 123.961C96.9373 123.167 97.0962 122.308 97.0962 121.45V119.383L98.1454 119.765C98.8131 120.019 99.5443 120.146 100.339 120.146C101.134 120.146 101.833 120.019 102.533 119.765L103.582 119.383V121.45C103.582 122.213 103.709 122.976 103.964 123.866L104.218 124.724L103.296 124.915ZM106.539 113.788L102.151 116.458C101.611 116.808 100.975 116.967 100.339 116.967C99.7033 116.967 99.0674 116.776 98.5269 116.426L94.1395 113.756C93.0903 113.12 92.4544 111.975 92.4544 110.767V104.727L97.3824 102.151L108.192 105.649V109.972H108.224V110.767C108.224 111.975 107.588 113.12 106.539 113.788ZM130.384 124.502C130.066 124.565 129.811 124.629 129.557 124.693L129.43 124.724C125.646 125.265 122.372 127.427 120.337 130.638L119.733 131.624L119.033 130.733C117.507 128.762 115.473 127.331 113.152 126.568L109.623 125.392C108.955 125.138 108.383 124.788 107.938 124.279C107.175 123.485 106.761 122.467 106.761 121.354V117.285L108.192 116.426C110.163 115.218 111.403 113.025 111.403 110.704V98.9402C111.403 94.8389 108.065 91.5006 103.964 91.5006H101.833L102.12 90.4833C102.914 87.4947 105.172 85.0784 108.128 84.0611L111.657 82.8847C112.23 82.6939 112.77 82.4078 113.247 82.1217L113.565 81.9309L113.915 82.0263C114.869 82.3124 115.822 82.535 116.713 82.6304L117.635 82.7575L113.851 96.1424C113.692 96.6829 113.819 97.2234 114.201 97.6367L118.525 102.469C118.811 102.787 119.224 102.978 119.701 103.01H119.733C120.146 103.01 120.56 102.851 120.846 102.533L125.646 97.7003C126.06 97.287 126.219 96.6829 126.028 96.1424L121.831 82.8529L122.753 82.7257C123.675 82.5668 124.629 82.3442 125.678 82.0263L126.06 81.8991L126.378 82.1217C126.95 82.5032 127.586 82.8211 128.253 83.0755L131.783 84.2518C134.739 85.2374 136.997 87.6537 137.791 90.674C137.791 90.674 138.173 92.0849 138.173 92.1484V91.7232L137.219 91.8504C130.543 92.836 127.045 98.4951 127.045 103.55V108.001C127.045 112.611 129.43 116.458 133.563 118.557L134.008 118.779V121.895C134.008 123.58 132.577 124.025 130.384 124.502ZM145.231 127.331C145.104 127.808 144.913 128.222 144.786 128.603C144.722 128.762 144.659 128.921 144.627 129.048L144.595 129.144C143.546 130.988 141.511 132.164 139.445 132.164C136.838 132.164 134.517 130.415 133.785 127.936C133.754 127.84 133.722 127.777 133.69 127.713C133.627 127.554 133.595 127.427 133.563 127.3L133.372 126.664L133.976 126.378C135.916 125.456 136.901 123.961 136.901 121.895V119.669L137.791 119.765C138.904 119.892 139.985 119.892 141.003 119.733L141.925 119.606V121.895C141.893 123.93 142.878 125.392 144.881 126.41L145.485 126.696L145.231 127.331Z" fill="black"/>
<path fill-rule="evenodd" clip-rule="evenodd" d="M49.8138 125.092C51.1364 124.73 52.5132 125.467 52.8942 126.74C52.8942 126.74 52.8943 126.741 52.8944 126.741C52.8958 126.746 52.8995 126.757 52.9056 126.776C52.9176 126.813 52.9391 126.876 52.9705 126.963C53.0334 127.136 53.1355 127.398 53.2816 127.718C53.5766 128.366 54.0353 129.218 54.6871 130.056C55.9813 131.72 57.8972 133.185 60.812 133.185C63.6943 133.185 65.43 131.755 66.5544 130.151C67.1283 129.333 67.5148 128.498 67.7571 127.859C67.8769 127.544 67.9577 127.286 68.0065 127.116C68.0309 127.032 68.047 126.97 68.0559 126.934C68.0604 126.916 68.063 126.905 68.064 126.901L68.0625 126.908L68.0621 126.909C68.0619 126.91 68.0617 126.911 70.5038 127.408L68.0617 126.911C68.0625 126.908 68.0632 126.905 68.064 126.901C68.0644 126.899 68.0644 126.899 68.0641 126.901L68.064 126.901C68.064 126.901 68.0639 126.901 68.064 126.901C68.353 125.606 69.6734 124.779 71.0185 125.052C72.3672 125.327 73.2301 126.603 72.9458 127.904L70.5038 127.408C72.9458 127.904 72.9456 127.905 72.9454 127.907L72.9448 127.909L72.9437 127.914L72.9408 127.927C72.9386 127.937 72.936 127.948 72.9328 127.962C72.9265 127.989 72.9181 128.024 72.9076 128.066C72.8864 128.15 72.8564 128.264 72.8164 128.403C72.7366 128.681 72.6159 129.062 72.4445 129.514C72.1045 130.41 71.5499 131.621 70.6887 132.849C68.943 135.338 65.8329 138 60.812 138C55.8237 138 52.5818 135.373 50.6939 132.945C49.7548 131.737 49.1163 130.543 48.7121 129.655C48.5085 129.209 48.3603 128.831 48.2605 128.557C48.2105 128.419 48.1723 128.307 48.1452 128.224C48.1317 128.182 48.1208 128.148 48.1126 128.122C48.1085 128.109 48.1051 128.097 48.1023 128.088L48.0986 128.076L48.097 128.071L48.0964 128.068C48.0961 128.067 48.0958 128.066 50.4964 127.408L48.0958 128.066C47.7188 126.787 48.488 125.456 49.8138 125.092Z" fill="black"/>
<path fill-rule="evenodd" clip-rule="evenodd" d="M29.8138 80.0924C31.1364 79.7297 32.5132 80.4671 32.8942 81.7402C32.8942 81.7404 32.8943 81.7407 32.8944 81.7411C32.8958 81.7456 32.8995 81.7574 32.9056 81.7758C32.9176 81.8128 32.9391 81.8763 32.9705 81.9627C33.0334 82.1358 33.1355 82.3976 33.2816 82.7181C33.5766 83.3657 34.0353 84.2176 34.6871 85.0559C35.9813 86.7203 37.8972 88.1854 40.812 88.1854C43.6943 88.1854 45.43 86.7547 46.5544 85.1515C47.1283 84.3331 47.5148 83.498 47.7571 82.8594C47.8769 82.5438 47.9577 82.2862 48.0065 82.1163C48.0309 82.0316 48.047 81.9696 48.0559 81.934C48.0604 81.9162 48.063 81.9051 48.064 81.9012L48.0625 81.9077L48.0621 81.9094C48.0619 81.9104 48.0617 81.9114 50.5038 82.4079L48.0617 81.9114C48.0625 81.9079 48.0632 81.9046 48.064 81.9012C48.0644 81.8994 48.0644 81.8991 48.0641 81.9007L48.064 81.9012C48.064 81.9011 48.0639 81.9012 48.064 81.9012C48.353 80.6062 49.6734 79.7789 51.0185 80.0524C52.3672 80.3266 53.2301 81.6035 52.9458 82.9044L50.5038 82.4079C52.9458 82.9044 52.9456 82.9055 52.9454 82.9066L52.9448 82.9089L52.9437 82.9142L52.9408 82.927C52.9386 82.9365 52.936 82.9481 52.9328 82.9616C52.9265 82.9887 52.9181 83.0235 52.9076 83.0657C52.8864 83.15 52.8564 83.2638 52.8164 83.4029C52.7366 83.6806 52.6159 84.0625 52.4445 84.5142C52.1045 85.4102 51.5499 86.6213 50.6887 87.8491C48.943 90.3383 45.8329 93 40.812 93C35.8237 93 32.5818 90.3727 30.6939 87.9447C29.7548 86.7368 29.1163 85.5426 28.7121 84.6555C28.5085 84.2087 28.3603 83.831 28.2605 83.5566C28.2105 83.4191 28.1723 83.3068 28.1452 83.2238C28.1317 83.1824 28.1208 83.1481 28.1126 83.1217C28.1085 83.1085 28.1051 83.0972 28.1023 83.088L28.0986 83.0756L28.097 83.0705L28.0964 83.0683C28.0961 83.0673 28.0958 83.0662 30.4964 82.4079L28.0958 83.0662C27.7188 81.7874 28.488 80.456 29.8138 80.0924Z" fill="black"/>
<path fill-rule="evenodd" clip-rule="evenodd" d="M128.814 125.092C130.136 124.73 131.513 125.467 131.894 126.74C131.894 126.74 131.894 126.741 131.894 126.741C131.896 126.746 131.9 126.757 131.906 126.776C131.918 126.813 131.939 126.876 131.97 126.963C132.033 127.136 132.136 127.398 132.282 127.718C132.577 128.366 133.035 129.218 133.687 130.056C134.981 131.72 136.897 133.185 139.812 133.185C142.694 133.185 144.43 131.755 145.554 130.151C146.128 129.333 146.515 128.498 146.757 127.859C146.877 127.544 146.958 127.286 147.007 127.116C147.031 127.032 147.047 126.97 147.056 126.934C147.06 126.916 147.063 126.905 147.064 126.901L147.063 126.908L147.062 126.909C147.062 126.91 147.062 126.911 149.504 127.408L147.062 126.911C147.062 126.908 147.063 126.905 147.064 126.901C147.064 126.899 147.064 126.899 147.064 126.901L147.064 126.901C147.064 126.901 147.064 126.901 147.064 126.901C147.353 125.606 148.673 124.779 150.019 125.052C151.367 125.327 152.23 126.603 151.946 127.904L149.504 127.408C151.946 127.904 151.946 127.905 151.945 127.907L151.945 127.909L151.944 127.914L151.941 127.927C151.939 127.937 151.936 127.948 151.933 127.962C151.926 127.989 151.918 128.024 151.908 128.066C151.886 128.15 151.856 128.264 151.816 128.403C151.737 128.681 151.616 129.062 151.444 129.514C151.104 130.41 150.55 131.621 149.689 132.849C147.943 135.338 144.833 138 139.812 138C134.824 138 131.582 135.373 129.694 132.945C128.755 131.737 128.116 130.543 127.712 129.655C127.508 129.209 127.36 128.831 127.26 128.557C127.21 128.419 127.172 128.307 127.145 128.224C127.132 128.182 127.121 128.148 127.113 128.122C127.109 128.109 127.105 128.097 127.102 128.088L127.099 128.076L127.097 128.071L127.096 128.068C127.096 128.067 127.096 128.066 129.496 127.408L127.096 128.066C126.719 126.787 127.488 125.456 128.814 125.092Z" fill="black"/>
<path fill-rule="evenodd" clip-rule="evenodd" d="M89.8138 34.0924C91.1364 33.7297 92.5132 34.4671 92.8942 35.7402C92.8942 35.7404 92.8943 35.7407 92.8944 35.7411C92.8958 35.7456 92.8995 35.7574 92.9056 35.7758C92.9176 35.8128 92.9391 35.8763 92.9705 35.9627C93.0334 36.1358 93.1355 36.3976 93.2816 36.7181C93.5766 37.3657 94.0353 38.2176 94.6871 39.0559C95.9813 40.7203 97.8972 42.1854 100.812 42.1854C103.694 42.1854 105.43 40.7547 106.554 39.1515C107.128 38.3331 107.515 37.498 107.757 36.8594C107.877 36.5438 107.958 36.2862 108.007 36.1163C108.031 36.0316 108.047 35.9696 108.056 35.934C108.06 35.9162 108.063 35.9051 108.064 35.9012L108.063 35.9077L108.062 35.9094C108.062 35.9104 108.062 35.9114 110.504 36.4079L108.062 35.9114C108.062 35.9079 108.063 35.9046 108.064 35.9012C108.064 35.8994 108.064 35.8991 108.064 35.9007L108.064 35.9012C108.064 35.9011 108.064 35.9012 108.064 35.9012C108.353 34.6062 109.673 33.7789 111.019 34.0524C112.367 34.3266 113.23 35.6035 112.946 36.9044L110.504 36.4079C112.946 36.9044 112.946 36.9055 112.945 36.9066L112.945 36.9089L112.944 36.9142L112.941 36.927C112.939 36.9365 112.936 36.9481 112.933 36.9616C112.926 36.9887 112.918 37.0235 112.908 37.0657C112.886 37.15 112.856 37.2638 112.816 37.4029C112.737 37.6806 112.616 38.0625 112.444 38.5142C112.104 39.4102 111.55 40.6213 110.689 41.8491C108.943 44.3383 105.833 47 100.812 47C95.8237 47 92.5818 44.3727 90.6939 41.9447C89.7548 40.7368 89.1163 39.5426 88.7121 38.6555C88.5085 38.2087 88.3603 37.831 88.2605 37.5566C88.2105 37.4191 88.1723 37.3068 88.1452 37.2238C88.1317 37.1824 88.1208 37.1481 88.1126 37.1217C88.1085 37.1085 88.1051 37.0972 88.1023 37.088L88.0986 37.0756L88.097 37.0705L88.0964 37.0683C88.0961 37.0673 88.0958 37.0662 90.4964 36.4079L88.0958 37.0662C87.7188 35.7874 88.488 34.456 89.8138 34.0924Z" fill="black"/>
<path fill-rule="evenodd" clip-rule="evenodd" d="M52.3785 125.071C53.3837 124.792 54.43 125.359 54.7196 126.339C54.7196 126.339 54.7197 126.339 54.7198 126.339C54.7208 126.343 54.7236 126.352 54.7282 126.366C54.7374 126.394 54.7537 126.443 54.7775 126.51C54.8254 126.643 54.903 126.844 55.014 127.091C55.2383 127.589 55.5868 128.244 56.0822 128.889C57.0658 130.169 58.5219 131.296 60.7371 131.296C62.9276 131.296 64.2468 130.196 65.1013 128.963C65.5375 128.333 65.8312 127.691 66.0154 127.2C66.1064 126.957 66.1678 126.759 66.2049 126.628C66.2234 126.563 66.2357 126.515 66.2425 126.488C66.2459 126.474 66.2479 126.465 66.2486 126.462L66.2475 126.467L66.2472 126.469C66.2471 126.47 66.2469 126.47 68.1029 126.852L66.2469 126.47C66.2475 126.468 66.248 126.465 66.2486 126.462C66.2489 126.461 66.249 126.461 66.2487 126.462L66.2486 126.462C66.2486 126.462 66.2486 126.462 66.2486 126.462C66.4683 125.466 67.4718 124.83 68.4941 125.04C69.5191 125.251 70.1749 126.233 69.9588 127.234L68.1029 126.852C69.9588 127.234 69.9587 127.235 69.9585 127.236L69.9581 127.238L69.9572 127.242L69.955 127.252C69.9534 127.259 69.9514 127.268 69.9489 127.278C69.9441 127.299 69.9378 127.326 69.9297 127.358C69.9137 127.423 69.8909 127.511 69.8605 127.618C69.7998 127.831 69.7081 128.125 69.5778 128.472C69.3194 129.162 68.8979 130.093 68.2434 131.038C66.9167 132.953 64.553 135 60.7371 135C56.946 135 54.4822 132.979 53.0474 131.111C52.3336 130.182 51.8484 129.264 51.5412 128.581C51.3864 128.237 51.2738 127.947 51.198 127.736C51.16 127.63 51.131 127.544 51.1104 127.48C51.1001 127.448 51.0918 127.422 51.0856 127.401C51.0825 127.391 51.0799 127.382 51.0777 127.375L51.0749 127.366L51.0738 127.362L51.0733 127.36C51.073 127.359 51.0728 127.359 52.8972 126.852L51.0728 127.359C50.7863 126.375 51.3709 125.351 52.3785 125.071Z" fill="#1edfc4"/>
<path fill-rule="evenodd" clip-rule="evenodd" d="M32.3785 80.0711C33.3837 79.7921 34.43 80.3593 34.7196 81.3386C34.7196 81.3388 34.7197 81.339 34.7198 81.3393C34.7208 81.3428 34.7236 81.3518 34.7282 81.366C34.7374 81.3944 34.7537 81.4433 34.7775 81.5097C34.8254 81.6429 34.903 81.8443 35.014 82.0909C35.2383 82.589 35.5868 83.2443 36.0822 83.8892C37.0658 85.1695 38.5219 86.2965 40.7371 86.2965C42.9276 86.2965 44.2468 85.1959 45.1013 83.9627C45.5375 83.3332 45.8312 82.6908 46.0154 82.1995C46.1064 81.9568 46.1678 81.7586 46.2049 81.6279C46.2234 81.5628 46.2357 81.5151 46.2425 81.4877C46.2459 81.474 46.2479 81.4655 46.2486 81.4624L46.2475 81.4674L46.2472 81.4688C46.2471 81.4695 46.2469 81.4703 48.1029 81.8522L46.2469 81.4703C46.2475 81.4676 46.248 81.4651 46.2486 81.4624C46.2489 81.4611 46.249 81.4608 46.2487 81.4621L46.2486 81.4624C46.2486 81.4624 46.2486 81.4625 46.2486 81.4624C46.4683 80.4663 47.4718 79.8299 48.4941 80.0403C49.5191 80.2512 50.1749 81.2335 49.9588 82.2342L48.1029 81.8522C49.9588 82.2342 49.9587 82.235 49.9585 82.2358L49.9581 82.2376L49.9572 82.2417L49.955 82.2515C49.9534 82.2589 49.9514 82.2678 49.9489 82.2782C49.9441 82.299 49.9378 82.3258 49.9297 82.3582C49.9137 82.423 49.8909 82.5106 49.8605 82.6176C49.7998 82.8312 49.7081 83.125 49.5778 83.4725C49.3194 84.1617 48.8979 85.0933 48.2434 86.0378C46.9167 87.9525 44.553 90 40.7371 90C36.946 90 34.4822 87.979 33.0474 86.1113C32.3336 85.1822 31.8484 84.2635 31.5412 83.5811C31.3864 83.2374 31.2738 82.9469 31.198 82.7358C31.16 82.6301 31.131 82.5437 31.1104 82.4799C31.1001 82.448 31.0918 82.4216 31.0856 82.4013C31.0825 82.3912 31.0799 82.3825 31.0777 82.3754L31.0749 82.3658L31.0738 82.3619L31.0733 82.3602C31.073 82.3594 31.0728 82.3587 32.8972 81.8522L31.0728 82.3587C30.7863 81.3749 31.3709 80.3508 32.3785 80.0711Z" fill="#00c6ff"/>
<path fill-rule="evenodd" clip-rule="evenodd" d="M131.379 125.071C132.384 124.792 133.43 125.359 133.72 126.339C133.72 126.339 133.72 126.339 133.72 126.339C133.721 126.343 133.724 126.352 133.728 126.366C133.737 126.394 133.754 126.443 133.778 126.51C133.825 126.643 133.903 126.844 134.014 127.091C134.238 127.589 134.587 128.244 135.082 128.889C136.066 130.169 137.522 131.296 139.737 131.296C141.928 131.296 143.247 130.196 144.101 128.963C144.538 128.333 144.831 127.691 145.015 127.2C145.106 126.957 145.168 126.759 145.205 126.628C145.223 126.563 145.236 126.515 145.243 126.488C145.246 126.474 145.248 126.465 145.249 126.462L145.248 126.467L145.247 126.469C145.247 126.47 145.247 126.47 147.103 126.852L145.247 126.47C145.247 126.468 145.248 126.465 145.249 126.462C145.249 126.461 145.249 126.461 145.249 126.462L145.249 126.462C145.249 126.462 145.249 126.462 145.249 126.462C145.468 125.466 146.472 124.83 147.494 125.04C148.519 125.251 149.175 126.233 148.959 127.234L147.103 126.852C148.959 127.234 148.959 127.235 148.958 127.236L148.958 127.238L148.957 127.242L148.955 127.252C148.953 127.259 148.951 127.268 148.949 127.278C148.944 127.299 148.938 127.326 148.93 127.358C148.914 127.423 148.891 127.511 148.86 127.618C148.8 127.831 148.708 128.125 148.578 128.472C148.319 129.162 147.898 130.093 147.243 131.038C145.917 132.953 143.553 135 139.737 135C135.946 135 133.482 132.979 132.047 131.111C131.334 130.182 130.848 129.264 130.541 128.581C130.386 128.237 130.274 127.947 130.198 127.736C130.16 127.63 130.131 127.544 130.11 127.48C130.1 127.448 130.092 127.422 130.086 127.401C130.082 127.391 130.08 127.382 130.078 127.375L130.075 127.366L130.074 127.362L130.073 127.36C130.073 127.359 130.073 127.359 131.897 126.852L130.073 127.359C129.786 126.375 130.371 125.351 131.379 125.071Z" fill="#1edfc4"/>
<path fill-rule="evenodd" clip-rule="evenodd" d="M92.3785 34.0711C93.3837 33.7921 94.43 34.3593 94.7196 35.3386C94.7196 35.3388 94.7197 35.339 94.7198 35.3393C94.7208 35.3428 94.7236 35.3518 94.7282 35.366C94.7374 35.3944 94.7537 35.4433 94.7775 35.5097C94.8254 35.6429 94.903 35.8443 95.014 36.0909C95.2383 36.589 95.5868 37.2443 96.0822 37.8892C97.0658 39.1695 98.5219 40.2965 100.737 40.2965C102.928 40.2965 104.247 39.1959 105.101 37.9627C105.538 37.3332 105.831 36.6908 106.015 36.1995C106.106 35.9568 106.168 35.7586 106.205 35.6279C106.223 35.5628 106.236 35.5151 106.243 35.4877C106.246 35.474 106.248 35.4655 106.249 35.4624L106.248 35.4674L106.247 35.4688C106.247 35.4695 106.247 35.4703 108.103 35.8522L106.247 35.4703C106.247 35.4676 106.248 35.4651 106.249 35.4624C106.249 35.4611 106.249 35.4608 106.249 35.4621L106.249 35.4624C106.249 35.4624 106.249 35.4625 106.249 35.4624C106.468 34.4663 107.472 33.8299 108.494 34.0403C109.519 34.2512 110.175 35.2335 109.959 36.2342L108.103 35.8522C109.959 36.2342 109.959 36.235 109.958 36.2358L109.958 36.2376L109.957 36.2417L109.955 36.2515C109.953 36.2589 109.951 36.2678 109.949 36.2782C109.944 36.299 109.938 36.3258 109.93 36.3582C109.914 36.423 109.891 36.5106 109.86 36.6176C109.8 36.8312 109.708 37.125 109.578 37.4725C109.319 38.1617 108.898 39.0933 108.243 40.0378C106.917 41.9525 104.553 44 100.737 44C96.946 44 94.4822 41.979 93.0474 40.1113C92.3336 39.1822 91.8484 38.2635 91.5412 37.5811C91.3864 37.2374 91.2738 36.9469 91.198 36.7358C91.16 36.6301 91.131 36.5437 91.1104 36.4799C91.1001 36.448 91.0918 36.4216 91.0856 36.4013C91.0825 36.3912 91.0799 36.3825 91.0777 36.3754L91.0749 36.3658L91.0738 36.3619L91.0733 36.3602C91.073 36.3594 91.0728 36.3587 92.8972 35.8522L91.0728 36.3587C90.7863 35.3749 91.3709 34.3508 92.3785 34.0711Z" fill="#00c6ff"/>
</svg>
