<svg width="110" height="110" viewBox="0 0 110 110" fill="none" xmlns="http://www.w3.org/2000/svg">
<g clip-path="url(#clip0)">
<path d="M74.4941 100.519C74.4815 100.524 74.4496 100.538 74.4378 100.543C73.6213 100.898 73.2394 101.852 73.5952 102.668C73.8588 103.275 74.4479 103.639 75.0681 103.639C75.2813 103.639 75.4978 103.596 75.7068 103.505C76.5317 103.17 76.9287 102.23 76.593 101.406C76.2582 100.581 75.319 100.184 74.4941 100.519Z" fill="white"/>
<path d="M49.9638 104.269L49.9428 104.266C49.0599 104.175 48.266 104.819 48.1745 105.704C48.0839 106.589 48.7276 107.381 49.613 107.472L49.634 107.474C49.6902 107.48 49.7456 107.483 49.801 107.483C50.6167 107.483 51.3166 106.865 51.4022 106.036C51.4929 105.151 50.8492 104.359 49.9638 104.269Z" fill="white"/>
<path d="M43.7855 103.241L43.4028 104.806L43.7821 103.24C42.9169 103.031 42.0466 103.562 41.8368 104.427C41.627 105.292 42.1582 106.163 43.0235 106.372L43.0763 106.385C43.1938 106.411 43.3105 106.423 43.4263 106.423C44.1673 106.423 44.8387 105.912 45.0049 105.16C45.1962 104.291 44.6549 103.433 43.7855 103.241Z" fill="white"/>
<path d="M37.8015 101.44L37.7813 101.432C36.9471 101.12 36.0189 101.542 35.7068 102.376C35.3937 103.209 35.8167 104.138 36.6492 104.45L36.6694 104.458C36.8565 104.527 37.047 104.561 37.235 104.561C37.8879 104.561 38.5022 104.161 38.7439 103.514C39.0561 102.682 38.634 101.753 37.8015 101.44Z" fill="white"/>
<path d="M62.4438 103.953L62.6737 105.548L62.4396 103.954C61.5592 104.083 60.9499 104.903 61.08 105.783C61.1975 106.584 61.8857 107.16 62.672 107.16C62.7501 107.16 62.829 107.154 62.9087 107.142C62.9188 107.141 62.9498 107.137 62.9599 107.134C63.8377 106.988 64.4378 106.157 64.2909 105.279C64.1449 104.401 63.3233 103.807 62.4438 103.953Z" fill="white"/>
<path d="M56.2569 104.503C56.2493 104.503 56.241 104.503 56.2334 104.503C56.225 104.503 56.1956 104.504 56.1881 104.505C55.2985 104.531 54.5977 105.273 54.6237 106.162C54.6489 107.036 55.364 107.726 56.2326 107.726H56.2804C57.1708 107.712 57.8808 106.98 57.8682 106.091C57.8548 105.209 57.1356 104.503 56.2569 104.503Z" fill="white"/>
<path d="M68.5729 102.619C68.5695 102.62 68.546 102.627 68.5427 102.628C67.6891 102.873 67.2057 103.76 67.4483 104.615C67.6505 105.322 68.3018 105.783 69.0059 105.783C69.1511 105.783 69.2988 105.763 69.4448 105.722C70.3017 105.481 70.801 104.591 70.5602 103.734C70.3193 102.877 69.4297 102.378 68.5729 102.619Z" fill="white"/>
<path d="M62.4324 6.0341C62.5222 6.0492 62.6111 6.05676 62.6992 6.05676C63.4722 6.05676 64.1545 5.49783 64.2862 4.70979C64.4331 3.83195 63.8398 3.00195 62.9619 2.85508C62.9518 2.8534 62.9208 2.84921 62.9099 2.84753C62.0287 2.71829 61.2062 3.32589 61.077 4.20625C60.9478 5.0866 61.5512 5.90486 62.4324 6.0341Z" fill="white"/>
<path d="M74.4349 9.45562C74.4475 9.46065 74.4794 9.47492 74.4919 9.47911C74.6917 9.56052 74.8981 9.59912 75.1021 9.59912C75.7399 9.59912 76.3467 9.22231 76.601 8.59708C76.9358 7.77295 76.5489 6.83721 75.7248 6.50235L75.0786 7.97856L75.7214 6.50067C74.9065 6.14568 73.9565 6.51914 73.6015 7.33487C73.2457 8.15061 73.6191 9.10062 74.4349 9.45562Z" fill="white"/>
<path d="M49.7798 5.7505C49.8344 5.7505 49.8906 5.74798 49.9468 5.74211L49.9678 5.73959C50.8532 5.64895 51.4969 4.85755 51.4063 3.97216C51.3148 3.08677 50.5242 2.44224 49.638 2.53456L49.6162 2.53624C48.7308 2.62771 48.0871 3.41911 48.1786 4.3045C48.2642 5.13366 48.9641 5.7505 49.7798 5.7505Z" fill="white"/>
<path d="M43.4055 6.81795C43.5239 6.81795 43.6439 6.80537 43.7639 6.77767L43.7966 6.77012C44.6627 6.56702 45.199 5.7001 44.9959 4.83401C44.7928 3.96792 43.9267 3.43081 43.0589 3.63306L43.4064 5.20663L43.0497 3.63558C42.1819 3.8328 41.6381 4.69637 41.8353 5.56414C42.0057 6.3119 42.6695 6.81795 43.4055 6.81795Z" fill="white"/>
<path d="M68.5433 7.36254C68.5467 7.36338 68.571 7.37094 68.5744 7.37178C68.7196 7.4129 68.8665 7.4322 69.0108 7.4322C69.7149 7.4322 70.3611 6.96727 70.5617 6.25643C70.8026 5.39958 70.3032 4.50999 69.4464 4.26913L68.9898 5.81416L69.4355 4.26577C68.5811 4.02072 67.6873 4.51335 67.4414 5.36853C67.1947 6.2237 67.689 7.11665 68.5433 7.36254Z" fill="white"/>
<path d="M37.2172 8.67776C37.4052 8.67776 37.5965 8.64419 37.7828 8.57453C38.6204 8.27409 39.0551 7.35093 38.7538 6.51338C38.4534 5.67582 37.5294 5.24194 36.6927 5.54238C36.686 5.5449 36.6591 5.55413 36.6516 5.55665C35.819 5.86968 35.3961 6.79872 35.7083 7.63124C35.9516 8.27828 36.5651 8.67776 37.2172 8.67776Z" fill="white"/>
<path d="M56.1911 5.49194C56.1987 5.49194 56.2281 5.49278 56.2365 5.49278H56.26C57.1353 5.49278 57.847 4.79286 57.8646 3.91502C57.883 3.02879 57.1764 2.29446 56.291 2.27097L56.2381 3.88146L56.286 2.27013C55.3947 2.24159 54.6537 2.94403 54.6277 3.83362C54.6016 4.72321 55.3016 5.46593 56.1911 5.49194Z" fill="white"/>
<path d="M6.52196 75.7609C6.79051 76.3568 7.37714 76.7092 7.99146 76.7092C8.21302 76.7092 8.43793 76.6631 8.65361 76.5657C9.45676 76.2032 9.81847 75.2632 9.46851 74.4567C9.12694 73.6385 8.18784 73.2499 7.36707 73.5881C6.54462 73.928 6.1527 74.8696 6.49259 75.6921C6.4993 75.7089 6.51441 75.745 6.52196 75.7609Z" fill="white"/>
<path d="M3.62484 43.0284L3.61057 43.0888C3.42594 43.9599 3.98235 44.8151 4.85264 44.9997C4.96509 45.0232 5.07755 45.035 5.18833 45.035C5.92853 45.035 6.59321 44.523 6.76021 43.7736C6.96415 42.9092 6.43039 42.0414 5.56598 41.835C4.69906 41.6285 3.83129 42.1631 3.62484 43.0284ZM5.51647 43.4807L5.19169 43.4027L5.55423 43.4891L5.51647 43.4807Z" fill="white"/>
<path d="M2.52281 49.6281C2.42966 50.5051 3.05908 51.2957 3.93692 51.3989C4.0007 51.4064 4.06364 51.4098 4.12742 51.4098C4.93309 51.4098 5.62881 50.8064 5.72532 49.9865L5.73204 49.9185C5.81009 49.0323 5.15548 48.2535 4.26925 48.1746C3.38806 48.0957 2.60673 48.7469 2.52281 49.6281Z" fill="white"/>
<path d="M4.29008 69.481C4.50325 70.1742 5.14023 70.619 5.82924 70.619C5.98617 70.619 6.14563 70.5955 6.3034 70.5469C7.14683 70.2875 7.62268 69.3996 7.37678 68.5562C7.13928 67.701 6.25725 67.1983 5.39955 67.4316C4.54101 67.6658 4.03496 68.552 4.2691 69.4105C4.27582 69.434 4.28253 69.4575 4.29008 69.481Z" fill="white"/>
<path d="M3.87891 57.8677C3.89485 57.8677 3.9108 57.8668 3.92674 57.8668C4.81633 57.8408 5.51625 57.0989 5.49108 56.2093L5.49024 56.1867C5.46422 55.2979 4.72737 54.6064 3.83275 54.6341C2.94232 54.6601 2.24324 55.4129 2.26926 56.3025C2.29444 57.1761 3.01114 57.8677 3.87891 57.8677Z" fill="white"/>
<path d="M6.04644 62.4582C6.04644 62.4574 6.04308 62.4347 6.04308 62.4339C5.91216 61.5544 5.09307 60.9585 4.21439 61.0886C3.33487 61.2187 2.72895 62.0479 2.85819 62.9274C2.97568 63.7288 3.66385 64.3046 4.45021 64.3046C4.52826 64.3046 4.60715 64.2987 4.68688 64.2869C5.56723 64.1577 6.17568 63.3386 6.04644 62.4582Z" fill="white"/>
<path d="M7.6235 35.706C6.78931 35.3938 5.86111 35.816 5.54892 36.6493L5.54137 36.6695C5.22917 37.5028 5.65131 38.4319 6.48466 38.7441C6.67097 38.8137 6.86232 38.8473 7.05031 38.8473C7.70239 38.8473 8.31671 38.4478 8.55925 37.8008L8.5668 37.7806C8.879 36.9481 8.45686 36.0191 7.6235 35.706Z" fill="white"/>
<path d="M104.184 70.6215C104.873 70.6215 105.511 70.1767 105.724 69.4835C105.731 69.4608 105.738 69.4365 105.745 69.413C105.979 68.5553 105.472 67.6716 104.614 67.4374C103.76 67.2033 102.878 67.7051 102.638 68.5561C102.39 69.4012 102.866 70.29 103.71 70.5501C103.868 70.5988 104.027 70.6215 104.184 70.6215Z" fill="white"/>
<path d="M107.732 56.2798C107.756 55.3919 107.057 54.6525 106.169 54.6265C105.278 54.5971 104.537 55.3004 104.511 56.19L104.51 56.2588C104.51 57.1492 105.232 57.8701 106.121 57.8701C107.005 57.8701 107.722 57.1601 107.732 56.2798ZM106.355 56.2445L106.122 56.237L106.373 56.2445H106.355Z" fill="white"/>
<path d="M104.444 36.6518C104.131 35.8184 103.204 35.3963 102.369 35.7093C101.536 36.0215 101.114 36.9505 101.426 37.7839L101.434 37.804C101.676 38.4511 102.29 38.8497 102.943 38.8497C103.131 38.8497 103.322 38.817 103.508 38.7473C104.342 38.4343 104.764 37.5061 104.452 36.6727L104.444 36.6518Z" fill="white"/>
<path d="M100.541 74.4542C100.189 75.2607 100.551 76.2024 101.355 76.5666C101.57 76.6631 101.795 76.7093 102.018 76.7093C102.631 76.7093 103.218 76.3568 103.486 75.7609C103.494 75.745 103.509 75.7089 103.516 75.6929C103.856 74.8705 103.464 73.9305 102.641 73.5907C101.823 73.2524 100.885 73.6402 100.541 74.4542Z" fill="white"/>
<path d="M105.677 48.1821C104.795 48.2853 104.165 49.0818 104.262 49.9621C104.345 50.7913 105.044 51.4131 105.863 51.4131C105.911 51.4131 105.959 51.4115 106.006 51.4073C106.894 51.3284 107.549 50.5471 107.47 49.66L107.463 49.592C107.359 48.7091 106.558 48.0789 105.677 48.1821Z" fill="white"/>
<path d="M105.8 61.0811C104.92 60.9502 104.1 61.557 103.969 62.4373C103.968 62.4382 103.965 62.4608 103.965 62.4617C103.835 63.342 104.444 64.1611 105.324 64.2903C105.404 64.3021 105.483 64.308 105.561 64.308C106.347 64.308 107.035 63.7314 107.153 62.9308L105.562 62.6748L107.156 62.9132C107.287 62.0328 106.68 61.2129 105.8 61.0811Z" fill="white"/>
<path d="M106.361 43.0274C106.152 42.163 105.283 41.6335 104.417 41.8424C103.557 42.0506 103.026 42.9167 103.227 43.7777C103.393 44.5263 104.059 45.0391 104.798 45.0391C104.908 45.0391 105.019 45.0282 105.129 45.0047C106.001 44.8234 106.56 43.9691 106.377 43.0979C106.374 43.0811 106.365 43.0442 106.361 43.0274Z" fill="white"/>
<path d="M15.5915 20.4362C16.1815 20.7954 16.8428 20.9758 17.5041 20.9758C18.1655 20.9758 18.8268 20.7954 19.4168 20.4362L21.2043 19.3461C22.2928 18.6831 22.9684 17.4788 22.9684 16.2031V11.4161C22.9684 9.21399 21.1775 7.42139 18.977 7.42139H16.0313C13.83 7.42139 12.0391 9.21399 12.0391 11.4161V16.2031C12.0391 17.4788 12.7155 18.6831 13.804 19.3461L15.5915 20.4362ZM15.2617 11.4161C15.2617 10.9906 15.6066 10.644 16.0313 10.644H18.977C19.4017 10.644 19.7457 10.9906 19.7457 11.4161V16.2031C19.7457 16.3626 19.6618 16.512 19.5267 16.5942L17.7391 17.6844C17.5939 17.7725 17.4135 17.7725 17.2692 17.6844L15.4808 16.5942C15.3465 16.512 15.2617 16.3617 15.2617 16.2031V11.4161Z" fill="white"/>
<path d="M88.8352 19.3461L90.3584 20.2751C90.3609 20.2768 90.3635 20.2776 90.366 20.2793L90.6228 20.4362C91.2128 20.7954 91.8741 20.9758 92.5354 20.9758C93.1967 20.9758 93.858 20.7954 94.448 20.4362L96.2356 19.3461C97.3241 18.6831 97.9996 17.4788 97.9996 16.2031V11.4161C97.9996 9.21399 96.2096 7.42139 94.0083 7.42139H91.0617C88.8612 7.42139 87.0703 9.21399 87.0703 11.4161V16.2031C87.0712 17.4788 87.7467 18.6831 88.8352 19.3461ZM90.2938 11.4161C90.2938 10.9906 90.6387 10.644 91.0625 10.644H94.0083C94.4329 10.644 94.7778 10.9906 94.7778 11.4161V16.2031C94.7778 16.3626 94.6939 16.512 94.5588 16.5942H94.558L92.7712 17.6844C92.626 17.7725 92.4448 17.7725 92.3004 17.6844L90.5128 16.5942C90.3777 16.512 90.2938 16.3617 90.2938 16.2031V11.4161Z" fill="white"/>
<path d="M16.0313 82.453C13.83 82.453 12.0391 84.2456 12.0391 86.4486V91.2347C12.0391 92.5104 12.7155 93.7147 13.804 94.3777L15.5915 95.4678C16.1815 95.827 16.8428 96.0075 17.5041 96.0075C18.1655 96.0075 18.8268 95.827 19.4168 95.4678L21.2043 94.3777C22.2928 93.7147 22.9684 92.5104 22.9684 91.2347V86.4486C22.9684 84.2456 21.1775 82.453 18.977 82.453H16.0313ZM19.7457 86.4486V91.2347C19.7457 91.3942 19.6618 91.5444 19.5267 91.6267L17.7391 92.716C17.5939 92.8049 17.4144 92.8049 17.2692 92.716L15.4816 91.6267C15.3465 91.5444 15.2617 91.3942 15.2617 91.2356V86.4486C15.2617 86.0223 15.6066 85.6757 16.0313 85.6757H18.977C19.4017 85.6757 19.7457 86.0223 19.7457 86.4486Z" fill="white"/>
<path d="M92.5154 75.0317C88.3293 75.0317 84.4823 76.5129 81.4686 78.9761L74.3552 71.6579C75.343 70.5057 76.2343 69.2594 77.0198 67.9208C82.6267 58.3653 81.4073 46.3534 74.1723 38.1423L81.44 31.0021C84.4579 33.4787 88.3159 34.9683 92.5154 34.9683C95.5291 34.9683 98.3674 34.2013 100.845 32.8535C100.912 32.8308 100.978 32.804 101.043 32.7712C101.165 32.71 101.275 32.6336 101.374 32.548C102.572 31.8414 103.677 30.9962 104.67 30.0345C104.765 29.9606 104.85 29.8775 104.927 29.7852C108.061 26.6238 110 22.2766 110 17.4837C110 7.84348 102.157 0 92.5154 0C82.8751 0 75.0317 7.84348 75.0317 17.4837C75.0317 21.7672 76.5826 25.6931 79.1481 28.7362L71.898 35.8596C70.6735 34.7812 69.3408 33.8169 67.92 32.9827C63.3479 30.2997 58.148 29.1155 52.8818 29.5578C47.7339 29.9908 42.9025 31.9328 38.9094 35.174C38.9085 35.1748 38.9077 35.1756 38.9069 35.1756C38.8985 35.1823 38.8909 35.1899 38.8825 35.1966C38.619 35.4106 38.3605 35.6313 38.1062 35.8554L30.8771 28.7068C33.4283 25.668 34.9683 21.7529 34.9683 17.4846C34.9683 14.4701 34.2013 11.6309 32.8526 9.15268C32.83 9.08722 32.804 9.02092 32.7712 8.95714C32.71 8.83377 32.6344 8.72383 32.548 8.6248C29.5041 3.46855 23.893 0 17.4846 0C14.3106 0 11.2021 0.859375 8.49388 2.48497C7.73102 2.94319 7.48428 3.93349 7.9425 4.69635C8.40073 5.45921 9.39018 5.70595 10.1539 5.24773C12.3594 3.92342 14.8947 3.22266 17.4846 3.22266C25.3482 3.22266 31.7457 9.62013 31.7457 17.4837C31.7457 20.6393 30.7143 23.5573 28.972 25.9214C28.7656 25.6688 28.5381 25.4279 28.2906 25.1997C26.9822 23.9996 25.2324 23.3382 23.3643 23.3382H11.6427C9.77287 23.3382 8.02307 23.9996 6.7189 25.198C6.4621 25.4338 6.22711 25.6847 6.01395 25.9474C4.26163 23.5791 3.22266 20.651 3.22266 17.4837C3.22266 14.4071 4.1861 11.4782 6.00975 9.01337C6.53931 8.2975 6.38824 7.28874 5.67238 6.75919C4.95735 6.23047 3.94859 6.38069 3.41904 7.09656C1.18248 10.1212 0 13.7122 0 17.4837C0 22.3068 1.96297 26.6792 5.13107 29.8457C5.20157 29.9279 5.28046 30.0034 5.36774 30.0706C6.35132 31.0181 7.444 31.8514 8.62732 32.5497C8.71712 32.6269 8.81531 32.6965 8.92357 32.7544C8.99826 32.7939 9.07547 32.8258 9.15352 32.8526C11.6318 34.2013 14.4701 34.9683 17.4846 34.9683C21.6984 34.9683 25.5689 33.4695 28.591 30.9778L35.8319 38.1381C34.7661 39.3517 33.811 40.6667 32.9819 42.0792C30.4969 46.3156 29.2884 51.1362 29.4873 56.0205C29.4873 56.0247 29.4881 56.0289 29.4881 56.0331V56.0365C29.635 59.5537 30.4843 62.9408 32.0126 66.1039C32.0151 66.1106 32.0184 66.1165 32.021 66.1232C32.0218 66.1249 32.0226 66.1266 32.0243 66.1291C33.0733 68.3018 34.417 70.2925 36.0073 72.0616L28.617 79.044C25.5907 76.5389 21.7101 75.0317 17.4846 75.0317C7.84348 75.0317 0 82.8751 0 92.5163C0 97.3385 1.96297 101.712 5.13107 104.877C5.20157 104.96 5.28046 105.036 5.36774 105.103C8.51234 108.132 12.7832 110 17.4846 110C22.1197 110 26.5047 108.15 29.7332 104.986C29.7617 104.96 29.7894 104.934 29.8154 104.905C30.8796 103.848 31.7482 102.606 32.5891 101.321C33.999 99.168 30.8796 97.6507 29.8885 99.5574C29.6107 100.045 29.3052 100.512 28.9762 100.959C28.7689 100.705 28.5398 100.461 28.2906 100.231C26.9822 99.0312 25.2324 98.3699 23.3643 98.3699H11.6427C9.77287 98.3699 8.02307 99.0321 6.7189 100.23C6.4621 100.466 6.22711 100.717 6.01395 100.98C4.26163 98.6108 3.22266 95.6827 3.22266 92.5163C3.22266 84.6526 9.62013 78.2543 17.4846 78.2543C25.3482 78.2543 31.7457 84.6526 31.7457 92.5163C31.7457 93.0685 31.7138 93.6257 31.6508 94.1721C31.5485 95.0558 32.1829 95.8556 33.0666 95.9571C33.9487 96.0595 34.7501 95.425 34.8525 94.5413C34.9289 93.8733 34.9683 93.1918 34.9683 92.5163C34.9683 88.2597 33.4384 84.3555 30.9006 81.32L38.3085 74.3208C39.4733 75.3254 40.7339 76.2292 42.08 77.019C46.0143 79.3277 50.4463 80.532 54.9689 80.532C55.376 80.532 55.7838 80.5228 56.1917 80.5026C60.8134 80.2861 65.2898 78.82 69.136 76.2645C70.1884 75.5663 71.1779 74.7984 72.1036 73.965L79.1716 81.2361C76.5918 84.2834 75.0317 88.2202 75.0317 92.5154C75.0317 97.3376 76.9946 101.71 80.1619 104.876C80.2332 104.96 80.313 105.036 80.4002 105.103C83.5448 108.132 87.8149 110 92.5154 110C97.2361 110 101.522 108.117 104.671 105.066C104.765 104.992 104.85 104.91 104.926 104.818C108.061 101.656 110 97.3091 110 92.5163C110 82.8751 102.157 75.0317 92.5154 75.0317ZM8.89755 102.606C9.60838 101.953 10.5827 101.593 11.6427 101.593H23.3643C24.4242 101.593 25.4002 101.953 26.1102 102.605C26.3645 102.838 26.5743 103.093 26.7388 103.361C24.1934 105.529 20.9229 106.777 17.4846 106.777C13.9682 106.777 10.7472 105.496 8.25806 103.378C8.42422 103.103 8.63823 102.843 8.89755 102.606ZM74.2403 66.2894C73.3297 67.8403 72.2597 69.251 71.0403 70.5132C71.0319 70.5208 71.0243 70.5267 71.0159 70.5342C70.9882 70.5619 70.9631 70.5904 70.9379 70.619C70.2052 71.3667 69.4189 72.0625 68.5822 72.702C67.2822 70.7012 66.6813 68.2364 67.0992 66.3162C67.4442 64.7368 68.3623 63.9504 69.5263 62.9559C70.8019 61.8641 72.3906 60.5054 72.8069 57.9465C73.2919 54.9656 71.8359 52.9028 70.5518 51.0825C69.4541 49.529 68.5066 48.1863 68.5872 46.3013C68.6728 44.304 69.9333 41.9793 71.7687 40.2882C78.0764 47.462 79.1355 57.9465 74.2403 66.2894ZM83.2897 28.3468C83.4559 28.0715 83.6699 27.8114 83.9301 27.5739C84.64 26.9209 85.6144 26.5617 86.6743 26.5617H98.3959C99.4559 26.5617 100.432 26.9209 101.142 27.573C101.395 27.8055 101.604 28.0581 101.768 28.3241C99.2746 30.4549 96.0444 31.7457 92.5154 31.7457C88.9999 31.7457 85.7789 30.4642 83.2897 28.3468ZM92.5154 3.22266C100.38 3.22266 106.777 9.62013 106.777 17.4837C106.777 20.6393 105.746 23.5573 104.005 25.9214C103.798 25.6688 103.57 25.4279 103.322 25.1997C102.014 23.9996 100.265 23.3382 98.3959 23.3382H86.6743C84.8045 23.3382 83.0556 24.0004 81.7514 25.1988C81.4938 25.4346 81.2588 25.6856 81.0464 25.9483C79.2933 23.5783 78.2543 20.651 78.2543 17.4837C78.2543 9.62013 84.6526 3.22266 92.5154 3.22266ZM8.25806 28.3468C8.42422 28.0715 8.63823 27.8114 8.89755 27.5739C9.60838 26.9209 10.5827 26.5617 11.6427 26.5617H23.3643C24.4242 26.5617 25.4002 26.9209 26.1102 27.573C26.362 27.8055 26.5718 28.0581 26.7355 28.3241C24.2429 30.4549 21.0127 31.7457 17.4837 31.7457C13.9682 31.7457 10.7472 30.4642 8.25806 28.3468ZM35.7614 43.7106C36.9254 41.7258 38.3689 39.9576 40.0549 38.4369C41.4053 39.2988 43.1433 40.2328 46.0387 40.66C46.1184 40.6718 46.1973 40.6776 46.2753 40.6776C47.0617 40.6776 47.7499 40.1011 47.8674 39.3005C47.9974 38.4201 47.389 37.601 46.5086 37.4718C44.8654 37.2292 43.745 36.8138 42.8085 36.3203C49.8152 31.7608 58.9771 31.4713 66.2894 35.7623C67.4198 36.4261 68.4848 37.1864 69.4743 38.0273C67.351 40.0457 65.5013 43.0241 65.3679 46.1637C65.2403 49.1472 66.6628 51.163 67.9183 52.9414C69.147 54.6811 69.8863 55.8292 69.6262 57.4287C69.4096 58.7581 68.6879 59.432 67.4307 60.507C66.1366 61.614 64.5253 62.992 63.9504 65.6306C63.2757 68.7299 64.3272 72.0432 65.8924 74.4685C63.4049 75.8583 60.6732 76.7588 57.8433 77.123C57.8442 75.8071 57.6881 74.7312 57.6218 74.2722C57.3641 72.5098 56.8832 69.2284 54.295 67.1647C52.0862 65.4048 49.5114 65.4317 47.6299 65.451C46.9962 65.4585 46.0588 65.4678 45.7382 65.3427C45.724 65.0154 46.1251 64.1728 46.3467 63.7096C46.9199 62.5069 47.7054 60.8604 46.6286 59.463C45.3564 57.8131 42.811 58.3913 41.9743 58.581C40.6298 58.8865 39.4389 59.3749 39.3063 59.4303C38.9656 59.573 36.4555 60.6573 34.0477 62.658C33.4435 61.0114 33.0389 59.3061 32.8375 57.5588C34.4094 57.4841 36.2465 57.2508 38.5326 56.9604L38.5905 56.9529C44.7731 56.164 50.1115 55.4817 50.9138 52.0249C51.231 50.6553 50.6805 49.4527 49.9915 48.4498C52.2599 49.1598 55.1695 49.9327 57.2055 48.3121C58.3485 47.4016 59.0585 45.8079 59.1525 43.9406C59.2591 41.8165 58.5684 39.8116 57.3037 38.5762C55.9668 37.2729 54.3924 37.2007 53.0295 37.3039C52.1416 37.3702 51.4761 38.144 51.5424 39.0311C51.6095 39.919 52.3808 40.5836 53.2703 40.5173C54.384 40.4343 54.7323 40.5694 55.0537 40.8824C55.6479 41.4632 55.9937 42.5995 55.9341 43.7786C55.8887 44.6816 55.5992 45.4713 55.1981 45.7911C54.3622 46.4566 52.035 45.7181 50.4942 45.2296C48.4775 44.5901 46.5724 43.9859 45.5712 45.5695C44.685 46.9753 45.7869 48.3264 46.5909 49.3125C47.0382 49.8605 47.8707 50.8819 47.775 51.2981C47.7692 51.3242 47.5996 51.9444 45.2254 52.5864C43.3229 53.1008 40.8262 53.4197 38.1725 53.7579L38.1264 53.7638C35.91 54.0458 34.1392 54.2699 32.6982 54.3395C32.8065 50.6083 33.853 46.9627 35.7614 43.7106ZM35.4417 65.7229C37.69 63.6131 40.42 62.4574 40.5476 62.4046C41.6721 61.9363 43.0267 61.5913 43.7895 61.5511C43.6855 61.8028 43.5461 62.0949 43.4379 62.3215C42.8378 63.5803 42.0154 65.3041 42.9167 66.9331C43.9003 68.7131 45.9002 68.6921 47.6643 68.6736C49.2899 68.656 50.9742 68.6384 52.2859 69.6849C53.8788 70.9547 54.2128 73.2323 54.4344 74.7472C54.4923 75.1475 54.6358 76.1411 54.6198 77.3035C50.7904 77.243 47.0466 76.1965 43.7106 74.2394C40.2094 72.185 37.3711 69.2544 35.4417 65.7229ZM92.5154 78.2543C100.38 78.2543 106.777 84.6518 106.777 92.5154C106.777 95.6709 105.745 98.5889 104.005 100.954C103.798 100.701 103.57 100.46 103.322 100.231C102.014 99.0312 100.265 98.3699 98.3959 98.3699H86.6743C84.8045 98.3699 83.0556 99.0321 81.7514 100.23C81.4938 100.466 81.2588 100.717 81.0464 100.98C79.2933 98.6108 78.2543 95.6827 78.2543 92.5154C78.2543 84.6526 84.6526 78.2543 92.5154 78.2543ZM83.2897 103.378C83.4559 103.103 83.6699 102.843 83.9301 102.606C84.64 101.953 85.6144 101.593 86.6743 101.593H98.3959C99.4559 101.593 100.432 101.953 101.143 102.605C101.395 102.837 101.604 103.09 101.768 103.356C99.2746 105.487 96.0444 106.777 92.5154 106.777C88.9999 106.777 85.7789 105.496 83.2897 103.378Z" fill="white"/>
<path d="M88.8352 94.3777L90.6228 95.4678C91.2128 95.827 91.8741 96.0075 92.5354 96.0075C93.1967 96.0075 93.858 95.827 94.448 95.4678L96.2356 94.3777C97.3241 93.7147 97.9996 92.5104 97.9996 91.2347V86.4486C97.9996 84.2456 96.2096 82.453 94.0083 82.453H91.0617C88.8612 82.453 87.0703 84.2456 87.0703 86.4486V91.2347C87.0712 92.5104 87.7467 93.7147 88.8352 94.3777ZM90.2938 86.4486C90.2938 86.0223 90.6387 85.6757 91.0625 85.6757H94.0083C94.4329 85.6757 94.7778 86.0223 94.7778 86.4486V91.2347C94.7778 91.3942 94.6939 91.5444 94.558 91.6267L92.7704 92.716C92.6252 92.8049 92.4456 92.8049 92.2996 92.716L90.5128 91.6267C90.3777 91.5444 90.2938 91.3942 90.2938 91.2347V86.4486Z" fill="white"/>
<path d="M49.7783 15.467C49.7783 18.3439 52.1206 20.6845 55 20.6845C57.8794 20.6845 60.2217 18.3439 60.2217 15.467C60.2217 12.5893 57.8794 10.2487 55 10.2487C52.1206 10.2487 49.7783 12.5893 49.7783 15.467ZM56.9991 15.467C56.9991 16.5672 56.1019 17.4619 55 17.4619C53.8981 17.4619 53.001 16.5672 53.001 15.467C53.001 14.3668 53.8981 13.4713 55 13.4713C56.1019 13.4713 56.9991 14.3668 56.9991 15.467Z" fill="white"/>
<path d="M55 89.1383C52.1206 89.1383 49.7783 91.4789 49.7783 94.3567C49.7783 97.2336 52.1206 99.5742 55 99.5742C57.8794 99.5742 60.2217 97.2336 60.2217 94.3567C60.2217 91.4789 57.8794 89.1383 55 89.1383ZM55 96.3515C53.8981 96.3515 53.001 95.4569 53.001 94.3567C53.001 93.2564 53.8981 92.361 55 92.361C56.1019 92.361 56.9991 93.2564 56.9991 94.3567C56.9991 95.4569 56.1019 96.3515 55 96.3515Z" fill="white"/>
<path d="M20.6856 55.9735C20.6856 53.0957 18.3433 50.7551 15.4639 50.7551C12.5845 50.7551 10.2422 53.0957 10.2422 55.9735C10.2422 58.8504 12.5845 61.191 15.4639 61.191C18.3433 61.191 20.6856 58.8504 20.6856 55.9735ZM13.4657 55.9735C13.4657 54.8732 14.362 53.9778 15.4639 53.9778C16.5666 53.9778 17.463 54.8732 17.463 55.9735C17.463 57.0737 16.5666 57.9683 15.4639 57.9683C14.362 57.9683 13.4657 57.0737 13.4657 55.9735Z" fill="white"/>
<path d="M89.3145 55.9735C89.3145 58.8504 91.6568 61.191 94.5362 61.191C97.4147 61.191 99.757 58.8504 99.757 55.9735C99.757 53.0957 97.4156 50.7551 94.5362 50.7551C91.6568 50.7551 89.3145 53.0957 89.3145 55.9735ZM96.5344 55.9735C96.5344 57.0737 95.6381 57.9683 94.5353 57.9683C93.4334 57.9683 92.5371 57.0737 92.5371 55.9735C92.5371 54.8732 93.4334 53.9778 94.5353 53.9778C95.6381 53.9778 96.5344 54.8732 96.5344 55.9735Z" fill="white"/>
</g>
<defs>
<clipPath id="clip0">
<rect width="110" height="110" fill="white"/>
</clipPath>
</defs>
</svg>
