<svg version="1.1" id="Layer_1" xmlns="http://www.w3.org/2000/svg" xmlns:xlink="http://www.w3.org/1999/xlink" x="0px" y="0px" width="50px" height="50px" viewBox="0 0 63.1 43.3" enable-background="new 0 0 63.1 43.3" xml:space="preserve" class="icon">
<path fill="#fff" d="M37.1,14.7H0V1.2h37.1c0.3,0,0.5,0.2,0.5,0.5s-0.2,0.5-0.5,0.5H1v11.5h36.1c0.3,0,0.5,0.2,0.5,0.5S37.4,14.7,37.1,14.7z
	 M37.5,14.5c0.2-0.2,0.2-0.5-0.1-0.7c0,0-2.5-2.2-2.5-5.9c0-3.7,2.5-5.8,2.5-5.9c0.2-0.2,0.2-0.5,0.1-0.7c-0.2-0.2-0.5-0.2-0.7-0.1
	c-0.1,0.1-2.8,2.5-2.8,6.6c0,4.1,2.7,6.5,2.8,6.6c0.1,0.1,0.2,0.1,0.3,0.1C37.3,14.7,37.4,14.6,37.5,14.5z M34.9,7.9
	c0-0.3-0.2-0.5-0.5-0.5H5.6c-0.3,0-0.5,0.2-0.5,0.5s0.2,0.5,0.5,0.5h28.8C34.7,8.4,34.9,8.2,34.9,7.9z M37.6,28.5
	c0-0.3-0.2-0.5-0.5-0.5H1V16.5h36.1c0.3,0,0.5-0.2,0.5-0.5s-0.2-0.5-0.5-0.5H0V29h37.1C37.4,29,37.6,28.8,37.6,28.5z M37.5,28.8
	c0.2-0.2,0.2-0.5-0.1-0.7c0,0-2.5-2.2-2.5-5.9c0-3.7,2.5-5.9,2.5-5.9c0.2-0.2,0.2-0.5,0.1-0.7c-0.2-0.2-0.5-0.2-0.7-0.1
	c-0.1,0.1-2.8,2.5-2.8,6.6c0,4.1,2.7,6.5,2.8,6.6c0.1,0.1,0.2,0.1,0.3,0.1C37.3,29,37.4,28.9,37.5,28.8z M34.9,22.2
	c0-0.3-0.2-0.5-0.5-0.5H5.6c-0.3,0-0.5,0.2-0.5,0.5s0.2,0.5,0.5,0.5h28.8C34.7,22.7,34.9,22.5,34.9,22.2z M37.6,42.8
	c0-0.3-0.2-0.5-0.5-0.5H1V30.8h36.1c0.3,0,0.5-0.2,0.5-0.5s-0.2-0.5-0.5-0.5H0v13.5h37.1C37.4,43.3,37.6,43,37.6,42.8z M37.5,43.1
	c0.2-0.2,0.2-0.5-0.1-0.7c0,0-2.5-2.2-2.5-5.9c0-3.7,2.5-5.9,2.5-5.9c0.2-0.2,0.2-0.5,0.1-0.7c-0.2-0.2-0.5-0.2-0.7-0.1
	c-0.1,0.1-2.8,2.5-2.8,6.6c0,4.1,2.7,6.5,2.8,6.6c0.1,0.1,0.2,0.1,0.3,0.1C37.3,43.3,37.4,43.2,37.5,43.1z M34.9,36.5
	c0-0.3-0.2-0.5-0.5-0.5H5.6c-0.3,0-0.5,0.2-0.5,0.5S5.4,37,5.6,37h28.8C34.7,37,34.9,36.8,34.9,36.5z M63.1,38.8L52.8,0.4
	C52.7,0.1,52.5,0,52.2,0c-0.3,0.1-0.4,0.3-0.4,0.6l10,37.5l-12.8,3.4L39,4.1c-0.1-0.3-0.3-0.4-0.6-0.4C38.1,3.8,38,4.1,38,4.3
	l10.3,38.4L63.1,38.8z M46.3,5.4c3.9-1.1,6.4-4.5,6.5-4.6c0.2-0.2,0.1-0.5-0.1-0.7c-0.2-0.2-0.5-0.1-0.7,0.1c0,0-2.3,3.3-5.9,4.2
	c-3.6,1-7.2-0.7-7.3-0.7c-0.2-0.1-0.5,0-0.7,0.2c-0.1,0.2,0,0.5,0.2,0.7c0.1,0.1,2.4,1.1,5.3,1.1C44.4,5.8,45.3,5.7,46.3,5.4z
	 M53.7,33.2c0.3-0.1,0.4-0.3,0.4-0.6L46.6,4.8c-0.1-0.3-0.3-0.4-0.6-0.4c-0.3,0.1-0.4,0.3-0.4,0.6l7.5,27.8c0.1,0.2,0.3,0.4,0.5,0.4
	C53.6,33.3,53.7,33.3,53.7,33.2z"></path>
</svg>