<svg version="1.1" id="Layer_1" xmlns="http://www.w3.org/2000/svg" xmlns:xlink="http://www.w3.org/1999/xlink" x="0px" y="0px" width="50px" height="50px" viewBox="0 0 47 47.4" enable-background="new 0 0 47 47.4" xml:space="preserve" class="icon">
<path fill="#fff" d="M44.9,46.4v-36H34.5V0H10.2v6.4H2v40H0v1h2h14h3.9h25H47v-1H44.9z M3,46.4v-39h12v39H3z M16,46.4v-40h-4.8V1
	h22.3v9.4H19.9v36H16z M20.9,46.4v-35h23v35H20.9z M6,10.7h6v1H6V10.7z M6,16.7h6v1H6V16.7z M6,22.7h6v1H6V22.7z M6,28.7h6v1H6V28.7
	z M6,34.7h6v1H6V34.7z M6,40.7h6v1H6V40.7z M24,21.6h7v-7h-7V21.6z M25,15.6h5v5h-5V15.6z M34,21.6h7v-7h-7V21.6z M35,15.6h5v5h-5
	V15.6z M24,32.6h7v-7h-7V32.6z M25,26.6h5v5h-5V26.6z M34,32.6h7v-7h-7V32.6z M35,26.6h5v5h-5V26.6z M24,43.6h7v-7h-7V43.6z
	 M25,37.6h5v5h-5V37.6z M34,43.6h7v-7h-7V43.6z M35,37.6h5v5h-5V37.6z"></path>
</svg>