<svg version="1.1" id="Layer_1" xmlns="http://www.w3.org/2000/svg" xmlns:xlink="http://www.w3.org/1999/xlink" x="0px" y="0px" width="50px" height="50px" viewBox="0 0 57 63.1" enable-background="new 0 0 57 63.1" xml:space="preserve" class="icon">
<path display="none" fill="#FFFFFF" d="M37.6,30.1c0,3.6-2.9,6.5-6.5,6.5c-3.6,0-6.5-2.9-6.5-6.5c0-3.6,2.9-6.5,6.5-6.5
	C34.7,23.5,37.6,26.5,37.6,30.1"></path>
<path fill="#fff" d="M31.5,49.5h-1V36.9h1V49.5z M44.1,33.6l-6.5-2.7l-0.4,0.9l6.5,2.7L44.1,33.6z M24.2,30.1H14.1v1h10.1V30.1z
	 M28.3,24.1l-4.6-6.5l-0.8,0.6l4.6,6.5L28.3,24.1z M45.4,12l-0.8-0.6L34.5,24.5l0.8,0.6L45.4,12z M38.1,56.1c0-3.9-3.2-7-7-7
	s-7,3.2-7,7s3.2,7,7,7S38.1,60,38.1,56.1z M37.1,56.1c0,3.3-2.7,6-6,6s-6-2.7-6-6c0-3.3,2.7-6,6-6S37.1,52.8,37.1,56.1z M57,36.6
	c0-3.9-3.2-7-7-7c-3.9,0-7,3.2-7,7s3.2,7,7,7C53.8,43.7,57,40.5,57,36.6z M56,36.6c0,3.3-2.7,6-6,6c-3.3,0-6-2.7-6-6s2.7-6,6-6
	C53.3,30.6,56,33.3,56,36.6z M14.1,30.6c0-3.9-3.2-7-7-7s-7,3.2-7,7s3.2,7,7,7S14.1,34.5,14.1,30.6z M13.1,30.6c0,3.3-2.7,6-6,6
	s-6-2.7-6-6s2.7-6,6-6S13.1,27.3,13.1,30.6z M24.3,17.6c2.7-2.7,2.7-7.2,0-10c-1.3-1.3-3.1-2.1-5-2.1c-1.9,0-3.7,0.7-5,2.1
	c-2.7,2.7-2.7,7.2,0,10c1.3,1.3,3.1,2.1,5,2.1C21.2,19.7,23,19,24.3,17.6z M23.6,8.4c2.4,2.4,2.4,6.2,0,8.5
	c-1.1,1.1-2.7,1.8-4.3,1.8c-1.6,0-3.1-0.6-4.3-1.8c-2.4-2.4-2.4-6.2,0-8.5c1.1-1.1,2.7-1.8,4.3-1.8C20.9,6.6,22.4,7.2,23.6,8.4z
	 M54.1,12c1.3-1.3,2.1-3.1,2.1-5c0-1.9-0.7-3.7-2.1-5C52.7,0.7,51,0,49.1,0c-1.9,0-3.7,0.7-5,2.1C42.8,3.4,42,5.2,42,7
	c0,1.9,0.7,3.7,2.1,5c1.3,1.3,3.1,2.1,5,2.1C51,14.1,52.7,13.4,54.1,12z M53.4,2.8c1.1,1.1,1.8,2.7,1.8,4.3c0,1.6-0.6,3.1-1.8,4.3
	c-1.1,1.1-2.7,1.8-4.3,1.8c-1.6,0-3.1-0.6-4.3-1.8C43.7,10.2,43,8.7,43,7c0-1.6,0.6-3.1,1.8-4.3C46,1.6,47.5,1,49.1,1
	C50.7,1,52.2,1.6,53.4,2.8z M38.1,30.1c0-3.9-3.2-7-7-7s-7,3.2-7,7s3.2,7,7,7S38.1,34,38.1,30.1z M37.1,30.1c0,3.3-2.7,6-6,6
	s-6-2.7-6-6s2.7-6,6-6S37.1,26.8,37.1,30.1z"></path>
</svg>