<svg version="1.1" id="Layer_1" xmlns="http://www.w3.org/2000/svg" xmlns:xlink="http://www.w3.org/1999/xlink" x="0px" y="0px" width="50px" height="50px" viewBox="0 0 48 57.1" enable-background="new 0 0 48 57.1" xml:space="preserve" class="icon">
<path fill="#fff" d="M19.8,54.3H0V12.5h39.5v16.4h-1V13.5H1v39.8h18.8V54.3z M19.8,0c-7.1,0-13,5.8-13,13h1c0-6.6,5.4-12,12-12
	c6.6,0,12,5.4,12,12h1C32.7,5.8,26.9,0,19.8,0z M48,28.9H19.8v28.2H48V28.9z M20.8,29.9H47v26.2H20.8V29.9z M42.3,34.6h-1
	c0,4.1-3.3,7.4-7.4,7.4s-7.4-3.3-7.4-7.4h-1c0,4.6,3.8,8.4,8.4,8.4S42.3,39.2,42.3,34.6z"></path>
</svg>