<svg version="1.1" id="Layer_1" xmlns="http://www.w3.org/2000/svg" xmlns:xlink="http://www.w3.org/1999/xlink" x="0px" y="0px" width="57.4px" height="55.8px" viewBox="0 0 57.4 55.8" enable-background="new 0 0 57.4 55.8" xml:space="preserve" class="icon">
<path fill="#fff" d="M27.9,19c-5.2,0-9.5-4.3-9.5-9.5S22.7,0,27.9,0s9.5,4.3,9.5,9.5S33.1,19,27.9,19z M27.9,1c-4.7,0-8.5,3.8-8.5,8.5
	s3.8,8.5,8.5,8.5s8.5-3.8,8.5-8.5S32.6,1,27.9,1z M10.4,48.9c-4.7,0-8.8-3.5-9.4-8.3c-0.3-2.5,0.3-5,1.9-7c1.5-2,3.8-3.3,6.3-3.6
	c0.4-0.1,0.8-0.1,1.3-0.1c4.7,0,8.8,3.5,9.4,8.3c0.7,5.2-3,10-8.2,10.7C11.3,48.9,10.8,48.9,10.4,48.9z M10.4,30.9
	c-0.4,0-0.8,0-1.1,0.1c-2.3,0.3-4.3,1.5-5.6,3.3c-1.4,1.8-2,4-1.7,6.3c0.6,4.2,4.2,7.4,8.4,7.4c0.4,0,0.8,0,1.1-0.1
	c4.6-0.6,7.9-4.9,7.3-9.5C18.3,34.1,14.7,30.9,10.4,30.9z M47.9,49c-5.2,0-9.5-4.3-9.5-9.5s4.3-9.5,9.5-9.5s9.5,4.3,9.5,9.5
	S53.1,49,47.9,49z M47.9,31c-4.7,0-8.5,3.8-8.5,8.5s3.8,8.5,8.5,8.5s8.5-3.8,8.5-8.5S52.6,31,47.9,31z M4.5,33
	c-3.4-3.5-4.5-8.7-2.7-13.2c2-5.2,7-8.4,12.5-8l0.1-1c-6-0.4-11.4,3.1-13.5,8.6C-1,24.3,0.2,29.9,3.8,33.7L4.5,33z M15.4,11l-6-4.5
	L8.7,7.4l5.2,3.9l-3.9,5.2l0.8,0.6L15.4,11z M49.1,12c-2.7-4.5-7.8-7.1-13-6.5l0.1,1c4.8-0.5,9.6,1.9,12,6.1
	c2.8,4.7,2.2,10.7-1.5,14.8l0.7,0.7C51.5,23.6,52.2,17.1,49.1,12z M54,26.6l-0.3-1l-6.3,1.7l-1.7-6.3l-1,0.3l2,7.2L54,26.6z
	 M45.7,48.1l-0.9-0.4c-2.1,4.4-6.6,7.2-11.4,7.1c-5.5-0.1-10.3-3.7-11.8-8.9l-1,0.3c1.7,5.7,6.8,9.6,12.8,9.7c0.1,0,0.1,0,0.2,0
	C38.7,55.8,43.5,52.8,45.7,48.1z M21.2,46.4l6.2,1.8l0.3-1l-7.2-2.1l-2.1,7.2l1,0.3L21.2,46.4z"></path>
</svg>