<svg version="1.1" id="Layer_1" xmlns="http://www.w3.org/2000/svg" xmlns:xlink="http://www.w3.org/1999/xlink" x="0px" y="0px" width="50px" height="50px" viewBox="0 0 64.6 54.6" enable-background="new 0 0 64.6 54.6" xml:space="preserve" class="icon">
<path fill="#fff" d="M34.2,8.9c1.7,0,4.5,2,4.5,3.7v12.9c0,1-3.5,4-4.5,4.2h-1.3H31l-1.3,0c-1.3-0.2-4.6-3.4-4.6-4.2V12.6
	c0-1.7,2.8-3.7,4.5-3.7H31h1.9H34.2 M34.2,7.9h-1.3H31h-1.3c-2.2,0-5.5,2.4-5.5,4.7v12.9c0,1.7,4.3,5.2,5.5,5.2H31h1.9h1.3
	c1.2,0,5.5-3.4,5.5-5.2V12.6C39.7,10.3,36.3,7.9,34.2,7.9L34.2,7.9z M42.6,20.9v-1.6c0-1.1-1.1-2.1-2.3-2.1h-0.6v1h0.6
	c0.7,0,1.3,0.6,1.3,1.1v1.6c0,0.6-0.5,1.1-1.2,1.1h-0.8v1h0.8C41.7,23,42.6,22,42.6,20.9z M24.1,22h-0.8c-0.7,0-1.2-0.5-1.2-1.1
	v-1.6c0-0.6,0.7-1.1,1.3-1.1h0.6v-1h-0.6c-1.2,0-2.3,1-2.3,2.1v1.6c0,1.2,1,2.1,2.2,2.1h0.8V22z M32.3,43.4H21.4L17.6,37l10.7-3.8
	L28,32.3l-11.9,4.2l4.6,7.9h11.5V43.4z M47.7,36.4l-11.9-4.2l-0.3,0.9L46.1,37l-4,6.4h-9.8v1h10.3L47.7,36.4z M35.9,33.2l-0.6-0.8
	l-3.4,2.5l-3.4-2.5l-0.6,0.8l4,2.9L35.9,33.2z M28.9,30h-1v3h1V30L28.9,30z M35.9,30h-1v3h1V30L35.9,30z M32.3,35.4 M33.9,12.1h-4.1
	c-2,0-5.8,1.8-5.8,4.3h1c0-1.8,3-3.3,4.8-3.3h4.1c1.8,0,4.7,1.6,4.7,3.3h1C39.7,13.9,36,12.1,33.9,12.1z M31.9,0
	C18.7,0,7.3,9.4,4.9,22.4l1,0.2C8.2,10.1,19.1,1,31.9,1c14.6,0,26.5,11.9,26.5,26.5h1C59.4,12.3,47.1,0,31.9,0z M64.6,23.1l-0.7-0.7
	l-5,5l-5-5l-0.7,0.7l5.7,5.7L64.6,23.1z M59.7,32.1l-1-0.2c-2.3,12.5-13.3,21.6-26,21.6C18,53.6,6.2,41.7,6.2,27.1h-1
	c0,15.2,12.3,27.5,27.5,27.5C45.9,54.6,57.3,45.1,59.7,32.1z M11.3,31.5l-5.7-5.7L0,31.5l0.7,0.7l5-5l5,5L11.3,31.5z"></path>
</svg>