<svg version="1.1" id="Layer_1" xmlns="http://www.w3.org/2000/svg" xmlns:xlink="http://www.w3.org/1999/xlink" x="0px" y="0px" width="50px" height="50px" viewBox="0 0 55 55" enable-background="new 0 0 55 55" xml:space="preserve" class="icon">
<path fill="#fff" d="M55,55H0V0h55V55z M1,54h53V1H1V54z M48,36H7V7h41V36z M8,35h39V8H8V35z M47.5,44.6H23.3v1h24.2V44.6z
	 M15.5,44.6h-8v1h8V44.6z M19.5,49.6c-2.5,0-4.5-2-4.5-4.5s2-4.5,4.5-4.5s4.5,2,4.5,4.5S22,49.6,19.5,49.6z M19.5,41.6
	c-1.9,0-3.5,1.6-3.5,3.5s1.6,3.5,3.5,3.5S23,47,23,45.1S21.5,41.6,19.5,41.6z M21.7,31.4V11.6l14.8,9.9L21.7,31.4z M22.7,13.4v16.1
	l12-8.1L22.7,13.4z"></path>
</svg>