<svg version="1.1" id="Layer_1" xmlns="http://www.w3.org/2000/svg" xmlns:xlink="http://www.w3.org/1999/xlink" x="0px" y="0px" width="50px" height="50px" viewBox="0 0 43.4 37" enable-background="new 0 0 43.4 37" xml:space="preserve" class="icon">
<path fill="#fff" d="M9,9H0V0h9V9z M1,8h7V1H1V8z M9,23H0v-9h9V23z M1,22h7v-7H1V22z M9,37H0v-9h9V37z M1,36h7v-7H1V36z M43.4,2
	h-30v1h30V2z M42.4,6h-28v1h28V6z M43.4,16h-30v1h30V16z M42.4,20h-28v1h28V20z M43.4,30h-30v1h30V30z M42.4,34h-28v1h28V34z"></path>
</svg>