<svg version="1.1" id="Layer_1" xmlns="http://www.w3.org/2000/svg" xmlns:xlink="http://www.w3.org/1999/xlink" x="0px" y="0px" width="97px" height="97px" viewBox="0 0 97 97" enable-background="new 0 0 97 97" xml:space="preserve" class="icon">
<path fill="#0096E6" d="M82.5,14.1C65.4-2.9,38.3-4.7,19.1,9.8c-1.2-1.2-2.9-1.9-4.6-1.9c-1.8,0-3.4,0.7-4.7,1.9
	c-2.6,2.6-2.6,6.7,0,9.3C-4.7,38.3-2.9,65.4,14.1,82.5c9.4,9.4,21.8,14.1,34.2,14.1c10.2,0,20.5-3.2,29.1-9.8
	c1.2,1.2,2.9,1.9,4.6,1.9c1.8,0,3.4-0.7,4.7-1.9c1.2-1.2,1.9-2.9,1.9-4.7c0-1.8-0.7-3.4-1.9-4.6C101.4,58.3,99.5,31.2,82.5,14.1z
	 M10.5,10.5c1.1-1.1,2.5-1.6,4-1.6c1.5,0,2.9,0.6,4,1.6c1.1,1.1,1.6,2.5,1.6,4c0,1.5-0.6,2.9-1.6,4c-1.1,1.1-2.5,1.6-4,1.6
	c-1.5,0-2.9-0.6-4-1.6C8.3,16.3,8.3,12.7,10.5,10.5z M14.8,81.8c-16.7-16.7-18.5-43.2-4.3-62c1.1,0.8,2.5,1.3,3.9,1.3
	c1.8,0,3.4-0.7,4.7-1.9s1.9-2.9,1.9-4.7c0-1.4-0.5-2.8-1.3-3.9c18.7-14.2,45.3-12.4,62,4.3c16.7,16.7,18.5,43.2,4.3,62
	c-1.1-0.8-2.5-1.3-3.9-1.3c-1.8,0-3.4,0.7-4.7,1.9c-2.3,2.3-2.6,6-0.6,8.6C58.1,100.3,31.5,98.5,14.8,81.8z M86.1,86.1
	c-1.1,1.1-2.5,1.6-4,1.6c-1.5,0-2.9-0.6-4-1.6c-2.2-2.2-2.2-5.8,0-7.9c1.1-1.1,2.5-1.6,4-1.6c1.5,0,2.9,0.6,4,1.6
	c1.1,1.1,1.6,2.5,1.6,4S87.2,85.1,86.1,86.1z M48.3,23.1c-13.9,0-25.2,11.3-25.2,25.2c0,13.9,11.3,25.2,25.2,25.2
	c13.9,0,25.2-11.3,25.2-25.2C73.6,34.4,62.2,23.1,48.3,23.1z M48.3,72.6c-13.4,0-24.2-10.9-24.2-24.2S35,24.1,48.3,24.1
	c13.4,0,24.2,10.9,24.2,24.2S61.7,72.6,48.3,72.6z"></path>
</svg>