<svg version="1.1" id="Layer_1" xmlns="http://www.w3.org/2000/svg" xmlns:xlink="http://www.w3.org/1999/xlink" x="0px" y="0px" width="100px" height="100px" viewBox="0 0 101.2 99.7" enable-background="new 0 0 101.2 99.7" xml:space="preserve" class="icon">
<path fill="#0096E6" d="M20.3,99.7c-1.9,0-3.8-0.3-5.7-0.8c-0.6-0.2-1-0.6-1.2-1.2c-0.2-0.6,0-1.2,0.4-1.6l12.2-12.3c-0.4-0.8-1.5-2.6-4.6-5.7
	c-3-3-4.8-4.2-5.7-4.6L3.7,85.8c-0.4,0.4-1,0.6-1.6,0.4c-0.6-0.2-1.1-0.6-1.2-1.2C-1.3,77.9,0.7,70.3,5.9,65c3.8-3.9,9-6,14.4-6
	c2.7,0,5.3,0.5,7.7,1.5L60.5,28c-3.1-7.6-1.4-16.2,4.4-22.1c3.9-3.9,9-6,14.4-6c1.9,0,3.8,0.3,5.7,0.8C85.6,1,86,1.4,86.2,2
	c0.2,0.6,0,1.2-0.4,1.6L73.5,15.9c0.4,0.8,1.6,2.6,4.6,5.7c3.1,3.1,4.8,4.2,5.7,4.6L96,13.9c0.4-0.4,1-0.6,1.6-0.4
	c0.6,0.1,1.1,0.6,1.2,1.2c2.1,7.1,0.1,14.8-5.1,20.1c-3.8,3.9-9,6-14.4,6c-2.7,0-5.3-0.5-7.7-1.5L39.1,71.6c1,2.4,1.5,5,1.5,7.7
	c0,5.4-2.1,10.5-5.9,14.4C30.9,97.6,25.8,99.7,20.3,99.7z M15.7,72.3l0.3,0.1c0.9,0.4,2.8,1.5,6.3,4.9c3.5,3.5,4.6,5.4,5,6.3
	l0.1,0.3L14.6,96.7c-0.2,0.2-0.2,0.4-0.2,0.7c0.1,0.2,0.2,0.4,0.5,0.5c1.8,0.5,3.6,0.8,5.4,0.8c5.2,0,10-2,13.7-5.7
	c3.6-3.7,5.6-8.5,5.6-13.7c0-2.6-0.5-5.2-1.6-7.6L38,71.4l18-18.1L71.4,38l0.3,0.1c2.4,1,5,1.6,7.6,1.6c5.2,0,10-2,13.7-5.7
	c5-5,6.8-12.3,4.8-19.1c-0.1-0.2-0.3-0.4-0.5-0.5c-0.3-0.1-0.5,0-0.7,0.2L84,27.3l-0.3-0.1c-0.8-0.3-2.8-1.4-6.3-4.9
	c-3.5-3.5-4.6-5.4-5-6.3l-0.1-0.3L85,2.9c0.2-0.2,0.2-0.4,0.2-0.7C85.2,2,85,1.8,84.7,1.8C83,1.3,81.2,1,79.3,1
	c-5.2,0-10,2-13.7,5.7c-5.6,5.6-7.2,14-4.1,21.3l0.1,0.3L28.3,61.7L28,61.6c-2.4-1-5-1.6-7.6-1.6c-5.2,0-10,2-13.7,5.7
	c-5,5-6.9,12.3-4.9,19.1C1.9,85,2,85.2,2.3,85.3c0.2,0,0.5,0,0.7-0.2L15.7,72.3z M42.5,45.6L29.2,32.4L17,25.2
	c-0.2-0.1-0.3-0.2-0.4-0.3l-8.3-12C8,12.5,8,11.8,8.4,11.4l5.3-5.3c0.4-0.4,1-0.5,1.5-0.1l12,8.3c0.1,0.1,0.2,0.2,0.3,0.4l7.1,12.1
	l13.9,14l0.7-0.7L35.5,26.4l-7.1-12.2c-0.2-0.3-0.4-0.5-0.6-0.7l-12-8.3c-0.9-0.6-2-0.5-2.8,0.2l-5.3,5.3c-0.7,0.7-0.8,1.9-0.2,2.8
	l8.3,12c0.2,0.3,0.4,0.5,0.7,0.6l12.1,7.1l13.2,13.2L42.5,45.6z M101.2,79.6L71.4,49.8L65.2,56l-5.6-5.6l-0.7,0.7l6.3,6.3l6.2-6.2
	l28.4,28.4L81.9,97.5L53.5,69.1l6.2-6.2l-6.3-6.3l-0.7,0.7l5.6,5.6l-6.2,6.2l29.8,29.8L101.2,79.6z M90.9,78.2L73.4,60.8l-0.7,0.7
	l17.5,17.4L90.9,78.2z M86.2,82.9L68.8,65.4l-0.7,0.7l17.4,17.5L86.2,82.9z M81.6,87.5L64.1,70.1l-0.7,0.7l17.5,17.4L81.6,87.5z"></path>
</svg>