<svg version="1.1" id="Layer_1" xmlns="http://www.w3.org/2000/svg" xmlns:xlink="http://www.w3.org/1999/xlink" x="0px" y="0px" width="100px" height="100px" viewBox="0 0 121.4 121.4" enable-background="new 0 0 121.4 121.4" xml:space="preserve" class="icon">
<path fill="#0096E6" d="M92.6,31.9L82.4,42l0.8,0.2c1.3,0.3,2.4,1,3.3,1.9c1.4,1.4,2.2,3.3,2.2,5.3s-0.8,3.9-2.2,5.3
	c-1.4,1.4-3.3,2.2-5.3,2.2c-2,0-3.9-0.8-5.3-2.2c-0.9-0.9-1.6-2.1-1.9-3.3l-0.2-0.8L63.8,60.7l28.8,28.8l28.8-28.8L92.6,31.9z
	 M65.2,60.7l8.3-8.3c0.4,1.1,1.1,2.1,1.9,3c1.6,1.6,3.7,2.5,6,2.5c2.3,0,4.4-0.9,6-2.5c3.3-3.3,3.3-8.7,0-12c-0.8-0.8-1.9-1.5-3-1.9
	l8.3-8.3L120,60.7L92.6,88.1L65.2,60.7z M42.3,38.2c0.3-1.3,1-2.4,1.9-3.3c1.4-1.4,3.3-2.2,5.3-2.2s3.9,0.8,5.3,2.2
	c2.9,2.9,2.9,7.6,0,10.5c-0.9,0.9-2.1,1.6-3.3,1.9l-0.8,0.2l10.2,10.2l28.8-28.8L60.7,0L31.9,28.8L42,39L42.3,38.2z M33.3,28.8
	L60.7,1.4l27.4,27.4L60.7,56.2L52.4,48c1.1-0.4,2.1-1.1,3-1.9c3.3-3.3,3.3-8.7,0-12c-1.6-1.6-3.7-2.5-6-2.5s-4.4,0.9-6,2.5
	c-0.8,0.8-1.5,1.9-1.9,3L33.3,28.8z M37.2,80.1c-1.3-0.3-2.4-1-3.3-1.9c-2.9-2.9-2.9-7.6,0-10.5c1.4-1.4,3.3-2.2,5.3-2.2
	c2,0,3.9,0.8,5.3,2.2c0.9,0.9,1.6,2.1,1.9,3.3l0.2,0.8l11.1-11.1L28.8,31.9L0,60.7l28.8,28.8l9.2-9.2L37.2,80.1z M28.8,88.1
	L1.4,60.7l27.4-27.4l27.4,27.4L47,69.9c-0.4-1.1-1.1-2.1-1.9-3c-1.6-1.6-3.7-2.5-6-2.5c-2.3,0-4.4,0.9-6,2.5c-3.3,3.3-3.3,8.7,0,12
	c0.8,0.8,1.9,1.5,3,1.9L28.8,88.1z M79.2,83.3c-0.3,1.3-1,2.4-1.9,3.3c-1.4,1.4-3.3,2.2-5.3,2.2c-2,0-3.9-0.8-5.3-2.2
	s-2.2-3.3-2.2-5.3s0.8-3.9,2.2-5.3c0.9-0.9,2.1-1.6,3.3-1.9l0.8-0.2L60.7,63.8L31.9,92.6l28.8,28.8l28.8-28.8L79.4,82.4L79.2,83.3z
	 M88.1,92.6L60.7,120L33.3,92.6l27.4-27.4l8.3,8.3c-1.1,0.4-2.1,1.1-3,1.9c-1.6,1.6-2.5,3.7-2.5,6c0,2.3,0.9,4.4,2.5,6
	c1.6,1.6,3.7,2.5,6,2.5s4.4-0.9,6-2.5c0.8-0.8,1.5-1.9,1.9-3L88.1,92.6z"></path>
</svg>