<?xml version="1.0" encoding="iso-8859-1"?>
<!-- Generator: Adobe Illustrator 19.0.0, SVG Export Plug-In . SVG Version: 6.00 Build 0)  -->
<svg fill="#027AEC" version="1.1" id="Capa_1" xmlns="http://www.w3.org/2000/svg" xmlns:xlink="http://www.w3.org/1999/xlink" x="0px" y="0px"
	 viewBox="0 0 512.001 512.001" style="enable-background:new 0 0 512.001 512.001;" xml:space="preserve">
<g>
	<g>
		<path d="M438.362,152.531c-7.182-37.116-39.698-64.353-78.152-64.353c-4.06,0-8.198,0.337-12.359,1.005
			c-24.604-40.314-68.516-65.134-115.898-65.134c-66.639,0-122.819,47.987-133.787,112.871c-3.51-0.429-7.022-0.645-10.504-0.645
			C39.325,136.274,0,175.599,0,223.936c0,48.336,39.325,87.661,87.661,87.661h64.129c4.142,0,7.5-3.358,7.5-7.5
			c0-4.142-3.358-7.5-7.5-7.5H87.661C47.596,296.597,15,264.001,15,223.936c0-40.066,32.596-72.661,72.661-72.661
			c5.056,0,10.201,0.553,15.292,1.644c2.073,0.444,4.239-0.01,5.958-1.251c1.72-1.24,2.835-3.151,3.067-5.26
			c6.759-61.205,58.336-107.36,119.972-107.36c43.769,0,84.213,23.817,105.549,62.157c1.622,2.916,4.979,4.408,8.229,3.664
			c4.898-1.123,9.77-1.692,14.48-1.692c32.998,0,60.608,24.709,64.225,57.475c0.419,3.803,3.633,6.677,7.454,6.677
			c0.016,0,0.032,0,0.047,0c0.198-0.001,0.395-0.009,0.603-0.023c35.564,0.1,64.463,29.061,64.463,64.646
			c0,35.645-29,64.645-64.645,64.645H303.581v-34.329c9.308-3.139,16.032-11.946,16.032-22.3v-96.194
			c0-12.976-10.557-23.532-23.532-23.532h-96.193c-12.976,0-23.532,10.556-23.532,23.532v96.194c0,10.354,6.724,19.16,16.032,22.3
			v34.329h-8.531c-4.142,0-7.5,3.358-7.5,7.5c0,4.142,3.358,7.5,7.5,7.5h8.531v33.097h-50.362
			c-3.139-9.308-11.946-16.032-22.3-16.032c-12.976,0-23.532,10.557-23.532,23.532c0,12.975,10.557,23.532,23.532,23.532
			c10.354,0,19.161-6.724,22.3-16.032h50.362v34.329c-9.308,3.139-16.032,11.946-16.032,22.3c0,12.976,10.557,23.532,23.532,23.532
			s23.532-10.557,23.532-23.532c0-10.354-6.724-19.161-16.032-22.3v-82.426h33.097V442.12c-9.308,3.139-16.032,11.946-16.032,22.3
			c0,12.976,10.557,23.532,23.532,23.532c12.975,0,23.532-10.557,23.532-23.532c0-10.354-6.724-19.16-16.032-22.3V311.597h33.097
			v82.426c-9.308,3.139-16.032,11.946-16.032,22.3c0,12.976,10.557,23.532,23.532,23.532c12.975,0,23.532-10.557,23.532-23.532
			c0-10.354-6.724-19.161-16.032-22.3v-34.329h50.362c3.139,9.308,11.946,16.032,22.3,16.032c12.976,0,23.533-10.557,23.533-23.532
			c0-12.975-10.557-23.532-23.533-23.532c-10.354,0-19.16,6.724-22.3,16.032h-50.362v-33.097h128.774
			c43.917,0,79.645-35.729,79.645-79.645C512,190.056,479.482,155.612,438.362,152.531z M119.726,360.726
			c-4.705,0-8.532-3.828-8.532-8.532c0-4.704,3.828-8.532,8.532-8.532c4.705,0,8.533,3.828,8.533,8.532
			C128.259,356.898,124.431,360.726,119.726,360.726z M208.419,416.323c0,4.704-3.827,8.532-8.532,8.532
			c-4.705,0-8.532-3.828-8.532-8.532c0-4.705,3.828-8.532,8.532-8.532C204.591,407.791,208.419,411.619,208.419,416.323z
			 M240.484,296.597h-33.097V263.5h33.097V296.597z M256.516,464.42c0,4.704-3.828,8.532-8.532,8.532
			c-4.705,0-8.532-3.828-8.532-8.532c0-4.704,3.828-8.532,8.532-8.532S256.516,459.716,256.516,464.42z M288.581,296.597h-33.097
			V263.5h33.097V296.597z M255.483,248.5v-17.064h24.564c4.142,0,7.5-3.358,7.5-7.5v-32.065c0-4.142-3.358-7.5-7.5-7.5
			c-4.142,0-7.5,3.358-7.5,7.5v24.565h-49.129v-49.129h56.629c4.142,0,7.5-3.358,7.5-7.5c0-4.142-3.358-7.5-7.5-7.5h-64.129
			c-4.142,0-7.5,3.358-7.5,7.5v64.129c0,4.142,3.358,7.5,7.5,7.5h24.564V248.5h-40.597c-4.705,0-8.532-3.828-8.532-8.532v-96.194
			h0.002c0-4.705,3.828-8.532,8.532-8.532h96.193c4.705,0,8.532,3.828,8.532,8.532v96.194c0,4.705-3.828,8.532-8.532,8.532H255.483z
			 M304.613,416.323c0,4.704-3.828,8.532-8.532,8.532c-4.705,0-8.532-3.828-8.532-8.532c0-4.705,3.828-8.532,8.532-8.532
			C300.785,407.791,304.613,411.619,304.613,416.323z M376.242,343.661c4.705,0,8.533,3.828,8.533,8.532
			c0,4.704-3.828,8.532-8.533,8.532c-4.705,0-8.532-3.828-8.532-8.532C367.71,347.489,371.537,343.661,376.242,343.661z"/>
	</g>
</g>
<g>
</g>
<g>
</g>
<g>
</g>
<g>
</g>
<g>
</g>
<g>
</g>
<g>
</g>
<g>
</g>
<g>
</g>
<g>
</g>
<g>
</g>
<g>
</g>
<g>
</g>
<g>
</g>
<g>
</g>
</svg>
