<svg fill="#027AEC" id="security" enable-background="new 0 0 300 300" height="512" viewBox="0 0 300 300" width="512" xmlns="http://www.w3.org/2000/svg"><g><path d="m74.885 189.564c4.315-3.672 7.115-9.072 7.115-15.168 0-11.027-8.973-20-20-20s-20 8.973-20 20c0 6.096 2.8 11.496 7.115 15.167-8.967 4.673-15.115 14.041-15.115 24.833 0 2.209 1.789 4 4 4h48c2.211 0 4-1.791 4-4 0-10.792-6.148-20.16-15.115-24.832zm-24.885-15.168c0-6.617 5.383-12 12-12s12 5.383 12 12-5.383 12-12 12-12-5.382-12-12zm-7.598 36c1.859-9.117 9.938-16 19.598-16s17.738 6.883 19.598 16z"/><path d="m250.885 189.564c4.315-3.671 7.115-9.072 7.115-15.167 0-11.027-8.973-20-20-20s-20 8.973-20 20c0 6.096 2.8 11.496 7.115 15.167-8.967 4.672-15.115 14.04-15.115 24.832 0 2.209 1.789 4 4 4h48c2.211 0 4-1.791 4-4 0-10.792-6.148-20.16-15.115-24.832zm-24.885-15.168c0-6.617 5.383-12 12-12s12 5.383 12 12-5.383 12-12 12-12-5.382-12-12zm-7.598 36c1.859-9.117 9.938-16 19.598-16s17.738 6.883 19.598 16z"/><path d="m180.656 122.396h-57.312c-5.152 0-9.344 4.193-9.344 9.346v121.309c0 5.152 4.191 9.346 9.344 9.346h57.312c5.152 0 9.344-4.193 9.344-9.346v-121.309c0-5.152-4.191-9.346-9.344-9.346zm-57.312 8h57.312c.742 0 1.344.604 1.344 1.346v102.654h-60v-102.654c0-.742.602-1.346 1.344-1.346zm57.312 124h-28.656-28.656c-.742 0-1.344-.604-1.344-1.346v-10.654h30 30v10.654c0 .743-.602 1.346-1.344 1.346z"/><circle cx="152" cy="248.396" r="6"/><path d="m150.219 112.172c.293.068.594.102.895.102s.602-.033.895-.102c1.254-.287 30.828-7.594 37.363-54.82.156-1.111-.168-2.236-.883-3.1s-1.762-1.389-2.883-1.445c-.211-.01-21.375-1.217-31.371-13.703-.738-.926-1.855-1.477-3.043-1.5-.023 0-.051 0-.078 0-1.156 0-2.262.502-3.02 1.379-10.938 12.602-31.277 13.814-31.484 13.826-1.117.059-2.16.584-2.875 1.447-.711.863-1.035 1.986-.879 3.096 6.535 47.226 36.109 54.533 37.363 54.82zm.804-64.764c9.379 8.955 22.871 11.951 29.781 12.932-6.059 34.059-25.238 42.299-29.688 43.77-4.496-1.486-23.648-9.746-29.699-43.789 6.755-1.003 19.853-4.018 29.606-12.913z"/><path d="m144.934 86.947c.762.904 1.883 1.426 3.062 1.426h.074c1.207-.023 2.34-.59 3.082-1.541l14.004-17.977c1.355-1.744 1.043-4.258-.699-5.615-1.746-1.357-4.258-1.047-5.613.697l-10.965 14.078-3.121-3.713c-1.426-1.689-3.945-1.908-5.637-.488-1.691 1.422-1.91 3.945-.488 5.637z"/><path d="m105.113 105.627-11.312 11.314c-1.562 1.562-1.562 4.096 0 5.656.781.781 1.805 1.172 2.828 1.172s2.047-.391 2.828-1.172l11.312-11.314c1.562-1.562 1.562-4.096 0-5.656-1.562-1.563-4.093-1.563-5.656 0z"/><path d="m74 146.396c1.023 0 2.047-.391 2.828-1.172l11.312-11.314c1.562-1.562 1.562-4.096 0-5.656-1.562-1.562-4.094-1.562-5.656 0l-11.312 11.314c-1.562 1.562-1.562 4.096 0 5.656.781.782 1.805 1.172 2.828 1.172z"/><path d="m227.172 145.225c.781.781 1.805 1.172 2.828 1.172s2.047-.391 2.828-1.172c1.562-1.561 1.562-4.094 0-5.656l-11.312-11.314c-1.562-1.562-4.094-1.562-5.656 0-1.562 1.561-1.562 4.094 0 5.656z"/><path d="m210.199 116.941-11.312-11.314c-1.562-1.562-4.094-1.562-5.656 0-1.562 1.561-1.562 4.094 0 5.656l11.312 11.314c.781.781 1.805 1.172 2.828 1.172s2.047-.391 2.828-1.172c1.563-1.56 1.563-4.093 0-5.656z"/><path d="m130 166.396h28c2.211 0 4-1.791 4-4v-16c0-2.209-1.789-4-4-4h-28c-2.211 0-4 1.791-4 4v16c0 2.209 1.789 4 4 4zm4-16h20v8h-20z"/><path d="m130 222.396h28c2.211 0 4-1.791 4-4v-16c0-2.209-1.789-4-4-4h-28c-2.211 0-4 1.791-4 4v16c0 2.209 1.789 4 4 4zm4-16h20v8h-20z"/><path d="m142 174.396v16c0 2.209 1.789 4 4 4h28c2.211 0 4-1.791 4-4v-16c0-2.209-1.789-4-4-4h-28c-2.211 0-4 1.792-4 4zm8 4h20v8h-20z"/></g></svg>