<svg fill="#027AEC" height="512" viewBox="0 0 60 60" width="512" xmlns="http://www.w3.org/2000/svg">


<g id="Page-1" ><g id="027---Good-User-Experience" ><path id="Shape" d="m50 32.59v-28.59c0-2.209139-1.790861-4-4-4h-42c-2.209139 0-4 1.790861-4 4v48c0 2.209139 1.790861 4 4 4h32.221c4.1570974 4.0687147 10.3978914 5.1410662 15.6746987 2.693373 5.2768074-2.4476931 8.4888446-7.9048228 8.0675176-13.7064072s-4.3881261-10.7373673-9.9632163-12.3969658zm-46-30.59h42c1.1045695 0 2 .8954305 2 2v8h-46v-8c0-1.1045695.8954305-2 2-2zm-2 50v-38h46v18.16c-5.519068-.8092512-10.9906948 1.7415133-13.9193545 6.4889286-2.9286596 4.7474154-2.7532 10.7818427.4463545 15.3510714h-30.527c-1.1045695 0-2-.8954305-2-2zm44 6c-6.627417 0-12-5.372583-12-12s5.372583-12 12-12 12 5.372583 12 12c-.0071648 6.624447-5.375553 11.9928352-12 12z"/><path id="Shape" d="m7 10c1.65685425 0 3-1.34314575 3-3s-1.34314575-3-3-3-3 1.34314575-3 3 1.34314575 3 3 3zm0-4c.55228475 0 1 .44771525 1 1s-.44771525 1-1 1-1-.44771525-1-1 .44771525-1 1-1z"/><path id="Shape" d="m15 10c1.6568542 0 3-1.34314575 3-3s-1.3431458-3-3-3-3 1.34314575-3 3 1.3431458 3 3 3zm0-4c.5522847 0 1 .44771525 1 1s-.4477153 1-1 1-1-.44771525-1-1 .4477153-1 1-1z"/><path id="Shape" d="m33 10h10c1.6568542-.00000002 3-1.34314577 3-3s-1.3431458-2.99999998-3-3h-10c-1.6568542.00000002-3 1.34314577-3 3s1.3431458 2.99999998 3 3zm0-4h10c.5522847 0 1 .44771525 1 1s-.4477153 1-1 1h-10c-.5522847 0-1-.44771525-1-1s.4477153-1 1-1z"/><path id="Shape" d="m20 27c2.209139 0 4-1.790861 4-4v-5c0-.5522847-.4477153-1-1-1s-1 .4477153-1 1v5c0 1.1045695-.8954305 2-2 2s-2-.8954305-2-2v-5c0-.5522847-.4477153-1-1-1s-1 .4477153-1 1v5c0 2.209139 1.790861 4 4 4z"/><path id="Shape" d="m26.4 26.8c.2121732.1591299.4788704.2274568.7414214.1899495.2625509-.0375073.4994487-.1777763.6585786-.3899495l2.2-2.933 2.2 2.933c.2143594.2858125.5649147.4355547.9196152.3928203.3547006-.0427344.6596589-.2714531.8-.6.1403412-.3285469.0947442-.7070078-.1196152-.9928203l-2.55-3.4 2.55-3.4c.3313708-.4418278.2418278-1.0686292-.2-1.4s-1.0686292-.2418278-1.4.2l-2.2 2.933-2.2-2.933c-.2143594-.2858125-.5649147-.4355547-.9196152-.3928203-.3547006.0427344-.6596589.2714531-.8.6-.1403412.3285469-.0947442.7070078.1196152.9928203l2.55 3.4-2.55 3.4c-.1591299.2121732-.2274568.4788704-.1899495.7414214.0375073.2625509.1777763.4994487.3899495.6585786z"/><path id="Shape" d="m7 42h8c1.6568542 0 3-1.3431458 3-3v-6c0-1.6568542-1.3431458-3-3-3h-8c-1.65685425 0-3 1.3431458-3 3v6c0 1.6568542 1.34314575 3 3 3zm-1-3v-5.866l8.236 6.866h-7.236c-.55228475 0-1-.4477153-1-1zm10-6v5.866l-8.236-6.866h7.236c.5522847 0 1 .4477153 1 1z"/><path id="Shape" d="m20 31c0 .5522847.4477153 1 1 1h16c.5522847 0 1-.4477153 1-1s-.4477153-1-1-1h-16c-.5522847 0-1 .4477153-1 1z"/><path id="Shape" d="m29 44h-24c-.55228475 0-1 .4477153-1 1s.44771525 1 1 1h24c.5522847 0 1-.4477153 1-1s-.4477153-1-1-1z"/><path id="Shape" d="m23 48h-18c-.55228475 0-1 .4477153-1 1s.44771525 1 1 1h18c.5522847 0 1-.4477153 1-1s-.4477153-1-1-1z"/><path id="Shape" d="m32 35h-11c-.5522847 0-1 .4477153-1 1s.4477153 1 1 1h11c.5522847 0 1-.4477153 1-1s-.4477153-1-1-1z"/><path id="Shape" d="m30 40h-9c-.5522847 0-1 .4477153-1 1s.4477153 1 1 1h9c.5522847 0 1-.4477153 1-1s-.4477153-1-1-1z"/><path id="Shape" d="m45 43c0-2.209139-1.790861-4-4-4s-4 1.790861-4 4 1.790861 4 4 4 4-1.790861 4-4zm-6 0c-.0048769-.9718345.6895703-1.8065122 1.6460817-1.9784772.9565114-.1719649 1.8981977.3685631 2.2321249 1.2812397.3339271.9126767-.0365697 1.9333019-.8782066 2.4192375v-.722c0-.5522847-.4477153-1-1-1s-1 .4477153-1 1v.722c-.6167513-.3544126-.997855-1.0106732-1-1.722z"/><path id="Shape" d="m51 39c-2.209139 0-4 1.790861-4 4s1.790861 4 4 4 4-1.790861 4-4-1.790861-4-4-4zm1 5.722v-.722c0-.5522847-.4477153-1-1-1s-1 .4477153-1 1v.722c-.783936-.4526057-1.1661376-1.3753219-.9318517-2.2496889.234286-.874367 1.0266403-1.4823619 1.9318517-1.4823619s1.6975657.6079949 1.9318517 1.4823619c.2342859.874367-.1479157 1.7970832-.9318517 2.2496889z"/><path id="Shape" d="m49 49h-6c-1.1045695 0-2 .8954305-2 2 0 2.7614237 2.2385763 5 5 5s5-2.2385763 5-5c0-.530433-.2107137-1.0391408-.5857864-1.4142136-.3750728-.3750727-.8837806-.5857864-1.4142136-.5857864zm-3 5c-1.6568542 0-3-1.3431458-3-3h6c0 1.6568542-1.3431458 3-3 3z"/></g></g></svg>