<svg version="1.1" id="Layer_1" xmlns="http://www.w3.org/2000/svg" xmlns:xlink="http://www.w3.org/1999/xlink" x="0px" y="0px" width="96px" height="96px" viewBox="0 0 96 96" enable-background="new 0 0 96 96" xml:space="preserve" class="icon">
<path fill="#2785e6" d="M73.8,60v13.1c0,0.3-0.2,0.5-0.5,0.5H60.2c-0.3,0-0.5-0.2-0.5-0.5s0.2-0.5,0.5-0.5H72l-14-14
	c-0.2-0.2-0.2-0.5,0-0.7s0.5-0.2,0.7,0L72.8,72V60c0-0.3,0.2-0.5,0.5-0.5S73.8,59.7,73.8,60z M73.3,22.6H60.2
	c-0.3,0-0.5,0.2-0.5,0.5s0.2,0.5,0.5,0.5H72l-14,14c-0.2,0.2-0.2,0.5,0,0.7c0.1,0.1,0.2,0.1,0.4,0.1s0.3,0,0.4-0.1l14.1-14.1v12
	c0,0.3,0.2,0.5,0.5,0.5s0.5-0.2,0.5-0.5V23.1C73.8,22.8,73.6,22.6,73.3,22.6z M24.5,23.6h11.9c0.3,0,0.5-0.2,0.5-0.5
	s-0.2-0.5-0.5-0.5H23.3c-0.1,0-0.1,0-0.2,0c-0.1,0-0.2,0.1-0.3,0.3c0,0.1,0,0.1,0,0.2v13.1c0,0.3,0.2,0.5,0.5,0.5s0.5-0.2,0.5-0.5
	V24.3l14,14c0.1,0.1,0.2,0.1,0.4,0.1s0.3,0,0.4-0.1c0.2-0.2,0.2-0.5,0-0.7L24.5,23.6z M37.8,57.8l-14,14V60c0-0.3-0.2-0.5-0.5-0.5
	s-0.5,0.2-0.5,0.5v13.1c0,0.1,0,0.1,0,0.2c0.1,0.1,0.1,0.2,0.3,0.3c0.1,0,0.1,0,0.2,0h13.1c0.3,0,0.5-0.2,0.5-0.5s-0.2-0.5-0.5-0.5
	H24.5l14-14c0.2-0.2,0.2-0.5,0-0.7S38,57.7,37.8,57.8z M95,47.5C95,73.7,73.7,95,47.5,95S0,73.7,0,47.5S21.3,0,47.5,0
	S95,21.3,95,47.5z M94,47.5C94,21.9,73.1,1,47.5,1S1,21.9,1,47.5S21.9,94,47.5,94S94,73.1,94,47.5z"></path>
</svg>