<svg version="1.1" id="Layer_1" xmlns="http://www.w3.org/2000/svg" xmlns:xlink="http://www.w3.org/1999/xlink" x="0px" y="0px" width="94px" height="98px" viewBox="0 0 94 98" enable-background="new 0 0 94 98" xml:space="preserve" class="icon">
<path fill="#2785e6" d="M93.4,22.9c0-11.6-9.4-21-21-21c-7,0-13.2,3.5-17,8.8c0-0.2-0.1-0.4-0.3-0.5c-5.2-2.4-9.8-5.6-14.2-9.9
	c-0.2-0.2-0.5-0.2-0.7,0c-10.5,10.2-23,14.9-39.4,14.9c-0.3,0-0.5,0.2-0.5,0.5c0,2.6-0.1,5.3-0.1,8.1C-0.4,50.2-1,83.2,40.3,97.6
	c0.1,0,0.1,0,0.2,0s0.1,0,0.2,0C73.9,86,79.5,62.3,80.7,42.9c0-0.3-0.2-0.5-0.5-0.5c-0.1,0-0.1,0-0.2,0
	C87.9,39.3,93.4,31.7,93.4,22.9z M79.7,42.8C78.5,61.9,73,85.2,40.5,96.6C0,82.4,0.6,49.9,1.1,23.7c0-2.6,0.1-5.2,0.1-7.6
	C17.5,16,30,11.2,40.5,1.2c4.4,4.2,9,7.4,14.2,9.8c0.1,0.1,0.3,0.1,0.4,0c-1.8,2.6-3,5.6-3.5,8.9c0-0.1-0.1-0.2-0.2-0.3
	c-3.8-1.8-7.2-4.2-10.4-7.3c-0.1-0.2-0.2-0.3-0.5-0.3c-0.2,0-0.4,0.1-0.5,0.3c-7.8,7.5-17.2,11.1-29.4,11.1c-0.3,0-0.5,0.2-0.5,0.5
	c0,1.9,0,4-0.1,6.1C9.7,49.9,9.2,74.7,40.3,85.5c0.1,0,0.1,0,0.2,0s0.1,0,0.2,0C65.7,76.8,70,58.8,70.8,44.1c0-0.1,0-0.2-0.1-0.3
	c0.5,0,1.1,0.1,1.7,0.1c2.7,0,5.3-0.5,7.6-1.5C79.9,42.5,79.7,42.6,79.7,42.8z M40.1,84.3C10.3,73.7,10.7,49.4,11.1,30
	c0-1.9,0.1-3.8,0.1-5.6C23,24.3,32.2,20.9,40,13.7v70.4C40,84.2,40,84.2,40.1,84.3z M41,84.1V13.7c3.1,2.9,6.4,5.1,10,6.8
	c0.2,0.1,0.4,0,0.6-0.1c-0.1,0.8-0.2,1.6-0.2,2.5c0,10.8,8.1,19.6,18.6,20.8c-0.1,0.1-0.1,0.2-0.1,0.3C69,58.3,64.9,75.7,40.9,84.3
	C41,84.2,41,84.2,41,84.1z M72.4,42.9c-11,0-20-9-20-20s9-20,20-20s20,9,20,20S83.4,42.9,72.4,42.9z M83.7,13.4
	c0.2,0.2,0.3,0.5,0.1,0.7l-12.7,18c-0.1,0.1-0.2,0.2-0.4,0.2c0,0,0,0,0,0c-0.1,0-0.3-0.1-0.4-0.2L62,22.9c-0.2-0.2-0.2-0.5,0-0.7
	c0.2-0.2,0.5-0.2,0.7,0l7.9,8.9L83,13.6C83.1,13.3,83.5,13.3,83.7,13.4z"></path>
</svg>