<svg version="1.1" id="Layer_1" xmlns="http://www.w3.org/2000/svg" xmlns:xlink="http://www.w3.org/1999/xlink" x="0px" y="0px" width="91px" height="103px" viewBox="0 0 91 103" enable-background="new 0 0 91 103" xml:space="preserve" class="icon">
<path fill="#2785e6" d="M45.5,17c-0.3,0-0.5,0.2-0.5,0.5V38c-4.6,0.2-8.6,2.6-10.9,6.3L16.3,34.1c-0.2-0.1-0.5-0.1-0.7,0.2
	c-0.1,0.2-0.1,0.5,0.2,0.7l17.8,10.3c-1,1.9-1.6,4-1.6,6.3c0,2.3,0.6,4.4,1.6,6.3L15.8,68.1c-0.2,0.1-0.3,0.4-0.2,0.7
	c0.1,0.2,0.3,0.2,0.4,0.2c0.1,0,0.2,0,0.2-0.1l17.8-10.3c2.3,3.7,6.3,6.1,10.9,6.3v20.5c0,0.3,0.2,0.5,0.5,0.5s0.5-0.2,0.5-0.5V65
	c4.6-0.2,8.6-2.6,10.9-6.3l17.8,10.3c0.1,0,0.2,0.1,0.2,0.1c0.2,0,0.3-0.1,0.4-0.2c0.1-0.2,0.1-0.5-0.2-0.7L57.4,57.8
	c1-1.9,1.6-4,1.6-6.3c0-2.3-0.6-4.4-1.6-6.3l17.8-10.3c0.2-0.1,0.3-0.4,0.2-0.7c-0.1-0.2-0.4-0.3-0.7-0.2L56.9,44.3
	c-2.3-3.7-6.3-6.1-10.9-6.3V17.5C46,17.2,45.8,17,45.5,17z M58,51.5C58,58.4,52.4,64,45.5,64S33,58.4,33,51.5S38.6,39,45.5,39
	S58,44.6,58,51.5z M87.7,68.4C87.7,68.4,87.7,68.4,87.7,68.4c0-0.1,0.1-0.1,0.1-0.2c2.1-5.3,3.2-10.9,3.2-16.7
	c0-5.8-1.1-11.4-3.2-16.7c0-0.1-0.1-0.1-0.1-0.2c0,0,0,0,0,0c1.5-0.9,2.6-2.3,3-3.9c0.5-1.7,0.2-3.4-0.6-4.9c-1.2-2-3.3-3.3-5.6-3.3
	c-1.1,0-2.3,0.3-3.2,0.9l0,0C74,14.2,63.7,8.2,52.2,6.5c-0.1,0-0.2,0-0.3,0c0,0,0,0,0-0.1C52,2.9,49.1,0,45.5,0S39,2.9,39,6.5
	s2.9,6.5,6.5,6.5c3.3,0,6-2.4,6.4-5.6c0.1,0,0.1,0.1,0.2,0.1C63.3,9.2,73.3,15,80.4,23.9c-2.5,2-3.2,5.5-1.6,8.3
	c1.2,2,3.3,3.2,5.6,3.2c0.8,0,1.6-0.2,2.4-0.5c0,0,0,0.1,0,0.1c2,5.2,3.1,10.7,3.1,16.3c0,5.6-1,11.1-3.1,16.3c0,0,0,0.1,0,0.1
	c-0.8-0.3-1.6-0.5-2.4-0.5c-2.3,0-4.5,1.2-5.6,3.3c-0.9,1.5-1.1,3.3-0.6,4.9c0.4,1.7,1.5,3.1,3,3.9c1,0.6,2.1,0.9,3.2,0.9
	c2.3,0,4.5-1.2,5.6-3.2C91.9,74.1,90.8,70.2,87.7,68.4z M45.5,12c-3,0-5.5-2.5-5.5-5.5S42.4,1,45.5,1S51,3.5,51,6.5S48.5,12,45.5,12
	z M79.7,31.8c-1.5-2.6-0.6-6,2-7.5c0.8-0.5,1.8-0.7,2.7-0.7c2,0,3.8,1.1,4.8,2.8c0.7,1.3,0.9,2.8,0.5,4.2c-0.4,1.4-1.3,2.6-2.6,3.3
	c-0.8,0.5-1.8,0.7-2.7,0.7C82.5,34.5,80.7,33.4,79.7,31.8z M89.2,76.8c-1,1.7-2.8,2.8-4.8,2.8c-1,0-1.9-0.3-2.7-0.7
	c-1.3-0.7-2.2-1.9-2.6-3.3c-0.4-1.4-0.2-2.9,0.5-4.2c1-1.7,2.8-2.8,4.8-2.8c1,0,1.9,0.3,2.7,0.7C89.8,70.8,90.7,74.1,89.2,76.8z
	 M12.8,75.7c0.4-1.7,0.2-3.4-0.6-4.9c-1.2-2-3.3-3.3-5.6-3.3c-0.8,0-1.6,0.2-2.4,0.5c0,0,0-0.1,0-0.1C2,62.6,1,57.1,1,51.5
	c0-5.6,1-11.1,3.1-16.3c0,0,0-0.1,0-0.1c0.8,0.3,1.6,0.5,2.4,0.5c2.3,0,4.5-1.2,5.6-3.2c1.8-3.1,0.7-7.1-2.4-8.9
	c-1-0.6-2.1-0.9-3.2-0.9c-2.3,0-4.5,1.2-5.6,3.3C0,27.3-0.2,29,0.2,30.7c0.4,1.7,1.5,3.1,3,3.9c0,0,0,0,0,0c0,0-0.1,0.1-0.1,0.2
	C1.1,40.1,0,45.7,0,51.5c0,5.8,1.1,11.4,3.2,16.7c0,0.1,0.1,0.1,0.1,0.2c0,0,0,0,0,0c-3.1,1.8-4.2,5.8-2.4,8.9
	c1.2,2,3.3,3.2,5.6,3.2c1.1,0,2.3-0.3,3.2-0.9C11.3,78.8,12.3,77.4,12.8,75.7z M1.2,30.4C0.8,29,1,27.5,1.7,26.3
	c1-1.7,2.8-2.8,4.8-2.8c1,0,1.9,0.3,2.7,0.7c2.6,1.5,3.5,4.9,2,7.5c-1,1.7-2.8,2.8-4.8,2.8c-1,0-1.9-0.3-2.7-0.7
	C2.5,33,1.6,31.8,1.2,30.4z M9.3,78.8c-0.8,0.5-1.8,0.7-2.7,0.7c-2,0-3.8-1.1-4.8-2.8c-1.5-2.6-0.6-6,2-7.5c0.8-0.5,1.8-0.7,2.7-0.7
	c2,0,3.8,1.1,4.8,2.8c0.7,1.3,0.9,2.8,0.5,4.2C11.4,76.8,10.5,78,9.3,78.8z M38.9,96c0,0.2-0.3,0.4-0.5,0.4c0,0-0.1,0-0.1,0
	c-11-1.7-21-7.4-28.1-16.1c-0.2-0.2-0.1-0.5,0.1-0.7c0.2-0.2,0.5-0.1,0.7,0.1c6.9,8.5,16.7,14.1,27.4,15.7
	C38.8,95.5,39,95.7,38.9,96z M79.9,79.7c-7.1,8.6-17,14.2-28,15.8c-0.5-3.1-3.2-5.5-6.4-5.5c-3.6,0-6.5,2.9-6.5,6.5s2.9,6.5,6.5,6.5
	s6.5-2.9,6.5-6.5c11.2-1.6,21.4-7.3,28.7-16.2c0.2-0.2,0.1-0.5-0.1-0.7C80.4,79.4,80.1,79.5,79.9,79.7z M45.5,102
	c-3,0-5.5-2.5-5.5-5.5c0-3,2.5-5.5,5.5-5.5s5.5,2.5,5.5,5.5C51,99.5,48.5,102,45.5,102z M10.4,23.4c-0.2-0.2-0.2-0.5-0.1-0.7
	C17.4,14,27.4,8.3,38.4,6.6c0.3,0,0.5,0.1,0.6,0.4c0,0.3-0.1,0.5-0.4,0.6C27.8,9.2,18,14.8,11.1,23.3c-0.1,0.1-0.2,0.2-0.4,0.2
	C10.6,23.5,10.5,23.5,10.4,23.4z"></path>
</svg>