<svg version="1.1" id="Layer_1" xmlns="http://www.w3.org/2000/svg" xmlns:xlink="http://www.w3.org/1999/xlink" x="0px" y="0px" width="100px" height="100px" viewBox="0 0 112.3 113.2" enable-background="new 0 0 112.3 113.2" xml:space="preserve" class="icon">
<path fill="#0096E6" d="M66.1,91.7l0.4,0.9c-5.8,2.4-12,3.6-18.3,3.6C21.6,96.2,0,74.6,0,48.1S21.6,0,48.1,0
	c26.5,0,48.1,21.6,48.1,48.1c0,6.8-1.4,13.4-4.2,19.6l-0.9-0.4c2.7-6.1,4.1-12.5,4.1-19.2C95.2,22.1,74.1,1,48.1,1
	C22.1,1,1,22.1,1,48.1s21.1,47.1,47.1,47.1C54.3,95.2,60.4,94,66.1,91.7z M74.6,60.1c1.7-3.8,2.6-7.8,2.6-12c0-16-13-29.1-29.1-29.1
	c-16,0-29.1,13-29.1,29.1c0,16,13,29.1,29.1,29.1c3.8,0,7.4-0.7,10.9-2.1l-0.4-0.9c-3.3,1.3-6.9,2-10.5,2C32.6,76.2,20,63.6,20,48.1
	S32.6,20,48.1,20c15.5,0,28.1,12.6,28.1,28.1c0,4-0.8,7.9-2.5,11.6L74.6,60.1z M83.2,80.9l19.6,19.6l-3.2,3.2L80,84l-3.5,29.2
	L47.1,47.9l65.3,29.4L83.2,80.9z M81,80.1l27.7-3.3L49.1,49.9l26.9,59.6l3.3-27.7l20.3,20.3l1.7-1.7L81,80.1z"></path>
</svg>