<svg version="1.1" id="Layer_1" xmlns="http://www.w3.org/2000/svg" xmlns:xlink="http://www.w3.org/1999/xlink" x="0px" y="0px" width="89px" height="97px" viewBox="0 0 89 97" enable-background="new 0 0 89 97" xml:space="preserve" class="icon">
<path fill="#0096E6" d="M71.6,47.8h-16H17.3C8.3,47.8,1,40.5,1,31.5c0-9,7.2-16.3,16.3-16.6h23.2c0.1,8,6.5,14.6,14.7,15h15.4v-5
	h11.1V4H70.7V0H55.2C47.4,0,41,6.2,40.5,13.9l-23.2,0C7.6,14.2,0,21.9,0,31.5C0,41,7.8,48.8,17.3,48.8h38.3h16
	c9,0,16.3,7.3,16.3,16.3c0,8.8-7.3,16.3-16.2,16.6H46.2c-0.1-7.8-6.5-13.9-14.7-13.9H16v3.9H4.9v20.8H16v4.1h15.4
	c7.9,0,14.3-6.2,14.7-13.9l25.5,0c9.5-0.3,17.2-8.3,17.2-17.6C88.9,55.5,81.1,47.8,71.6,47.8z M80.8,5v18.9H70.7V5H80.8z M55.2,1
	h14.4v27.9H55.3c-7.7-0.3-13.8-6.5-13.8-14.1C41.5,7.2,47.7,1,55.2,1z M5.9,91.5V72.7H16v18.8H5.9z M31.5,95.6H17V68.8h14.4
	c7.8,0,13.8,5.6,13.8,13.1C45.2,89.5,39.1,95.6,31.5,95.6z"></path>
</svg>