<svg version="1.1" id="Layer_1" xmlns="http://www.w3.org/2000/svg" xmlns:xlink="http://www.w3.org/1999/xlink" x="0px" y="0px" width="101.2px" height="96.6px" viewBox="0 0 101.2 96.6" enable-background="new 0 0 101.2 96.6" xml:space="preserve" class="icon">
<path fill="#0096E6" d="M50.6,71c-9.8,0-17.8-8-17.8-17.8s8-17.8,17.8-17.8s17.8,8,17.8,17.8S60.4,71,50.6,71z M50.6,36.4
	c-9.2,0-16.8,7.5-16.8,16.8c0,9.2,7.5,16.8,16.8,16.8c9.2,0,16.8-7.5,16.8-16.8C67.4,44,59.9,36.4,50.6,36.4z M50.6,66.5
	c-7.3,0-13.3-6-13.3-13.3s6-13.3,13.3-13.3s13.3,6,13.3,13.3S57.9,66.5,50.6,66.5z M50.6,40.9c-6.8,0-12.3,5.5-12.3,12.3
	c0,6.8,5.5,12.3,12.3,12.3c6.8,0,12.3-5.5,12.3-12.3C62.9,46.4,57.4,40.9,50.6,40.9z M50.6,13.2c-1.8,0-3.4-0.7-4.7-1.9
	C44.7,10,44,8.4,44,6.6c0-1.8,0.7-3.4,1.9-4.7C47.2,0.7,48.8,0,50.6,0s3.4,0.7,4.7,1.9c1.3,1.2,1.9,2.9,1.9,4.7
	c0,1.8-0.7,3.4-1.9,4.7C54,12.5,52.4,13.2,50.6,13.2z M50.6,1c-1.5,0-2.9,0.6-4,1.6c-1.1,1.1-1.6,2.5-1.6,4c0,1.5,0.6,2.9,1.6,4
	c1.1,1.1,2.5,1.6,4,1.6s2.9-0.6,4-1.6c1.1-1.1,1.6-2.5,1.6-4c0-1.5-0.6-2.9-1.6-4C53.5,1.6,52.1,1,50.6,1z M79.5,96.6
	c-1.8,0-3.4-0.7-4.7-1.9c-2.6-2.6-2.6-6.8,0-9.4c1.2-1.3,2.9-1.9,4.7-1.9s3.4,0.7,4.7,1.9c2.6,2.6,2.6,6.8,0,9.4
	C83,95.9,81.3,96.6,79.5,96.6z M79.5,84.4c-1.5,0-2.9,0.6-4,1.6c-2.2,2.2-2.2,5.8,0,7.9c1.1,1.1,2.5,1.6,4,1.6c1.5,0,2.9-0.6,4-1.6
	c2.2-2.2,2.2-5.8,0-7.9C82.4,85,81,84.4,79.5,84.4z M21.5,96.6c-1.8,0-3.4-0.7-4.7-1.9c-2.6-2.6-2.6-6.8,0-9.4
	c1.2-1.3,2.9-1.9,4.7-1.9s3.4,0.7,4.7,1.9c2.6,2.6,2.6,6.8,0,9.4C25,95.9,23.3,96.6,21.5,96.6z M21.5,84.4c-1.5,0-2.9,0.6-4,1.6
	c-2.2,2.2-2.2,5.8,0,7.9c1.1,1.1,2.5,1.6,4,1.6s2.9-0.6,4-1.6c2.2-2.2,2.2-5.8,0-7.9C24.4,85,23,84.4,21.5,84.4z M94.6,44.6
	c-1.8,0-3.4-0.7-4.7-1.9c-2.6-2.6-2.6-6.8,0-9.4c1.2-1.2,2.9-1.9,4.7-1.9s3.4,0.7,4.7,1.9c2.6,2.6,2.6,6.8,0,9.4
	C98,44,96.4,44.6,94.6,44.6z M94.6,32.4c-1.5,0-2.9,0.6-4,1.6c-2.2,2.2-2.2,5.8,0,7.9c1.1,1.1,2.5,1.6,4,1.6c1.5,0,2.9-0.6,4-1.6
	c2.2-2.2,2.2-5.8,0-7.9C97.5,33,96.1,32.4,94.6,32.4z M6.6,44.6c-1.8,0-3.4-0.7-4.7-1.9c-2.6-2.6-2.6-6.8,0-9.4
	c1.2-1.2,2.9-1.9,4.7-1.9s3.4,0.7,4.7,1.9c2.6,2.6,2.6,6.8,0,9.4C10,44,8.4,44.6,6.6,44.6z M6.6,32.4c-1.5,0-2.9,0.6-4,1.6
	c-2.2,2.2-2.2,5.8,0,7.9c1.1,1.1,2.5,1.6,4,1.6s2.9-0.6,4-1.6c2.2-2.2,2.2-5.8,0-7.9C9.5,33,8.1,32.4,6.6,32.4z M51.1,12.7h-1v23.2
	h1V12.7z M89,40.4l-0.3-0.9l-21.7,8l0.3,0.9L89,40.4z M34.3,47.4l-21.7-8l-0.3,0.9l21.7,8L34.3,47.4z M40.8,67.5L40,66.8L24.8,84.7
	l0.8,0.6L40.8,67.5z M76.3,84.7L61.1,66.8l-0.8,0.6l15.2,17.9L76.3,84.7z"></path>
</svg>